<?xml version="1.0" encoding="UTF-8"?>
<svg width="16px" height="16px" viewBox="0 0 16 16" version="1.1" xmlns="http://www.w3.org/2000/svg" xmlns:xlink="http://www.w3.org/1999/xlink">
    <title>Icons/Info/Secondary</title>
    <g id="Page-1" stroke="none" stroke-width="1" fill="none" fill-rule="evenodd">
        <g id="Gamer-Arena-Settings-Game-Settings-360px--2-1" transform="translate(-26.000000, -374.000000)">
            <rect fill="none" x="0" y="0" width="360" height="1194"></rect>
            <g id="Icons/Info/Secondary" transform="translate(24.000000, 372.000000)">
                <rect id="Rectangle" x="0" y="0" width="20" height="20"></rect>
                <path d="M10,2.5 C5.8645,2.5 2.5,5.8645 2.5,10 C2.5,14.1355 5.8645,17.5 10,17.5 C14.1355,17.5 17.5,14.1355 17.5,10 C17.5,5.8645 14.1355,2.5 10,2.5 M10,16 C6.69175,16 4,13.30825 4,10 C4,6.69175 6.69175,4 10,4 C13.30825,4 16,6.69175 16,10 C16,13.30825 13.30825,16 10,16 M10.75,12.25 L10.75,10 C10.75,9.58578644 10.4142136,9.25 10,9.25 L9.25,9.25 C8.83578644,9.25 8.5,9.58578644 8.5,10 C8.5,10.4142136 8.83578644,10.75 9.25,10.75 L9.25,13 C9.25,13.4142136 9.58578644,13.75 10,13.75 L10.75,13.75 C11.1642136,13.75 11.5,13.4142136 11.5,13 C11.5,12.5857864 11.1642136,12.25 10.75,12.25 M10,7.825 C10.4556349,7.825 10.825,7.45563492 10.825,7 C10.825,6.54436508 10.4556349,6.175 10,6.175 C9.54436508,6.175 9.175,6.54436508 9.175,7 C9.175,7.45563492 9.54436508,7.825 10,7.825" id="Shape" stroke="#111217" stroke-width="0.5" fill="#959AA2" fill-rule="nonzero"></path>
            </g>
        </g>
    </g>
</svg>
