<?xml version="1.0" encoding="UTF-8"?>
<svg width="10px" height="10px" viewBox="0 0 10 10" version="1.1" xmlns="http://www.w3.org/2000/svg" xmlns:xlink="http://www.w3.org/1999/xlink">
    <title>Icons/On Dark/Primary/Knives</title>
    <g id="Symbols" stroke="none" stroke-width="1" fill="none" fill-rule="evenodd">
        <g id="Online-User-Menu/Collapsed/No-Filtered" transform="translate(-198.000000, -328.000000)" fill="#959AA2" fill-rule="nonzero">
            <g id="Users" transform="translate(35.000000, 321.000000)">
                <g id="Button/Secondary/Icon/Grey/20px" transform="translate(158.000000, 2.000000)">
                    <g id="Icons/On-Dark/Secondary/Swords" transform="translate(5.000000, 5.000000)">
                        <path d="M9.68990756,8.19266803 L8.33934583,6.84210526 L6.84210526,8.33932772 L8.19268625,9.68990973 C8.60613962,10.1033634 9.27647344,10.1033634 9.68992681,9.68990973 C10.1033609,9.27645605 10.1033609,8.60612171 9.68990756,8.19266803 L9.68990756,8.19266803 Z" id="Path"></path>
                        <path d="M4.69546213,7.89473684 C4.76533294,7.89473684 4.83524016,7.86806648 4.88854441,7.81474396 C4.99518933,7.70809892 4.99518933,7.53520579 4.88854441,7.42856075 L4.56769941,7.10771537 L9.89978145,2.74826709 C9.96320769,2.69640098 10,2.61879295 10,2.53685213 L10,0.273075386 C10,0.122264953 9.87773519,0 9.72692493,0 L7.46311438,0 C7.38117366,0 7.30356572,0.036792357 7.25169966,0.100218667 L2.89227462,5.43228865 L2.57142961,5.11144328 C2.4648029,5.00481644 2.29189176,5.00479824 2.18524685,5.11144328 C2.07860193,5.21808832 2.07860193,5.39098145 2.18524685,5.49762649 L4.50236164,7.81474396 C4.5556841,7.86808468 4.62555491,7.89473684 4.69546213,7.89473684 Z M8.29987102,1.31394773 C8.40649773,1.20730269 8.57940887,1.20730269 8.68605378,1.31394773 C8.7926987,1.42059277 8.7926987,1.5934859 8.68605378,1.70013094 L3.92307839,6.46311182 L3.53689563,6.07692861 L8.29987102,1.31394773 Z" id="Shape"></path>
                        <path d="M1.80733197,9.68990756 L3.15789474,8.33934583 L1.66067228,6.84210526 L0.310090265,8.19268625 C-0.103363422,8.60613962 -0.103363422,9.27647344 0.310090265,9.68992681 C0.723543952,10.1033609 1.39387829,10.1033609 1.80733197,9.68990756 L1.80733197,9.68990756 Z" id="Path"></path>
                        <path d="M0.0979564601,3.20485848 L2.2081041,5.26315789 L3.02942586,4.06462918 L1.28428838,1.98257403 C1.1800506,1.85823326 1.1800506,1.65659613 1.28428838,1.53223413 C1.38852615,1.40787213 1.55751661,1.40787213 1.66175439,1.53223413 L3.36902605,3.56911305 L4.21052632,2.34116034 L2.68624906,0.116868014 C2.6355537,0.0429046786 2.5596975,0 2.47960631,0 L0.266911335,0 C0.119505102,0 0,0.142576854 0,0.318441454 L0,2.95834234 C0,3.053896 0.0359618539,3.14437584 0.0979564601,3.20485848 Z" id="Path"></path>
                        <path d="M7.90690805,5.35137246 L7.55304839,5.70523465 L7.41739951,5.53932661 L6.61844449,6.19253805 L6.84209648,6.41619164 L6.41617587,6.8421153 L6.14977721,6.57571474 L5.32980023,7.24611332 L5.70522396,7.55305222 L5.3513643,7.90691441 C5.2337658,8.02451375 5.23374572,8.21521864 5.3513643,8.33283807 C5.46898288,8.45045749 5.65966633,8.45045749 5.77728491,8.33283807 L8.33282866,5.77727604 C8.39163795,5.71846633 8.42105263,5.64140533 8.42105263,5.56432425 C8.42105263,5.48726325 8.39163795,5.41016209 8.33282866,5.35137246 C8.21521008,5.23375304 8.02452663,5.23375304 7.90690805,5.35137246 L7.90690805,5.35137246 Z" id="Path"></path>
                    </g>
                </g>
            </g>
        </g>
    </g>
</svg>
