<?xml version="1.0" encoding="UTF-8"?>
<svg width="19px" height="19px" viewBox="0 0 19 19" version="1.1" xmlns="http://www.w3.org/2000/svg" xmlns:xlink="http://www.w3.org/1999/xlink">
    <title>🔹 Icon Color</title>
    <g id="Symbols" stroke="none" stroke-width="1" fill="none" fill-rule="evenodd">
        <g id="🔹-Icon-Color" transform="translate(-3.000000, -2.000000)" fill="#FFFFFF">
            <path d="M17.7791484,14.9615385 L17.7791484,10.3461538 C17.7791484,7.51230769 16.2653022,5.14 13.6253022,4.51230769 L13.6253022,3.88461538 C13.6253022,3.11846154 12.9976099,2.5 12.2314561,2.5 C11.4653022,2.5 10.8560715,3.11846154 10.8560715,3.88461538 L10.8560715,4.51230769 C8.2068407,5.14 6.70222531,7.50307692 6.70222531,10.3461538 L6.70222531,14.9615385 L5.50222531,16.1523077 C4.92068685,16.7338462 5.3268407,17.7307692 6.14837916,17.7307692 L18.3053022,17.7307692 C19.1268407,17.7307692 19.5422253,16.7338462 18.9606869,16.1523077 L17.7791484,14.9615385 Z M12.2314561,20.5 C13.2468407,20.5 14.0776099,19.6692308 14.0776099,18.6538462 L10.3853022,18.6538462 C10.3853022,19.6692308 11.2068407,20.5 12.2314561,20.5 Z M7.41299454,4.55846154 C7.80068685,4.20769231 7.80991762,3.60769231 7.44068685,3.23846154 C7.08991762,2.88769231 6.51760993,2.87846154 6.15760993,3.22 C4.57914839,4.66 3.48991762,6.61692308 3.13914839,8.81384615 C3.05607147,9.37692308 3.48991762,9.88461538 4.06222531,9.88461538 C4.50530224,9.88461538 4.89299454,9.56153846 4.9668407,9.11846154 C5.24376377,7.32769231 6.12991762,5.73076923 7.41299454,4.55846154 Z M18.3329945,3.22 C17.9637638,2.87846154 17.3914561,2.88769231 17.0406869,3.23846154 C16.6714561,3.60769231 16.6899176,4.19846154 17.0683792,4.54923077 C18.3422253,5.72153846 19.2376099,7.31846154 19.514533,9.10923077 C19.5791484,9.55230769 19.9668407,9.87538462 20.4191484,9.87538462 C20.9822253,9.87538462 21.4253022,9.36769231 21.3329945,8.80461538 C20.9822253,6.61692308 19.9022253,4.66923077 18.3329945,3.22 Z"></path>
        </g>
    </g>
</svg>