<svg xmlns="http://www.w3.org/2000/svg" width="20" height="21" viewBox="0 0 20 21">
    <g fill="none" fill-rule="evenodd">
        <g fill="#FFF">
            <g>
                <g>
                    <g>
                        <g>
                            <path d="M10.292 0c.808.008 1.466.425 1.85 1.174.158.316.416.865.641 1.34l.084.183c.033.058.091.1.166.1 2 0 3.634 1.631 3.634 3.63v4.944c0 1.997-1.634 3.629-3.634 3.629h-9.4C1.625 15 0 13.368 0 11.37V6.427c0-1.998 1.625-3.63 3.633-3.63.067 0 .134-.032.159-.099l.05-.1c.233-.491.516-1.09.683-1.423C4.908.424 5.558.008 6.367 0zM8.333 5.336c-.875 0-1.7.341-2.325.965-.616.625-.958 1.44-.95 2.306 0 .874.342 1.69.959 2.314.625.616 1.441.957 2.316.957.9 0 1.717-.366 2.309-.957.591-.59.958-1.407.966-2.314 0-.866-.341-1.69-.958-2.314-.617-.616-1.442-.957-2.317-.957zm0 1.248c.542 0 1.05.208 1.434.591.383.383.591.891.591 1.432-.008 1.116-.908 2.023-2.025 2.023-.541 0-1.05-.208-1.433-.591s-.592-.89-.592-1.432c-.008-.533.2-1.04.584-1.423.391-.392.9-.6 1.441-.6zm4.675-1.448c-.416 0-.75.341-.75.757 0 .417.334.75.75.75.417 0 .759-.333.759-.75 0-.416-.342-.757-.759-.757z" transform="translate(-64 -118) translate(16 75.913) translate(0 .087) translate(42 36.087) translate(6 6) translate(1.667 2.5)"/>
                        </g>
                    </g>
                </g>
            </g>
        </g>
    </g>
</svg>
