<?xml version="1.0" encoding="UTF-8"?>
<svg width="26px" height="27px" viewBox="0 0 26 27" version="1.1" xmlns="http://www.w3.org/2000/svg" xmlns:xlink="http://www.w3.org/1999/xlink">
    <title>Artboard</title>
    <g id="Artboard" stroke="none" stroke-width="1" fill="none" fill-rule="evenodd">
        <g id="Online-Users" transform="translate(1.000000, 2.000000)" fill="#FFFFFF" fill-rule="nonzero">
            <g>
                <g id="user-3" transform="translate(11.000000, 0.000000)">
                    <path d="M5.99999998,0 C7.3486394,0 8.51643389,0.48377149 9.47088434,1.43794115 C10.4253347,2.39257728 10.9090909,3.56040881 10.9090909,4.90893542 C10.9090909,6.25792854 10.4253347,7.42560454 9.47103982,8.37992968 C8.51674491,9.33441037 7.34879489,9.81818182 5.99999998,9.81818182 C5.4854958,9.81818182 4.99729544,9.74773423 4.53721265,9.60759912 C4.64698365,9.51352361 4.75298321,9.41478088 4.85671092,9.31103298 C5.9170386,8.25067171 6.45454545,6.95325394 6.45454545,5.45437268 C6.45454545,3.95600979 5.9170386,2.6584192 4.85653815,1.59771238 C4.46088542,1.20217605 4.03223795,0.879389158 3.57247091,0.630123343 C4.29606576,0.211328446 5.10843128,0 5.99999998,0 Z" id="Combined-Shape"></path>
                    <path d="M8.40991642,11.1861946 C8.82125941,10.911157 9.03425571,10.8183509 9.25449459,10.8183509 C9.81529714,10.8183509 10.3395578,10.9157213 10.8126269,11.1079264 C11.287342,11.3011457 11.697862,11.5660406 12.0331584,11.8955109 C12.3538051,12.2104433 12.6395559,12.593163 12.8828392,13.0326822 C13.117234,13.456142 13.3068567,13.8980278 13.4462754,14.3454921 C13.5812499,14.7784185 13.694003,15.2520849 13.7815718,15.7531367 C13.8683176,16.2504696 13.9272455,16.7214312 13.9563802,17.1531743 C13.9851857,17.5751127 14,18.0154771 14,18.4619271 C14,19.6190459 13.6419884,20.5555598 12.9358414,21.2456048 C12.2384184,21.9271976 11.3161476,22.2727273 10.1942133,22.2727273 L10.1942133,22.2727273 L10.0266527,22.2739006 C10.6728225,21.5325433 11,20.5681448 11,19.4021412 C11,18.9060856 10.9835397,18.4167919 10.9515336,17.9479715 C10.9191616,17.4682569 10.8536862,16.9449662 10.757302,16.3923741 C10.6600033,15.8356499 10.5347221,15.3093539 10.3847505,14.8283246 C10.2298407,14.331142 10.0191489,13.8401578 9.75871028,13.3696469 C9.4883955,12.8812923 9.17089454,12.4560481 8.81462042,12.1061233 C8.56892911,11.864701 8.28688662,11.6544844 7.97200761,11.477736 Z" id="Combined-Shape"></path>
                </g>
                <path d="M9.99999998,10.9090909 C11.498661,10.9090909 12.7963832,10.3715671 13.8567109,9.31103298 C14.9170386,8.25067171 15.4545455,6.95325394 15.4545455,5.45437268 C15.4545455,3.95600979 14.9170386,2.6584192 13.8565382,1.59771238 C12.7960377,0.537523878 11.4984882,0 9.99999998,0 C8.50116625,0 7.20378954,0.537523878 6.14346185,1.59788516 C5.08313416,2.65824643 4.54545455,3.95583702 4.54545455,5.45437268 C4.54545455,6.95325394 5.08313416,8.25084448 6.14363461,9.31120575 C7.20413511,10.3713943 8.50168455,10.9090909 9.99999998,10.9090909 Z" id="Path"></path>
                <path d="M19.9515336,17.9479715 C19.9191616,17.4682569 19.8536862,16.9449662 19.757302,16.3923741 C19.6600033,15.8356499 19.5347221,15.3093539 19.3847505,14.8283246 C19.2298407,14.331142 19.0191489,13.8401578 18.7587103,13.3696469 C18.4883955,12.8812923 18.1708945,12.4560481 17.8146204,12.1061233 C17.4420689,11.7400451 16.9859356,11.4457175 16.4584744,11.2310293 C15.932842,11.0174681 15.3503302,10.9092787 14.7272162,10.9092787 C14.4825063,10.9092787 14.2458438,11.0123967 13.788796,11.317994 C13.5075078,11.5063862 13.1784846,11.7242675 12.8112369,11.9652517 C12.4972109,12.1707363 12.0718035,12.3632607 11.5463541,12.5375658 C11.033707,12.7079264 10.5131957,12.7943276 9.99945131,12.7943276 C9.48570697,12.7943276 8.96537851,12.7079264 8.45218285,12.5375658 C7.92728205,12.3634485 7.50187463,12.1709241 7.18821444,11.9654395 C6.82444171,11.7267092 6.49523564,11.5088279 6.20974084,11.3178062 C5.75324176,11.0122089 5.51639627,10.9090909 5.27168646,10.9090909 C4.64838964,10.9090909 4.06606069,11.0174681 3.54061124,11.2312171 C3.01351573,11.4455297 2.55719958,11.7398573 2.18428225,12.1063111 C1.82819101,12.4564238 1.51050717,12.8814801 1.2405582,13.3696469 C0.980302505,13.8401578 0.769610623,14.3309542 0.614517988,14.8285124 C0.464729217,15.3095417 0.339448032,15.8356499 0.24214935,16.3923741 C0.145765118,16.9442149 0.0802897131,17.4676935 0.0479177951,17.948535 C0.0160945187,18.4196093 0,18.9085275 0,19.4023291 C0,20.687453 0.397790674,21.7278362 1.18221556,22.4951165 C1.95694716,23.252254 2.98205826,23.6363636 4.22865189,23.6363636 L15.7713481,23.6363636 C17.0179417,23.6363636 18.0426871,23.2524418 18.8176016,22.4951165 C19.6022094,21.7283997 20,20.6878287 20,19.4021412 C20,18.9060856 19.9835397,18.4167919 19.9515336,17.9479715 L19.9515336,17.9479715 Z" id="Path"></path>
            </g>
        </g>
    </g>
</svg>