<?xml version="1.0" encoding="UTF-8"?>
<svg width="24px" height="26px" viewBox="0 0 24 26" version="1.1" xmlns="http://www.w3.org/2000/svg" xmlns:xlink="http://www.w3.org/1999/xlink">
    <g id="Wallet" stroke="none" stroke-width="1" fill="none" fill-rule="evenodd">
        <g id="5-Gamer-Arena--Withdraw---360px" transform="translate(-269.000000, -536.000000)">
            <g id="Amount" transform="translate(13.913043, 425.000000)">
                <g id="Default-Method" transform="translate(0.086957, 85.000000)">
                    <g id="Icons/Close/Secondary" transform="translate(253.780105, 24.000000)">
                        <rect id="Rectangle" x="1.00281917" y="1.15384615" width="24.0676601" height="27.6923077"></rect>
                        <path d="M21.0013765,20.4474928 L15.315718,14.8251844 L15.315718,14.8251844 L22.1322769,7.95522584 C22.7148799,7.36805885 22.71118,6.41977291 22.124013,5.83716992 C22.123588,5.83674816 22.1231626,5.83632665 22.1227371,5.8359054 C21.5340167,5.25316082 20.5844817,5.25759282 20.0012269,5.84580763 L13.1856485,12.7193457 L13.1856485,12.7193457 L7.50185025,7.09822031 C6.82554039,6.42936784 5.73598918,6.43238798 5.06339768,7.10497947 C4.3953066,7.77307056 4.3953066,8.85626024 5.06339768,9.52435132 C5.06545225,9.52640589 5.06751205,9.52845522 5.06957706,9.5304993 L10.7610424,15.1642588 L10.7610424,15.1642588 L3.9375684,22.0457277 C3.35571364,22.6325278 3.35771685,23.5792986 3.94204952,24.1636313 C4.52344758,24.7450294 5.46608008,24.7450294 6.04747814,24.1636313 C6.04881106,24.1622984 6.05014146,24.1609629 6.05146931,24.1596249 L12.8886856,17.2702674 L12.8886856,17.2702674 L18.5715138,22.896151 C19.2489115,23.5667609 20.3414914,23.5619051 21.0129017,22.8853008 C21.6829067,22.2101125 21.6787049,21.1196179 21.0035167,20.4496128 C21.0028039,20.4489055 21.0020905,20.4481989 21.0013765,20.4474928 Z" id="Path" fill="#959AA2" fill-rule="nonzero" transform="translate(13.036884, 15.000686) rotate(-45.000000) translate(-13.036884, -15.000686) "></path>
                    </g>
                </g>
            </g>s
        </g>
    </g>
</svg>
