<?xml version="1.0" encoding="UTF-8"?>
<svg width="56px" height="60px" viewBox="0 0 56 60" version="1.1" xmlns="http://www.w3.org/2000/svg" xmlns:xlink="http://www.w3.org/1999/xlink">
    <title>coins</title>
    <defs>
        <linearGradient x1="11.9970497%" y1="11.8797528%" x2="84.2260542%" y2="84.333274%" id="linearGradient-1">
            <stop stop-color="#5A3D1B" offset="0%"></stop>
            <stop stop-color="#5A3D1B" offset="2%"></stop>
            <stop stop-color="#EBEBA7" offset="51%"></stop>
            <stop stop-color="#5A3D1B" offset="100%"></stop>
        </linearGradient>
        <linearGradient x1="85.010255%" y1="13.0245402%" x2="0.566979027%" y2="102.631919%" id="linearGradient-2">
            <stop stop-color="#5A3D1B" offset="0%"></stop>
            <stop stop-color="#FEDE58" offset="54%"></stop>
            <stop stop-color="#5A3D1B" offset="100%"></stop>
        </linearGradient>
        <linearGradient x1="86.3255488%" y1="25.0774755%" x2="23.3752321%" y2="68.4852304%" id="linearGradient-3">
            <stop stop-color="#5A3D1B" offset="0%"></stop>
            <stop stop-color="#FEDE58" offset="54%"></stop>
            <stop stop-color="#5A3D1B" offset="100%"></stop>
        </linearGradient>
        <radialGradient cx="50.0007296%" cy="49.985439%" fx="50.0007296%" fy="49.985439%" r="49.9992727%" id="radialGradient-4">
            <stop stop-color="#FFFFFF" offset="0%"></stop>
            <stop stop-color="#FFFFFF" stop-opacity="0.77" offset="19%"></stop>
            <stop stop-color="#FFFFFF" stop-opacity="0.45" offset="49%"></stop>
            <stop stop-color="#FFFFFF" stop-opacity="0.21" offset="73%"></stop>
            <stop stop-color="#FFFFFF" stop-opacity="0.06" offset="91%"></stop>
            <stop stop-color="#FFFFFF" stop-opacity="0" offset="100%"></stop>
        </radialGradient>
    </defs>
    <g id="Page-1" stroke="none" stroke-width="1" fill="none" fill-rule="evenodd">
        <g id="coins" transform="translate(0.000000, -0.000000)">
            <g id="coins-2" opacity="0.998581659" fill="#F3C900" fill-rule="nonzero">
                <g id="coins">
                    <path d="M23.7575758,16.9172835 C23.7575758,21.4075296 31.8677661,23.7575758 39.8787879,23.7575758 C47.8898097,23.7575758 56,21.4075296 56,16.9172835 C56,7.93666309 23.7575758,7.93666309 23.7575758,16.9172835 Z" id="Path"></path>
                    <path d="M55.401734,22.2542756 C55.0323808,22.0123114 54.5685096,21.9951723 54.1846241,22.2135702 C50.8446348,24.1124847 45.7643725,25.1592317 39.8787879,25.1592317 C33.9932033,25.1592317 28.912941,24.1124847 25.5729516,22.2135702 C25.1890662,21.9952983 24.7251949,22.0123114 24.3558418,22.2542756 C23.9840472,22.4975 23.7575758,22.9354299 23.7575758,23.4062518 L23.7575758,23.8125499 C23.7575758,28.2323024 31.8677661,30.5454545 39.8787879,30.5454545 C47.8898097,30.5454545 56,28.2323024 56,23.8125499 L56,23.4062518 C56,22.9354299 55.7734123,22.4975 55.401734,22.2542756 Z" id="Path"></path>
                    <path d="M16.1212121,13.5757576 C17.7960315,13.5757576 19.4709672,13.4715396 21.0997482,13.2645119 C21.3649338,13.2310955 21.6132619,13.1042158 21.8082273,12.9024375 C23.686499,10.9518704 26.8956976,9.5130472 31.0883265,8.74216673 C31.53162,8.66061037 31.9009731,8.32132566 32.0523417,7.85375291 C32.180691,7.45967052 32.2424242,7.09362713 32.2424242,6.73552172 C32.2424242,-2.24515257 0,-2.24515257 0,6.73539368 C0,11.2257308 8.11019029,13.5757576 16.1212121,13.5757576 Z" id="Path"></path>
                    <path d="M16.1899584,20.3636364 C17.2212485,20.3636364 18.2270861,20.3254521 19.2012834,20.2557627 C19.5941614,20.2267779 19.9504953,20.0006969 20.1645058,19.6429243 C20.3773487,19.2865379 20.4222991,18.8408028 20.2861637,18.4423255 C20.0441322,17.7387522 19.9262104,17.0457647 19.9322816,16.2515825 C19.9322816,15.8833502 19.79241,15.5309964 19.5454749,15.2771908 C19.299824,15.0233852 18.9531807,14.869514 18.6272029,14.9063121 C17.8135427,14.948403 16.9998824,14.9772617 16.1899584,14.9772617 C10.2792756,14.9772617 5.17734944,13.9305342 1.82311725,12.031655 C1.4375948,11.8133872 0.97174543,11.830526 0.600817251,12.0723597 C0.227437234,12.3158316 0,12.7537533 0,13.2245665 L0,13.6308571 C0,18.0506533 8.14477487,20.3636364 16.1899584,20.3636364 Z" id="Path"></path>
                    <path d="M16.1899584,28.8484848 C17.2212485,28.8484848 18.2270861,28.8103006 19.2012834,28.7406112 C19.5941614,28.7116264 19.9504953,28.4855454 20.1645058,28.1277727 C20.3773487,27.7713863 20.4222991,27.3256513 20.2861637,26.927174 C20.0441322,26.2236007 19.9262104,25.5306131 19.9262104,24.736431 C19.9262104,24.3681987 19.7863388,24.0158449 19.5394036,23.7620393 C19.2937527,23.5082337 18.9531807,23.363562 18.6211316,23.3911605 C17.8099233,23.4332514 16.9987149,23.4621102 16.1899584,23.4621102 C10.2792756,23.4621102 5.17734944,22.4153826 1.82311725,20.5165035 C1.4375948,20.2982357 0.97174543,20.3153745 0.600817251,20.5572081 C0.227437234,20.80068 0,21.2386018 0,21.7092889 L0,22.1155795 C0,26.5353758 8.14477487,28.8484848 16.1899584,28.8484848 Z" id="Path"></path>
                    <path d="M55.3644141,37.5345738 C54.969427,37.2808878 54.4792132,37.2672348 54.0713809,37.4925745 C51.5921513,38.8616466 48.1042101,39.8181377 43.9859939,40.2564645 C43.2912464,40.3311009 42.7959686,41.1859096 42.8254877,41.9213519 C42.8254877,42.6255873 42.7174158,43.2984858 42.4960847,43.9755452 C42.349354,44.4246643 42.4305005,44.9226742 42.7109933,45.2944262 C42.9632021,45.6269096 43.3427503,45.8181818 43.7415663,45.8181818 C43.7878828,45.8181818 43.8354344,45.8154512 43.8831095,45.80999 C51.4699993,44.9469896 56,42.4545995 56,39.1425086 L56,38.7231661 C56,38.2375089 55.7592777,37.7856592 55.3644141,37.5345738 Z" id="Path"></path>
                    <path d="M23.3264755,33.922234 L24.165918,33.9393939 C24.173395,33.9393939 24.1807534,33.9393939 24.1882304,33.9393939 C24.7791514,33.9393939 25.2922166,33.4652293 25.4232423,32.7962645 C25.5555735,32.1172783 25.2588668,31.4253878 24.7123331,31.1373746 L24.4416179,30.9969373 C24.2611015,30.9052344 24.0793984,30.8135314 23.911225,30.7118071 C23.5168425,30.4725283 23.0495888,30.4940812 22.6700416,30.7590313 C22.2916812,31.0239815 22.0606061,31.4996562 22.0606061,32.0123965 L22.0606061,32.4549868 C22.0604874,33.2661735 22.6267224,33.922234 23.3264755,33.922234 Z" id="Path"></path>
                    <path d="M55.3862472,30.7413705 C55.0073329,30.4965997 54.5314538,30.4792618 54.1376311,30.7001929 C50.7111823,32.6211335 45.4994118,33.680022 39.4614721,33.680022 L38.6215873,33.6626841 C38.1084966,33.6161522 37.4947438,34.0990645 37.3642646,34.7282018 C37.2325928,35.3574667 37.5307627,35.9985876 38.0786796,36.2646483 C39.4564629,36.9350908 40.5821137,37.7319981 41.4231913,38.6325505 C41.6629198,38.88803 41.9860167,39.030303 42.3227101,39.030303 C42.3488298,39.030303 42.3761421,39.0290282 42.4034545,39.0276259 C48.6749207,38.6019542 56,36.5892246 56,32.3177197 L56,31.9067088 C56,31.4304257 55.7675468,30.9874161 55.3862472,30.7413705 Z" id="Path"></path>
                    <path d="M10.6435419,35.6363636 C10.8025842,35.6363636 10.9617457,35.6032249 11.1120782,35.5368148 C13.3541803,34.5506058 16.088323,33.8713941 19.2401754,33.5187978 C19.9113027,33.4441694 20.3910543,32.5007756 20.3624196,31.7510446 C20.3624196,31.363719 20.2194844,30.9930953 19.9671405,30.7261295 C19.7161091,30.4591638 19.3680774,30.3166672 19.0287554,30.3360202 C18.199779,30.3802936 17.3708025,30.4106487 16.5443317,30.4106487 C10.5041861,30.4106487 5.29051134,29.309647 1.86281073,27.3123086 C1.4688441,27.0827234 0.992791142,27.1007509 0.613738449,27.3551239 C0.232418837,27.6110875 0,28.0715835 0,28.5668089 L0,28.9941662 C0,32.1243195 3.9124633,34.602965 10.4670802,35.6224454 C10.5255428,35.6321219 10.5851986,35.6363636 10.6435419,35.6363636 Z" id="Path"></path>
                </g>
            </g>
            <circle id="Oval" fill="#F3C803" fill-rule="nonzero" cx="26" cy="41" r="18"></circle>
            <g id="10-01" transform="translate(8.075584, 23.075584)">
                <circle id="Oval" fill="#F3C803" fill-rule="nonzero" cx="17.9244156" cy="17.9244156" r="17.9244156"></circle>
                <circle id="Oval" stroke="#604C3F" stroke-width="0.5" cx="17.9244156" cy="17.9244156" r="17.9244156"></circle>
                <g id="Group" opacity="0.49" style="mix-blend-mode: darken;">
                    <circle id="Oval" fill="#BA895D" fill-rule="nonzero" cx="17.9244156" cy="17.9244156" r="17.9244156"></circle>
                    <circle id="Oval" stroke="#BA895D" stroke-width="0.5" cx="17.9244156" cy="17.9244156" r="17.9244156"></circle>
                </g>
                <path d="M32.001039,11.9781818 C28.9460438,4.72246105 20.8899518,0.96228234 13.366349,3.2804454 C5.84274619,5.59860847 1.29992261,13.2407492 2.85826279,20.9576175 C4.41660298,28.6744857 11.5690003,33.9548999 19.4026006,33.1718377 C27.2362008,32.3887755 33.2018463,25.7970568 33.2018463,17.9244156 C33.2046013,15.8818451 32.7962321,13.8596094 32.001039,11.9781818 Z" id="Path" fill="#AE9835" fill-rule="nonzero"></path>
                <path d="M29.8901299,12.8696104 C27.2930271,6.69648207 20.4404982,3.49597906 14.0398007,5.46664618 C7.63910331,7.4373133 3.77334504,13.9377967 5.09805937,20.5026721 C6.4227737,27.0675474 12.5068322,31.5602753 19.1708683,30.8946334 C25.8349044,30.2289916 30.9101556,24.6216133 30.9101556,17.9244156 C30.9125828,16.1881244 30.5657008,14.4690844 29.8901299,12.8696104 Z" id="Path" fill="#F3C803" fill-rule="nonzero"></path>
                <path d="M17.9244156,2.6057143 C9.4644156,2.6057143 2.6057143,9.46285716 2.6057143,17.9244156 C2.6057143,26.385974 9.46285716,33.2423377 17.9244156,33.2423377 C26.385974,33.2423377 33.2431169,26.3851948 33.2431169,17.9244156 C33.2431169,9.46363638 26.3844156,2.6057143 17.9244156,2.6057143 Z M28.6581818,28.6581818 C23.141873,34.1598063 14.3497704,34.5736937 8.34102465,29.6146101 C2.33227894,24.6555265 1.07105335,15.9445173 5.42653199,9.48484694 C9.78201063,3.02517659 18.3304569,0.92840838 25.180638,4.63954756 C32.0308191,8.35068674 34.94352,16.656621 31.9114286,23.8332468 C31.1495534,25.6369784 30.0446914,27.2756144 28.6581818,28.6581818 Z" id="Shape" fill="url(#linearGradient-1)" fill-rule="nonzero"></path>
                <path d="M32.1662338,11.908052 C29.0750888,4.56537023 20.9227826,0.759829218 13.309092,3.10543534 C5.69540145,5.45104147 1.09799459,13.1844811 2.6748064,20.9936947 C4.25161821,28.8029083 11.4895183,34.1466001 19.4168305,33.3542159 C27.3441428,32.5618317 33.3810716,25.8912313 33.3810716,17.9244156 C33.3840548,15.8577488 32.9709094,13.8116323 32.1662338,11.908052 Z M23.8332468,31.9114286 C16.6079633,34.9754321 8.23723782,32.0494028 4.49423138,25.1513784 C0.751224946,18.2533539 2.86074035,9.64053572 9.36787716,5.25305249 C15.875014,0.865569261 24.6504786,2.13911227 29.6419677,8.19533842 C34.6334568,14.2515646 34.2076336,23.1087293 28.6581818,28.6581818 C27.276274,30.0454903 25.6374717,31.1504644 23.8332468,31.9114286 L23.8332468,31.9114286 Z" id="Shape" fill="url(#linearGradient-2)" fill-rule="nonzero"></path>
                <path d="M29.9976624,12.8244156 C27.3773883,6.59774221 20.4649406,3.36990047 14.0086161,5.35815862 C7.55229151,7.34641677 3.65322872,13.9037184 4.98977094,20.5257236 C6.32631316,27.1477287 12.4634977,31.6793799 19.1855712,31.0077963 C25.9076448,30.3362127 31.0270394,24.6799539 31.0270394,17.9244156 C31.029511,16.1725749 30.6794451,14.4381455 29.9976624,12.8244156 Z M22.9332468,29.7818182 C16.8047104,32.3823084 9.70341123,29.9015351 6.52731689,24.050558 C3.35122254,18.199581 5.13971809,10.8931476 10.6592274,7.17071226 C16.1787367,3.44827694 23.6229861,4.52801632 27.8574655,9.66520352 C32.0919448,14.8023907 31.7309099,22.3158679 27.0233766,27.0233766 C25.8519798,28.1996365 24.4627526,29.136551 22.9332468,29.7818182 Z" id="Shape" fill="url(#linearGradient-3)" fill-rule="nonzero"></path>
                <path d="M10.6558444,3.47142859 C10.6561594,4.61082231 9.9700477,5.63819924 8.91747559,6.07444475 C7.8649035,6.51069027 6.65318407,6.26988208 5.84739956,5.46432048 C5.04161506,4.65875887 4.80047164,3.44710611 5.23642593,2.39441336 C5.67238022,1.34172061 6.69956728,0.655324691 7.83896105,0.655324691 C9.39437839,0.655324691 10.6554139,1.91601131 10.6558444,3.47142859 L10.6558444,3.47142859 Z" id="Path" fill="url(#radialGradient-4)" fill-rule="nonzero" style="mix-blend-mode: hard-light;"></path>
            </g>
            <g id="Group" transform="translate(16.662338, 32.428571)" fill="#000000" fill-rule="nonzero" stroke="#000000">
                <path d="M6.07565295,12.0676192 C9.40638281,12.0676192 11.3646511,9.59049351 11.3646511,6.5610357 L11.3646511,5.57353288 C11.3646511,5.42289685 11.2642271,5.32247284 11.1135911,5.32247284 L6.15933963,5.32247284 C6.00870361,5.32247284 5.90827959,5.42289685 5.90827959,5.57353288 L5.90827959,6.99620643 C5.90827959,7.14684246 6.00870361,7.24726647 6.15933963,7.24726647 L9.1218481,7.24726647 C9.05489876,8.66994003 7.96697192,9.82481621 6.05891562,9.82481621 C3.89979928,9.82481621 2.35996437,8.16781995 2.35996437,5.99196627 C2.35996437,3.86632461 3.96674862,2.24280302 6.00870361,2.24280302 C7.07989311,2.24280302 7.95023458,2.62776175 8.65320269,3.24704318 C8.77036404,3.34746719 8.90426273,3.34746719 9.00468675,3.23030584 L10.1093509,2.04195499 C10.2265123,1.92479364 10.2265123,1.80763228 10.1093509,1.69047093 C9.07163609,0.652756103 7.64896253,0 6.02544095,0 C2.67797375,0 0,2.66123642 0,5.99196627 C0,9.37290814 2.71144843,12.0676192 6.07565295,12.0676192 Z" id="G"></path>
                <path d="M9.32146948,17.0726049 C9.45576121,17.0726049 9.55648002,17.0222455 9.60683942,16.8711673 L10.2950846,14.8400048 L14.659566,14.8400048 L15.3478112,16.8711673 C15.3981706,17.0222455 15.4988894,17.0726049 15.6331811,17.0726049 L17.4964789,17.0726049 C17.6811301,17.0726049 17.7650624,16.9550996 17.6979166,16.7872349 L13.6188051,5.52351553 C13.5684456,5.38922379 13.4341539,5.32207792 13.2998622,5.32207792 L11.6212155,5.32207792 C11.4869237,5.32207792 11.3862049,5.38922379 11.3358455,5.52351553 L7.25673402,16.7872349 C7.18958816,16.9550996 7.27352049,17.0726049 7.45817163,17.0726049 L9.32146948,17.0726049 Z M14.0216803,12.8927746 L10.9329703,12.8927746 L12.4773253,8.31006906 L14.0216803,12.8927746 Z" id="A"></path>
            </g>
        </g>
    </g>
</svg>