<?xml version="1.0" encoding="UTF-8"?>
<svg width="56px" height="56px" viewBox="0 0 56 56" version="1.1" xmlns="http://www.w3.org/2000/svg" xmlns:xlink="http://www.w3.org/1999/xlink">
    <g id="Wallet" stroke="none" stroke-width="1" fill="none" fill-rule="evenodd">
        <g id="2-Gamer-Arena--MY-Wallet---360px" transform="translate(-238.000000, -196.000000)">
            <g id="Current-Status" transform="translate(14.000000, 180.000000)">
                <g id="TL" transform="translate(170.000000, 0.000000)">
                    <g id="Group-6" transform="translate(47.000000, 16.000000)">
                        <g id="Group-10" transform="translate(7.000000, 0.000000)">
                            <g id="coins-2" opacity="0.998581659">
                                <g id="coins" fill="#48B474" fill-rule="nonzero">
                                    <path d="M23.7575758,16.9172835 C23.7575758,21.4075296 31.8677661,23.7575758 39.8787879,23.7575758 C47.8898097,23.7575758 56,21.4075296 56,16.9172835 C56,7.93666309 23.7575758,7.93666309 23.7575758,16.9172835 Z" id="Path"></path>
                                    <path d="M55.401734,22.2542756 C55.0323808,22.0123114 54.5685096,21.9951723 54.1846241,22.2135702 C50.8446348,24.1124847 45.7643725,25.1592317 39.8787879,25.1592317 C33.9932033,25.1592317 28.912941,24.1124847 25.5729516,22.2135702 C25.1890662,21.9952983 24.7251949,22.0123114 24.3558418,22.2542756 C23.9840472,22.4975 23.7575758,22.9354299 23.7575758,23.4062518 L23.7575758,23.8125499 C23.7575758,28.2323024 31.8677661,30.5454545 39.8787879,30.5454545 C47.8898097,30.5454545 56,28.2323024 56,23.8125499 L56,23.4062518 C56,22.9354299 55.7734123,22.4975 55.401734,22.2542756 Z" id="Path"></path>
                                    <path d="M16.1212121,13.5757576 C17.7960315,13.5757576 19.4709672,13.4715396 21.0997482,13.2645119 C21.3649338,13.2310955 21.6132619,13.1042158 21.8082273,12.9024375 C23.686499,10.9518704 26.8956976,9.5130472 31.0883265,8.74216673 C31.53162,8.66061037 31.9009731,8.32132566 32.0523417,7.85375291 C32.180691,7.45967052 32.2424242,7.09362713 32.2424242,6.73552172 C32.2424242,-2.24515257 0,-2.24515257 0,6.73539368 C0,11.2257308 8.11019029,13.5757576 16.1212121,13.5757576 Z" id="Path"></path>
                                    <path d="M16.1899584,20.3636364 C17.2212485,20.3636364 18.2270861,20.3254521 19.2012834,20.2557627 C19.5941614,20.2267779 19.9504953,20.0006969 20.1645058,19.6429243 C20.3773487,19.2865379 20.4222991,18.8408028 20.2861637,18.4423255 C20.0441322,17.7387522 19.9262104,17.0457647 19.9322816,16.2515825 C19.9322816,15.8833502 19.79241,15.5309964 19.5454749,15.2771908 C19.299824,15.0233852 18.9531807,14.869514 18.6272029,14.9063121 C17.8135427,14.948403 16.9998824,14.9772617 16.1899584,14.9772617 C10.2792756,14.9772617 5.17734944,13.9305342 1.82311725,12.031655 C1.4375948,11.8133872 0.97174543,11.830526 0.600817251,12.0723597 C0.227437234,12.3158316 0,12.7537533 0,13.2245665 L0,13.6308571 C0,18.0506533 8.14477487,20.3636364 16.1899584,20.3636364 Z" id="Path"></path>
                                    <path d="M16.1899584,28.8484848 C17.2212485,28.8484848 18.2270861,28.8103006 19.2012834,28.7406112 C19.5941614,28.7116264 19.9504953,28.4855454 20.1645058,28.1277727 C20.3773487,27.7713863 20.4222991,27.3256513 20.2861637,26.927174 C20.0441322,26.2236007 19.9262104,25.5306131 19.9262104,24.736431 C19.9262104,24.3681987 19.7863388,24.0158449 19.5394036,23.7620393 C19.2937527,23.5082337 18.9531807,23.363562 18.6211316,23.3911605 C17.8099233,23.4332514 16.9987149,23.4621102 16.1899584,23.4621102 C10.2792756,23.4621102 5.17734944,22.4153826 1.82311725,20.5165035 C1.4375948,20.2982357 0.97174543,20.3153745 0.600817251,20.5572081 C0.227437234,20.80068 0,21.2386018 0,21.7092889 L0,22.1155795 C0,26.5353758 8.14477487,28.8484848 16.1899584,28.8484848 Z" id="Path"></path>
                                    <path d="M55.3644141,37.5345738 C54.969427,37.2808878 54.4792132,37.2672348 54.0713809,37.4925745 C51.5921513,38.8616466 48.1042101,39.8181377 43.9859939,40.2564645 C43.2912464,40.3311009 42.7959686,41.1859096 42.8254877,41.9213519 C42.8254877,42.6255873 42.7174158,43.2984858 42.4960847,43.9755452 C42.349354,44.4246643 42.4305005,44.9226742 42.7109933,45.2944262 C42.9632021,45.6269096 43.3427503,45.8181818 43.7415663,45.8181818 C43.7878828,45.8181818 43.8354344,45.8154512 43.8831095,45.80999 C51.4699993,44.9469896 56,42.4545995 56,39.1425086 L56,38.7231661 C56,38.2375089 55.7592777,37.7856592 55.3644141,37.5345738 Z" id="Path"></path>
                                    <path d="M23.3264755,33.922234 L24.165918,33.9393939 C24.173395,33.9393939 24.1807534,33.9393939 24.1882304,33.9393939 C24.7791514,33.9393939 25.2922166,33.4652293 25.4232423,32.7962645 C25.5555735,32.1172783 25.2588668,31.4253878 24.7123331,31.1373746 L24.4416179,30.9969373 C24.2611015,30.9052344 24.0793984,30.8135314 23.911225,30.7118071 C23.5168425,30.4725283 23.0495888,30.4940812 22.6700416,30.7590313 C22.2916812,31.0239815 22.0606061,31.4996562 22.0606061,32.0123965 L22.0606061,32.4549868 C22.0604874,33.2661735 22.6267224,33.922234 23.3264755,33.922234 Z" id="Path"></path>
                                    <path d="M55.3862472,30.7413705 C55.0073329,30.4965997 54.5314538,30.4792618 54.1376311,30.7001929 C50.7111823,32.6211335 45.4994118,33.680022 39.4614721,33.680022 L38.6215873,33.6626841 C38.1084966,33.6161522 37.4947438,34.0990645 37.3642646,34.7282018 C37.2325928,35.3574667 37.5307627,35.9985876 38.0786796,36.2646483 C39.4564629,36.9350908 40.5821137,37.7319981 41.4231913,38.6325505 C41.6629198,38.88803 41.9860167,39.030303 42.3227101,39.030303 C42.3488298,39.030303 42.3761421,39.0290282 42.4034545,39.0276259 C48.6749207,38.6019542 56,36.5892246 56,32.3177197 L56,31.9067088 C56,31.4304257 55.7675468,30.9874161 55.3862472,30.7413705 Z" id="Path"></path>
                                    <path d="M10.6435419,35.6363636 C10.8025842,35.6363636 10.9617457,35.6032249 11.1120782,35.5368148 C13.3541803,34.5506058 16.088323,33.8713941 19.2401754,33.5187978 C19.9113027,33.4441694 20.3910543,32.5007756 20.3624196,31.7510446 C20.3624196,31.363719 20.2194844,30.9930953 19.9671405,30.7261295 C19.7161091,30.4591638 19.3680774,30.3166672 19.0287554,30.3360202 C18.199779,30.3802936 17.3708025,30.4106487 16.5443317,30.4106487 C10.5041861,30.4106487 5.29051134,29.309647 1.86281073,27.3123086 C1.4688441,27.0827234 0.992791142,27.1007509 0.613738449,27.3551239 C0.232418837,27.6110875 0,28.0715835 0,28.5668089 L0,28.9941662 C0,32.1243195 3.9124633,34.602965 10.4670802,35.6224454 C10.5255428,35.6321219 10.5851986,35.6363636 10.6435419,35.6363636 Z" id="Path"></path>
                                </g>
                            </g>
                            <g id="turkish-lira" transform="translate(10.000000, 21.000000)">
                                <ellipse id="Oval" fill="#FFFFFF" cx="17.5" cy="16.7708333" rx="11.6666667" ry="10.9375"></ellipse>
                                <path d="M17.5,0 C7.85113636,0 0,7.85113636 0,17.5 C0,27.1488636 7.85113636,35 17.5,35 C27.1488636,35 35,27.1488636 35,17.5 C35,7.85113636 27.1488636,0 17.5,0 Z M15.6975,25.4402273 C15.6354545,25.4497727 15.5734091,25.4545455 15.5113636,25.4545455 C15.2281818,25.4545455 14.9529545,25.3543182 14.7365909,25.1681818 C14.4709091,24.9422727 14.3181818,24.6097727 14.3181818,24.2613636 L14.3181818,19.8990909 L11.5786364,20.9952273 C11.4338636,21.0525 11.2843182,21.0795455 11.1363636,21.0795455 C10.6622727,21.0795455 10.2152273,20.7963636 10.0290909,20.3286364 C9.78409091,19.7177273 10.0815909,19.0225 10.6940909,18.7775 L14.3181818,17.3281818 L14.3181818,15.9202273 L11.5786364,17.0163636 C11.4338636,17.0752273 11.2843182,17.1022727 11.1363636,17.1022727 C10.6622727,17.1022727 10.2152273,16.8190909 10.0290909,16.3513636 C9.78409091,15.7404545 10.0815909,15.0452273 10.6940909,14.8002273 L14.3181818,13.3509091 L14.3181818,10.7386364 C14.3181818,10.08 14.8527273,9.54545455 15.5113636,9.54545455 C16.17,9.54545455 16.7045455,10.08 16.7045455,10.7386364 L16.7045455,12.3963636 L18.6486364,11.6184091 C19.2579545,11.375 19.9547727,11.6709091 20.1997727,12.2834091 C20.4447727,12.8943182 20.1472727,13.5895455 19.5347727,13.8345455 L16.7045455,14.9672727 L16.7045455,16.3752273 L18.6486364,15.5972727 C19.2579545,15.3538636 19.9547727,15.6497727 20.1997727,16.2622727 C20.4447727,16.8731818 20.1472727,17.5684091 19.5347727,17.8134091 L16.7045455,18.9445455 L16.7045455,22.7611364 C18.6263636,22.2170455 21.875,20.9093182 21.875,18.2954545 C21.875,17.6368182 22.4095455,17.1022727 23.0681818,17.1022727 C23.7268182,17.1022727 24.2613636,17.6368182 24.2613636,18.2954545 C24.2613636,24.0227273 16.0475,25.3845455 15.6975,25.4402273 Z" id="Shape" fill="#48B474"></path>
                            </g>
                        </g>
                    </g>
                </g>
            </g>
        </g>
    </g>
</svg>
