<?xml version="1.0" encoding="UTF-8"?>
<svg width="18px" height="18px" viewBox="0 0 18 18" version="1.1" xmlns="http://www.w3.org/2000/svg" xmlns:xlink="http://www.w3.org/1999/xlink">
    <title>Shape</title>
    <g id="Symbols" stroke="none" stroke-width="1" fill-rule="evenodd">
        <g id="Icons/Knives/Secondary" transform="translate(-3.000000, -3.000000)" fill-rule="nonzero">
            <g id="Shape" transform="translate(3.000000, 3.000000)">
                <path d="M17.5263158,15.0856018 L13.6364699,11.130249 L14.2324457,10.5242157 L13.498854,9.77824403 L12.7675581,10.5218811 L11.5953239,9.32986448 L15.9656777,4.88575744 C17.1838289,3.64704894 17.1838289,1.63146973 15.9656777,0.39276123 L15.5795697,0 L8.9999325,6.69053651 L2.42043033,0 L2.0343223,0.39262391 C0.816171074,1.63146973 0.816171074,3.64704894 2.0343223,4.88575744 L6.4045411,9.32972716 L5.23244193,10.5217438 L4.50114607,9.77824403 L3.76755433,10.5242157 L4.36339501,11.1301117 L0.473684211,15.0856018 L3.33971586,18 L7.22956169,14.0445099 L7.8254024,14.6505432 L8.55899414,13.9045715 L7.82783332,13.1609345 L9.00006754,11.9689179 L10.1723018,13.1609345 L9.44100586,13.9045715 L10.1745976,14.6505432 L10.7705733,14.0445099 L14.6602842,18 L17.5263158,15.0856018 Z M14.6602842,16.5079193 L12.8318419,14.6487579 L14.23069,13.2263031 L16.0591323,15.0856018 L14.6602842,16.5079193 Z M15.5382444,1.5341034 C16.0282059,2.35079958 15.9261081,3.43405153 15.232086,4.13978576 L10.8617321,8.58375548 L9.73365927,7.43664551 L15.5382444,1.5341034 Z M1.94100272,15.0856018 L3.76930998,13.2263031 L5.16815812,14.6487579 L3.33971586,16.5079193 L1.94100272,15.0856018 Z M5.90174985,13.9026489 L4.50303675,12.4803314 L5.09712182,11.8762207 L6.49583492,13.2985382 L5.90174985,13.9026489 Z M7.09410655,12.4149628 L5.96603366,11.2677154 L7.13826788,10.0756988 L8.26634076,11.2229462 L7.09410655,12.4149628 Z M2.76791403,4.13978576 C2.07389195,3.43405153 1.97179413,2.35079958 2.46175562,1.5341034 L12.0339663,11.2678528 L10.9057584,12.4149628 L2.76791403,4.13978576 Z M12.9028782,11.8762207 L13.4969632,12.4803314 L12.0982501,13.9026489 L11.5041651,13.2985382 L12.9028782,11.8762207 Z"></path>
            </g>
        </g>
    </g>
</svg>
