<?xml version="1.0" encoding="UTF-8"?>
<svg width="18px" height="18px" viewBox="0 0 18 18" version="1.1" xmlns="http://www.w3.org/2000/svg" xmlns:xlink="http://www.w3.org/1999/xlink">
    <title>Shape</title>
    <g id="Symbols" stroke="none" stroke-width="1" fill-rule="evenodd">
        <g id="Icons/Question-Mark/Secondary" transform="translate(-3.000000, -3.000000)" fill-rule="nonzero">
            <g id="Question-Mark" transform="translate(3.000000, 3.000000)">
                <path d="M9,0 C4.0374,0 0,4.0374 0,9 C0,13.9626 4.0374,18 9,18 C13.9626,18 18,13.9626 18,9 C18,4.0374 13.9626,0 9,0 M9,16.2 C5.0301,16.2 1.8,12.9699 1.8,9 C1.8,5.0301 5.0301,1.8 9,1.8 C12.9699,1.8 16.2,5.0301 16.2,9 C16.2,12.9699 12.9699,16.2 9,16.2 M9,12.5099999 C8.64614629,12.5101608 8.31925775,12.699088 8.14247012,13.0056147 C7.9656825,13.3121414 7.96585403,13.6896988 8.14292012,13.9960647 C8.31998621,14.3024306 8.64704629,14.4910608 9.0009,14.4909001 C9.54791042,14.4906515 9.99114851,14.0470104 9.99090008,13.5 C9.99065145,12.9529896 9.54701042,12.5097515 9,12.5099999 M9,3.6 C7.7625,3.6 6.6825,4.6449 6.5637,4.7637 C6.23965633,5.11886751 6.25160266,5.66590132 6.59084258,6.00658378 C6.93008249,6.34726625 7.47706069,6.36153369 7.8336,6.039 C8.0955,5.7816 8.6472,5.4 9,5.4 C9.389293,5.40048307 9.73423974,5.65096147 9.85519407,6.02098759 C9.9761484,6.3910137 9.84574615,6.79687443 9.5319,7.0272 C8.622,7.6932 8.1,8.6544 8.1,9.6633 L8.1,9.9 C8.1,10.3970563 8.50294373,10.8 9,10.8 C9.49705627,10.8 9.9,10.3970563 9.9,9.9 L9.9,9.6633 C9.9,9.0756 10.3356,8.6688 10.5957,8.478 C11.2883596,7.96819871 11.6981154,7.16004133 11.7,6.3 C11.7,4.8114 10.4886,3.6 9,3.6" id="Shape"></path>
            </g>
        </g>
    </g>
</svg>
