<?xml version="1.0" encoding="UTF-8"?>
<svg width="18px" height="18px" viewBox="0 0 18 18" version="1.1" xmlns="http://www.w3.org/2000/svg" xmlns:xlink="http://www.w3.org/1999/xlink">
    <title>Shape</title>
    <g id="Symbols" stroke="none" stroke-width="1" fill-rule="evenodd">
        <g id="Icons/How-Works/Secondary" transform="translate(-3.000000, -3.000000)" fill-rule="nonzero">
            <g id="Shape">
                <path d="M12,3 C7.02975,3 3,7.02975 3,12 C3,16.97025 7.02975,21 12,21 C16.97025,21 21,16.97025 21,12 C21,7.02975 16.97025,3 12,3 Z M18.73125,15.28725 L16.77525,14.1735 C17.0775,13.5105 17.25,12.77625 17.25,12 C17.25,11.22375 17.0775,10.4895 16.77525,9.82725 L18.73125,8.7135 C19.21875,9.70725 19.5,10.82025 19.5,12 C19.5,13.17975 19.21875,14.29275 18.73125,15.28725 Z M4.5,12 C4.5,10.82025 4.78125,9.70725 5.26875,8.71275 L7.22475,9.8265 C6.9225,10.4895 6.75,11.22375 6.75,12 C6.75,12.77625 6.9225,13.5105 7.22475,14.17275 L5.26875,15.2865 C4.78125,14.29275 4.5,13.17975 4.5,12 L4.5,12 Z M8.25,12 C8.25,9.93225 9.93225,8.25 12,8.25 C14.06775,8.25 15.75,9.93225 15.75,12 C15.75,14.06775 14.06775,15.75 12,15.75 C9.93225,15.75 8.25,14.06775 8.25,12 Z M15.29775,5.274 L14.184,7.23 C13.518,6.92475 12.78,6.75 12,6.75 C11.22,6.75 10.482,6.92475 9.816,7.23 L8.70225,5.274 C9.699,4.7835 10.81575,4.5 12,4.5 C13.18425,4.5 14.301,4.7835 15.29775,5.274 Z M8.70225,18.726 L9.816,16.77 C10.482,17.07525 11.22,17.25 12,17.25 C12.78,17.25 13.518,17.07525 14.184,16.77 L15.29775,18.726 C14.301,19.2165 13.18425,19.5 12,19.5 C10.81575,19.5 9.699,19.2165 8.70225,18.726 L8.70225,18.726 Z"></path>
            </g>
        </g>
    </g>
</svg>
