<?xml version="1.0" encoding="UTF-8"?>
<svg width="16px" height="18px" viewBox="0 0 16 18" version="1.1" xmlns="http://www.w3.org/2000/svg" xmlns:xlink="http://www.w3.org/1999/xlink">
    <title>Shape</title>
    <g id="Symbols" stroke="none" stroke-width="1" fill-rule="evenodd">
        <g id="Icons/Notification/Secondary" transform="translate(-4.000000, -3.000000)" fill-rule="nonzero">
            <g id="Notification" transform="translate(3.000000, 3.000000)">
                <path d="M16.5810493,11.8861856 L14.9794191,10.2572921 L14.9794191,6.2435546 C15.0234808,3.16156671 12.8131961,0.518926351 9.80081506,0.0519595335 C8.09041879,-0.1758559 6.36586101,0.352322818 5.06775371,1.50154986 C3.76964641,2.65077691 3.02373005,4.30973302 3.02058086,6.05456696 L3.02058086,10.2572921 L1.41895073,11.8861856 C1.00765402,12.30911 0.886687209,12.9399937 1.11186275,13.4877556 C1.3370383,14.0355175 1.86458991,14.3936917 2.45111237,14.3970214 L5.44082194,14.3970214 L5.44082194,14.7030013 C5.52735579,16.6051869 7.11899052,18.0781399 9,17.9967859 C10.8810095,18.0781399 12.4726442,16.6051869 12.5591781,14.7030013 L12.5591781,14.3970214 L15.5488876,14.3970214 C16.1354101,14.3936917 16.6629617,14.0355175 16.8881372,13.4877556 C17.1133128,12.9399937 16.992346,12.30911 16.5810493,11.8861856 Z M10.779589,14.7030013 C10.677071,15.6022964 9.89282479,16.2606435 9,16.1969036 C8.10717521,16.2606435 7.32292897,15.6022964 7.22041097,14.7030013 L7.22041097,14.3970214 L10.779589,14.3970214 L10.779589,14.7030013 Z M3.2252336,12.5971391 L4.27519113,11.5352085 C4.61156851,11.1970139 4.80054572,10.7370009 4.80016989,10.2572921 L4.80016989,6.05456696 C4.80115053,4.82631573 5.32664451,3.65835803 6.241637,2.85077649 C7.14461979,2.02328641 8.36120614,1.63835657 9.56946849,1.79784535 C11.6970809,2.1472428 13.245434,4.02798954 13.1998301,6.20755695 L13.1998301,10.2572921 C13.1970953,10.7357062 13.3827959,11.1955368 13.7159109,11.5352085 L14.7747664,12.5971391 L3.2252336,12.5971391 Z" id="Shape"></path>
            </g>
        </g>
    </g>
</svg>
