<svg width="79" height="64" viewBox="0 0 79 64" fill="none" xmlns="http://www.w3.org/2000/svg">
    <path d="M58.8371 39.1515H1.33702C0.587015 39.1515 0.0869751 39.6485 0.0869751 40.394V57.7879C0.0869751 61.2667 2.83702 64 6.33695 64H53.837C57.337 64 60.087 61.2666 60.087 57.7879V40.394C60.087 39.6485 59.5871 39.1515 58.8371 39.1515ZM8.83703 49.091H18.837C19.587 49.091 20.0871 49.588 20.0871 50.3335C20.0871 51.0789 19.587 51.5759 18.837 51.5759H8.83703C8.08703 51.5758 7.58699 51.0788 7.58699 50.3334C7.58699 49.5879 8.08703 49.091 8.83703 49.091ZM26.337 56.5456H8.83703C8.08703 56.5456 7.58699 56.0486 7.58699 55.3031C7.58699 54.5576 8.08703 54.0606 8.83703 54.0606H26.337C27.087 54.0606 27.5871 54.5576 27.5871 55.3031C27.5871 56.0486 27.087 56.5456 26.337 56.5456ZM47.587 56.5456C46.5871 56.5456 45.8371 56.2971 45.0871 55.8001C44.3371 56.2971 43.5871 56.5456 42.5871 56.5456C39.8371 56.5456 37.587 54.3092 37.587 51.5758C37.587 48.8424 39.8371 46.6061 42.5871 46.6061C43.5871 46.6061 44.3371 46.8545 45.0871 47.3515C45.8371 46.8545 46.5871 46.6061 47.587 46.6061C50.3371 46.6061 52.5871 48.8424 52.5871 51.5758C52.5871 54.3092 50.3371 56.5456 47.587 56.5456Z"
          fill="white"/>
    <path d="M53.8369 24H6.33692C2.83701 24 0.0869751 26.8334 0.0869751 30.4394V33.0151C0.0869751 33.7878 0.587013 34.303 1.33701 34.303H58.8369C59.5869 34.303 60.087 33.7878 60.087 33.0151V30.4394C60.087 26.8334 57.3368 24 53.8369 24Z"
          fill="white"/>
    <path d="M54.087 48C67.3418 48 78.087 37.2548 78.087 24C78.087 10.7452 67.3418 0 54.087 0C40.8321 0 30.087 10.7452 30.087 24C30.087 37.2548 40.8321 48 54.087 48Z"
          fill="#EB2C44"/>
    <path d="M62.3183 30.1353L56.4928 24.3662L62.2592 18.5478C62.8406 17.9612 62.8363 17.0144 62.2498 16.4331C61.6635 15.852 60.7172 15.8562 60.1361 16.4425C60.1359 16.4426 60.1358 16.4428 60.1356 16.4429L54.3703 22.2647L48.5471 16.4974C47.9615 15.9174 47.0173 15.9197 46.4345 16.5025C45.8552 17.0819 45.8552 18.0213 46.4345 18.6007C46.4361 18.6022 46.4376 18.6037 46.4392 18.6053L52.2703 24.385L46.4977 30.2141C45.9177 30.7997 45.92 31.7439 46.5028 32.3267C47.0822 32.9061 48.0217 32.9061 48.6011 32.3267C48.6026 32.3252 48.6042 32.3237 48.6057 32.3221L54.3905 26.4865L60.2136 32.2588C60.8001 32.8401 61.7468 32.836 62.3281 32.2495C62.3281 32.2495 62.3282 32.2495 62.3282 32.2495C62.9093 31.6632 62.9051 30.7169 62.3188 30.1358C62.3186 30.1356 62.3185 30.1355 62.3183 30.1353Z"
          fill="white"/>
</svg>
