<?xml version="1.0" encoding="UTF-8"?>
<svg width="24px" height="24px" viewBox="0 0 24 24" version="1.1" xmlns="http://www.w3.org/2000/svg" xmlns:xlink="http://www.w3.org/1999/xlink">
    <title>Path</title>
    <g id="Symbols" stroke="none" stroke-width="1" fill="none" fill-rule="evenodd">
        <g id="Icons/Plus/Secondary" transform="translate(-1.000000, -1.000000)" fill="#959AA2" fill-rule="nonzero">
            <g id="Icons/Close/Secondary">
                <path d="M20.9375416,18.7548377 L15.112,12.98575 L15.112,12.98575 L20.8784343,7.16730874 C21.4597598,6.58074031 21.455536,5.63398324 20.869,5.052625 C20.2827306,4.47153097 19.3363955,4.47572646 18.7553015,5.06199589 C18.7551478,5.06215095 18.7549941,5.06230605 18.7548405,5.06246118 L12.9895,10.88425 L12.9895,10.88425 L7.16631491,5.11691063 C6.58072417,4.53693584 5.63653953,4.53921047 5.05375,5.122 C4.47435144,5.70139856 4.47435144,6.64078924 5.05375,7.2201878 C5.0552986,7.22173639 5.05685062,7.22328156 5.05840606,7.22482328 L10.8895,13.0045 L10.8895,13.0045 L5.11685689,18.8336319 C4.53690325,19.4192607 4.53920185,20.3634519 5.122,20.94625 C5.70143204,21.525682 6.64087699,21.525682 7.22030903,20.94625 C7.22183751,20.9447215 7.22336264,20.9431897 7.22488443,20.9416546 L13.00975,15.106 L13.00975,15.106 L18.83281,20.8783144 C19.4192698,21.4596635 20.3659659,21.4555204 20.947315,20.8690606 C20.947335,20.8690404 20.947355,20.8690202 20.947375,20.869 C21.5284706,20.282729 21.5242751,19.3363914 20.9380041,18.7552958 C20.93785,18.7551431 20.9376958,18.7549904 20.9375416,18.7548377 Z" id="Path" transform="translate(13.000000, 13.000000) rotate(-45.000000) translate(-13.000000, -13.000000) "></path>
            </g>
        </g>
    </g>
</svg>
