<?xml version="1.0" encoding="UTF-8"?>
<svg width="41px" height="40px" viewBox="0 0 41 40" version="1.1" xmlns="http://www.w3.org/2000/svg" xmlns:xlink="http://www.w3.org/1999/xlink">
    <title>question</title>
    <defs>
        <filter id="filter-1">
            <feColorMatrix in="SourceGraphic" type="matrix" values="0 0 0 0 0.584314 0 0 0 0 0.603922 0 0 0 0 0.635294 0 0 0 1.000000 0"></feColorMatrix>
        </filter>
    </defs>
    <g id="Duel-Details" stroke="none" stroke-width="1" fill="none" fill-rule="evenodd">
        <g id="Gamer-Arena--Duel-Detail---Host-1-360px" transform="translate(-253.000000, -507.000000)">
            <g id="Duel-Detail-Card-Copy" transform="translate(8.695652, 363.000000)">
                <g id="Players" transform="translate(8.695652, 72.000000)">
                    <g id="question" transform="translate(187.826087, 0.000000)" filter="url(#filter-1)">
                        <g transform="translate(47.826087, 72.000000)">
                            <path d="M21.6,30.4 C21.6,31.2836477 20.8836477,32 20,32 C19.1163523,32 18.4,31.2836477 18.4,30.4 C18.4,29.5163523 19.1163523,28.8 20,28.8 C20.8836477,28.8 21.6,29.5163523 21.6,30.4 Z" id="Path" fill="#000000" fill-rule="nonzero"></path>
                            <path d="M20,40 C8.97155766,40 0,31.0284423 0,20 C0,8.97155766 8.97155766,0 20,0 C31.0284423,0 40,8.97155766 40,20 C40,31.0284423 31.0284423,40 20,40 Z M20,2.5 C10.3500366,2.5 2.5,10.3500366 2.5,20 C2.5,29.6499634 10.3500366,37.5 20,37.5 C29.6499634,37.5 37.5,29.6499634 37.5,20 C37.5,10.3500366 29.6499634,2.5 20,2.5 Z" id="Shape" fill="#000000" fill-rule="nonzero"></path>
                            <path d="M20,24 C19.2986429,24 18.72943,23.4499063 18.72943,22.772107 L18.72943,21.1185284 C18.72943,19.5599796 19.7527724,18.1633112 21.2739822,17.6443944 C23.2983327,16.9552036 24.65886,14.8708432 24.65886,13.3581605 C24.65886,10.874495 22.5699883,8.85578606 20,8.85578606 C17.4300117,8.85578606 15.34114,10.874495 15.34114,13.3581605 C15.34114,14.0359598 14.7719271,14.5860535 14.07057,14.5860535 C13.3692129,14.5860535 12.8,14.0359598 12.8,13.3581605 C12.8,9.52219385 16.0291586,6.4 20,6.4 C23.9708414,6.4 27.2,9.52219385 27.2,13.3581605 C27.2,16.0891433 24.9687475,18.9886016 22.119271,19.9610832 C21.6111671,20.1328564 21.27057,20.5993119 21.27057,21.1200272 L21.27057,22.772107 C21.27057,23.4499063 20.7013571,24 20,24 L20,24 Z" id="Path" fill="#000000" fill-rule="nonzero"></path>
                        </g>
                    </g>
                </g>
            </g>
        </g>
    </g>
</svg>