<svg xmlns="http://www.w3.org/2000/svg" width="31" height="30" viewBox="0 0 31 30">
    <g fill="none" fill-rule="evenodd">
        <g fill="#959AA2" fill-rule="nonzero">
            <g>
                <g>
                    <g>
                        <g>
                            <path d="M28.424 24.032l-3.962-3.962-4.392 4.392 3.962 3.962c1.213 1.213 3.179 1.213 4.392 0 1.213-1.213 1.213-3.18 0-4.392zM13.773 23.158c.205 0 .41-.078.567-.235.313-.313.313-.82 0-1.133l-.941-.94 15.64-12.788c.186-.153.294-.38.294-.62V.8c0-.442-.358-.801-.8-.801h-6.641c-.24 0-.468.108-.62.294L8.484 15.934l-.941-.94c-.313-.313-.82-.313-1.133 0-.313.312-.313.82 0 1.132l6.797 6.797c.156.157.361.235.566.235zM24.346 3.854c.313-.313.82-.313 1.133 0 .313.313.313.82 0 1.133L11.508 18.958l-1.133-1.132L24.346 3.854zM5.302 28.424l3.961-3.962-4.392-4.392L.91 24.032c-1.213 1.213-1.213 3.179 0 4.392 1.212 1.213 3.179 1.213 4.392 0z" transform="translate(-165 -601) translate(8.696 444) translate(8.696 72) translate(140.609 78) translate(7.333 7.333)"/>
                            <path d="M.287 9.4l6.19 6.039 2.41-3.516-5.12-6.107c-.306-.365-.306-.957 0-1.321.306-.365.802-.365 1.107 0l5.008 5.974 2.469-3.602L7.88.343C7.73.126 7.508 0 7.274 0H.783C.35 0 0 .418 0 .934v7.744c0 .28.105.546.287.723zM23.194 15.697l-1.038 1.038-.398-.486-2.344 1.916.656.656-1.25 1.25-.78-.782-2.406 1.966 1.101.9-1.038 1.039c-.345.345-.345.904 0 1.249.345.345.905.345 1.25 0l7.496-7.496c.172-.173.259-.399.259-.625 0-.226-.087-.452-.259-.625-.345-.345-.904-.345-1.25 0z" transform="translate(-165 -601) translate(8.696 444) translate(8.696 72) translate(140.609 78) translate(7.333 7.333)"/>
                        </g>
                    </g>
                </g>
            </g>
        </g>
    </g>
</svg>
