<svg id="Capa_1" enable-background="new 0 0 511.639 511.639" height="512" viewBox="0 0 511.639 511.639" width="512" xmlns="http://www.w3.org/2000/svg"><g><path d="m255.8 303.989c-20.38 0-38.85-8.32-52.18-21.75-8.05 10.82-12.82 24.23-12.82 38.72v40.66h130v-40.66c0-14.49-4.77-27.9-12.82-38.72-13.33 13.43-31.8 21.75-52.18 21.75z"/><ellipse cx="255.798" cy="230.387" rx="43.597" ry="43.599" transform="matrix(1 -.004 .004 1 -.804 .896)"/><path d="m468.021 372.259c-13.33 13.43-31.8 21.75-52.18 21.75s-38.85-8.32-52.18-21.75c-8.05 10.82-12.82 24.23-12.82 38.72v40.66h130v-40.66c0-14.49-4.77-27.9-12.82-38.72z"/><ellipse cx="415.839" cy="320.407" rx="43.597" ry="43.599" transform="matrix(1 -.004 .004 1 -1.118 1.456)"/><path d="m95.798 394.009c-20.38 0-38.85-8.32-52.18-21.75-8.05 10.82-12.82 24.23-12.82 38.72v40.66h130v-40.66c0-14.49-4.77-27.9-12.82-38.72-13.33 13.43-31.8 21.75-52.18 21.75z"/><ellipse cx="95.796" cy="320.407" rx="43.597" ry="43.599" transform="matrix(1 -.004 .004 1 -1.12 .337)"/><path d="m190.798 391.179h130v120.459h-130z"/><path d="m30.798 481.639h130v30h-130z"/><path d="m350.841 481.639h130v30h-130z"/><path d="m311.12 79.125-55.322-79.125-55.323 79.125 55.323 79.126z"/><path d="m151.121 154.517-55.323-79.126-55.323 79.126 55.323 79.125z"/><path d="m471.164 162.11-55.323-79.126-55.322 79.126 55.322 79.125z"/></g></svg>