<?xml version="1.0" encoding="UTF-8"?>
<svg viewBox="0 0 73 73" version="1.1" xmlns="http://www.w3.org/2000/svg" xmlns:xlink="http://www.w3.org/1999/xlink">
    <g fill="#ffffff">
        <path d="M48.279 36.974c-1.006 0-1.824.796-1.824 1.775v5.931c0 .979.818 1.775 1.824 1.775H73v-9.48H48.279v-.001zm3.076 7.476c-1.553 0-2.812-1.225-2.812-2.736 0-1.51 1.259-2.736 2.812-2.736s2.812 1.225 2.812 2.736c0 1.511-1.259 2.736-2.812 2.736z"></path>
        <path d="M47.816 32.083H73V21.395c0-3.433-2.78-6.226-6.195-6.226H6.195C2.779 15.169 0 17.962 0 21.395v44.43c0 3.434 2.78 6.227 6.195 6.227h60.61c3.416 0 6.195-2.793 6.195-6.227V50.78H47.816c-3.416 0-6.195-2.793-6.195-6.227V38.31c0-3.434 2.78-6.227 6.195-6.227zM60.729 0L31.286 10.429h33.182z"></path>
    </g>
</svg>
