<?xml version="1.0" encoding="UTF-8"?>
<svg width="19px" height="18px" viewBox="0 0 19 18" version="1.1" xmlns="http://www.w3.org/2000/svg" xmlns:xlink="http://www.w3.org/1999/xlink">
    <title>Icons/Cup/Primary</title>
    <defs>
        <filter id="filter-1">
            <feColorMatrix in="SourceGraphic" type="matrix" values="0 0 0 0 0.690196 0 0 0 0 0.458824 0 0 0 0 0.305882 0 0 0 1.000000 0"></feColorMatrix>
        </filter>
    </defs>
    <g id="Tournament-Page" stroke="none" stroke-width="1" fill="none" fill-rule="evenodd">
        <g id="1-1-LB-Tournament-Detail-Future-General-992px" transform="translate(-279.000000, -1167.000000)">
            <g id="Düello-Formatı" transform="translate(232.000000, 935.000000)">
                <g id="Total-Reward-Copy-2" transform="translate(21.116279, 213.000000)">
                    <g id="Text" transform="translate(23.246761, 14.000000)">
                        <g id="Icons/Cup/Primary" transform="translate(0.000000, 2.000000)" filter="url(#filter-1)">
                            <g>
                                <rect id="Rectangle" x="0" y="0" width="24" height="24"></rect>
                                <path d="M6.75,3 C6.75,10.35225 10.57875,12.03975 10.953,15 L13.05675,15 C13.4295,12.03975 17.25,10.35225 17.25,3 L6.75,3 Z M12.0045,13.965 C11.6985,13.2165 11.27775,12.49575 10.8435,11.75025 C9.777,9.92175 8.58525,7.87875 8.30925,4.5 L15.69075,4.5 C15.41475,7.8795 14.226,9.9225 13.16175,11.75175 C12.729,12.4965 12.30975,13.21725 12.0045,13.965 Z M12,11.66025 C11.15625,9.738 10.61325,7.461 10.60725,5.25 L9.57,5.25 C9.8505,7.5885 10.96275,10.51725 12,11.66025 L12,11.66025 Z M21,4.5 C20.721,7.57875 18.894,10.56825 15.84525,11.5785 C16.068,11.1645 16.29225,10.71975 16.50675,10.24125 C18.693,9.1005 19.5345,7.05375 19.85475,5.553 L17.83875,5.553 C17.883,5.2155 17.916,4.8615 17.943,4.49925 L21,4.49925 L21,4.5 Z M3,4.5 C3.279,7.57875 5.106,10.56825 8.15475,11.5785 C7.932,11.1645 7.70775,10.71975 7.49325,10.24125 C5.307,9.1005 4.4655,7.05375 4.14525,5.553 L6.16125,5.553 C6.11775,5.21625 6.08475,4.8615 6.05775,4.5 L3,4.5 Z M13.0785,15.75 L10.929,15.75 C10.7775,16.64025 9.7065,17.71425 8.25075,17.71425 L8.25075,21 L15.75075,21 L15.75075,17.71425 C14.2515,17.71425 13.2225,16.64025 13.0785,15.75 Z M15,20.25 L9,20.25 L9,18.75 L15,18.75 L15,20.25 Z" id="Shape" fill="#FFFFFF" fill-rule="nonzero"></path>
                            </g>
                        </g>
                    </g>
                </g>
            </g>
        </g>
    </g>
</svg>