<?xml version="1.0" encoding="UTF-8"?>
<svg viewBox="0 0 40 40">
    <path fill="#EB2C44"
          d="M20 0C8.954 0 0 8.954 0 20c0 11.045 8.954 20 20 20 11.045 0 20-8.955 20-20C40 8.954 31.045 0 20 0zm0 34c-7.732 0-14-6.268-14-14S12.268 6 20 6s14 6.268 14 14-6.268 14-14 14z"></path>
    <path fill="#CB0025"
          d="M8.654 36.154a.958.958 0 01-.888-.594.958.958 0 01.208-1.047l1.923-1.923a.96.96 0 111.36 1.36l-1.923 1.922a.963.963 0 01-.68.282zm24.615-24.616a.96.96 0 01-.68-1.641l1.923-1.923a.96.96 0 111.36 1.36l-1.923 1.923a.958.958 0 01-.68.281z"></path>
    <path fill="#EB2C44" d="M3.846 32.115L32.115 3.846l4.039 4.038-28.27 28.27z"></path>
</svg>
