<?xml version="1.0" encoding="UTF-8"?>
<svg width="21px" height="21px" viewBox="0 0 21 21" version="1.1" xmlns="http://www.w3.org/2000/svg" xmlns:xlink="http://www.w3.org/1999/xlink">
    <title>Shape</title>
    <g id="Page-1" stroke="none" stroke-width="1" fill="none" fill-rule="evenodd">
        <g id="Gamer-Arena-Settings-Blocked-Users-360px-6" transform="translate(-72.000000, -529.000000)" fill="#959AA2" fill-rule="nonzero">
            <g id="Group-4" transform="translate(16.000000, 469.000000)">
                <g id="Game-Info" transform="translate(16.000000, 16.000000)">
                    <path d="M50.5,44 C44.7040265,44 40,48.7040265 40,54.5 C40,60.2959735 44.7040265,65 50.5,65 C56.2959735,65 61,60.2959735 61,54.5 C61,48.7040265 56.2960183,44 50.5,44 Z M42.9679879,54.5 C42.9679879,50.3280005 46.355983,46.9400054 50.5,46.9400054 C52.0680088,46.9400054 53.5520252,47.4160225 54.755992,48.255992 L44.2840194,58.7560368 C43.444005,57.5520252 42.9679879,56.0680088 42.9679879,54.5 Z M50.5,62.0320121 C48.9319912,62.0320121 47.4479748,61.555995 46.244008,60.7160255 L56.7160255,50.244008 C57.5560398,51.4480196 58.0320121,52.9319912 58.0320121,54.5 C58.0320121,58.6719995 54.6719995,62.0320121 50.5,62.0320121 Z" id="Shape"></path>
                </g>
            </g>
        </g>
    </g>
</svg>