<svg xmlns="http://www.w3.org/2000/svg" width="22" height="22" viewBox="0 0 22 22">
    <path d="M20.672 17.478l-2.881-2.882-3.195 3.195 2.882 2.88c.882.883 2.312.883 3.194 0 .882-.881.882-2.311 0-3.193zM10.017 16.842c.149 0 .298-.057.412-.17.227-.228.227-.597 0-.824l-.685-.685 11.376-9.3c.135-.11.213-.276.213-.451V.582c0-.321-.26-.582-.582-.582h-4.83c-.174 0-.34.078-.45.214l-9.3 11.375-.685-.685c-.228-.227-.597-.227-.824 0-.228.228-.228.597 0 .824l4.943 4.943c.114.114.263.171.412.171zm7.69-14.039c.227-.227.596-.227.823 0 .228.228.228.596 0 .824L8.37 13.788l-.825-.824 10.161-10.16zM3.856 20.672l2.88-2.881-3.193-3.195-2.881 2.882c-.883.882-.883 2.312 0 3.194.882.882 2.312.882 3.194 0z"
          transform="translate(-1121 -205) translate(1096 80) translate(20 120) translate(5.333 5.333)"/>
    <path d="M.209 6.837l4.502 4.391 1.752-2.557L2.74 4.23c-.223-.265-.223-.695 0-.96.222-.266.583-.266.805 0l3.642 4.345 1.795-2.62L5.731.25C5.623.092 5.46 0 5.29 0H.57C.254 0 0 .304 0 .68V6.31c0 .204.077.397.209.526zM16.868 11.416l-.755.755-.29-.354-1.704 1.394.477.477-.908.909-.568-.569-1.75 1.43.801.655-.755.755c-.25.251-.25.658 0 .909.251.25.658.25.909 0l5.452-5.452c.125-.126.188-.29.188-.454 0-.165-.063-.33-.188-.455-.251-.25-.658-.25-.909 0z"
          transform="translate(-1121 -205) translate(1096 80) translate(20 120) translate(5.333 5.333)"/>
</svg>
