<svg xmlns="http://www.w3.org/2000/svg" width="26" height="28" viewBox="0 0 26 28">
    <path fill-rule="nonzero"
          d="M13.623 0c1.008 0 1.921.56 2.425 1.387.246.4.41.893.368 1.413-.027.4.096.8.314 1.173.695 1.134 2.234 1.56 3.433.92 1.35-.773 3.053-.306 3.83 1.014l.912 1.573c.79 1.32.355 3.013-1.008 3.773-1.158.68-1.567 2.187-.872 3.334.218.36.463.666.845.853.477.253.845.653 1.104 1.053.504.827.463 1.84-.028 2.734l-.954 1.6c-.504.853-1.444 1.386-2.411 1.386-.477 0-1.009-.133-1.445-.4-.354-.226-.763-.306-1.199-.306-1.349 0-2.48 1.106-2.52 2.426 0 1.534-1.254 2.734-2.821 2.734h-1.853c-1.581 0-2.835-1.2-2.835-2.734-.027-1.32-1.158-2.426-2.507-2.426-.45 0-.858.08-1.199.306-.436.267-.981.4-1.444.4-.981 0-1.922-.533-2.426-1.386l-.94-1.6c-.504-.867-.531-1.907-.027-2.734.218-.4.627-.8 1.09-1.053.381-.187.627-.493.858-.853.682-1.147.273-2.654-.885-3.334C.078 10.493-.357 8.8.419 7.48l.913-1.573c.79-1.32 2.48-1.787 3.843-1.014 1.185.64 2.725.214 3.42-.92.218-.373.34-.773.313-1.173-.027-.52.123-1.013.382-1.413C9.794.56 10.707.027 11.702 0zm-.94 9.573c-2.14 0-3.87 1.68-3.87 3.774 0 2.093 1.73 3.76 3.87 3.76s3.829-1.667 3.829-3.76c0-2.094-1.69-3.774-3.83-3.774z"/>
</svg>
