<svg xmlns="http://www.w3.org/2000/svg" width="14" height="12" viewBox="0 0 14 12">
    <g fill="none" transform="translate(-243 -538) translate(195 496) translate(24 16) translate(20.957 22) translate(1.804 2)">
        <path fill="#ffffff" fill-rule="nonzero"
              d="M4.51 2c0 4.902 2.557 6.027 2.808 8h1.405c.249-1.973 2.801-3.098 2.801-8H4.51zm3.51 7.31c-.204-.499-.486-.98-.776-1.477C6.532 6.614 5.736 5.253 5.551 3h4.932c-.185 2.253-.979 3.615-1.69 4.835-.289.496-.57.977-.773 1.475zm-.003-1.537c-.564-1.281-.926-2.799-.93-4.273h-.693c.187 1.559.93 3.511 1.623 4.274zM14.03 3c-.187 2.053-1.407 4.045-3.444 4.719.149-.276.299-.573.442-.892 1.46-.76 2.023-2.125 2.237-3.125h-1.347c.03-.225.051-.461.07-.703h2.042V3zM2.004 3c.187 2.053 1.407 4.045 3.444 4.719-.149-.276-.299-.573-.442-.892-1.46-.76-2.023-2.125-2.237-3.125h1.347c-.029-.224-.05-.461-.069-.702H2.004zm6.734 7.5H7.3c-.1.594-.816 1.31-1.789 1.31V14h5.01v-2.19c-1 0-1.688-.716-1.784-1.31zm1.283 3H6.013v-1h4.008v1z"/>
    </g>
</svg>
