<?xml version="1.0" encoding="UTF-8"?>
<svg width="14px" height="14px" viewBox="0 0 14 14" version="1.1" xmlns="http://www.w3.org/2000/svg" xmlns:xlink="http://www.w3.org/1999/xlink">
    <g id="Symbols" stroke="none" stroke-width="1" fill="none" fill-rule="evenodd">
        <g id="-4.-Icons-/-Action-/-alarm_on" transform="translate(-3.000000, -3.000000)">
            <g id="Icons/Swords/Primary">
                <rect id="Rectangle" x="0" y="0" width="20" height="20"></rect>
                <g id="Sword" transform="translate(3.333333, 3.333333)" fill="#eb2c44" fill-rule="nonzero">
                    <path d="M12.9198768,10.9235574 L11.1191278,9.12280702 L9.12280702,11.1191036 L10.9235817,12.9198796 C11.4748528,13.4711512 12.3686313,13.4711512 12.9199024,12.9198796 C13.4711479,12.3686081 13.4711479,11.474829 12.9198768,10.9235574 L12.9198768,10.9235574 Z" id="Path"></path>
                    <path d="M6.26061617,10.5263158 C6.35377725,10.5263158 6.44698687,10.4907553 6.51805921,10.4196586 C6.66025244,10.2774652 6.66025244,10.0469411 6.51805921,9.90474766 L6.09026587,9.47695383 L13.1997086,3.66435613 C13.2842769,3.5952013 13.3333333,3.49172393 13.3333333,3.38246951 L13.3333333,0.364100515 C13.3333333,0.163019937 13.1703136,0 12.9692332,0 L9.95081918,0 C9.84156488,0 9.73808763,0.049056476 9.66893289,0.133624889 L3.85636615,7.24305154 L3.42857282,6.8152577 C3.28640387,6.67308859 3.05585569,6.67306432 2.91366246,6.8152577 C2.77146924,6.95745109 2.77146924,7.18797526 2.91366246,7.33016865 L6.00314886,10.4196586 C6.07424547,10.4907796 6.16740655,10.5263158 6.26061617,10.5263158 Z M11.0664947,1.75193031 C11.2086636,1.60973692 11.4392118,1.60973692 11.581405,1.75193031 C11.7235983,1.8941237 11.7235983,2.12464787 11.581405,2.26684126 L5.23077119,8.61748243 L4.71586084,8.10257148 L11.0664947,1.75193031 Z" id="Shape"></path>
                    <path d="M2.40977597,12.9198768 L4.21052632,11.1191278 L2.2142297,9.12280702 L0.413453687,10.9235817 C-0.137817896,11.4748528 -0.137817896,12.3686313 0.413453687,12.9199024 C0.964725269,13.4711479 1.85850438,13.4711479 2.40977597,12.9198768 L2.40977597,12.9198768 Z" id="Path"></path>
                    <path d="M0.130608613,4.27314464 L2.94413879,7.01754386 L4.03923448,5.41950557 L1.7123845,2.64343205 C1.5734008,2.47764435 1.5734008,2.20879484 1.7123845,2.04297884 C1.8513682,1.87716284 2.07668882,1.87716284 2.21567251,2.04297884 L4.49203474,4.7588174 L5.61403509,3.12154712 L3.58166542,0.155824018 C3.5140716,0.0572062381 3.41293,0 3.30614174,0 L0.355881781,0 C0.159340136,0 0,0.190102472 0,0.424588605 L0,3.94445645 C0,4.07186134 0.0479491386,4.19250111 0.130608613,4.27314464 Z" id="Path"></path>
                    <path d="M10.5425441,7.13516328 L10.0707312,7.60697953 L9.88986602,7.38576881 L8.82459265,8.2567174 L9.12279531,8.55492219 L8.55490116,9.1228204 L8.19970295,8.76761966 L7.1064003,9.66148442 L7.60696527,10.0707363 L7.1351524,10.5425525 C6.9783544,10.6993517 6.97832763,10.9536249 7.1351524,11.1104508 C7.29197717,11.2672766 7.54622178,11.2672766 7.70304655,11.1104508 L11.1104382,7.70303472 C11.1888506,7.62462177 11.2280702,7.52187377 11.2280702,7.419099 C11.2280702,7.316351 11.1888506,7.21354946 11.1104382,7.13516328 C10.9536134,6.97833739 10.6993688,6.97833739 10.5425441,7.13516328 L10.5425441,7.13516328 Z" id="Path"></path>
                </g>
            </g>
        </g>
    </g>
</svg>
