<?xml version="1.0" encoding="UTF-8"?>
<svg width="13px" height="9px" viewBox="0 0 13 9" version="1.1" xmlns="http://www.w3.org/2000/svg" xmlns:xlink="http://www.w3.org/1999/xlink">
    <title>=</title>
    <g id="Wallet" stroke="none" stroke-width="1" fill="none" fill-rule="evenodd">
        <g id="5-Gamer-Arena--Withdraw---360px" transform="translate(-176.000000, -278.000000)" fill="#FFFFFF" fill-rule="nonzero">
            <g id="Current-Status" transform="translate(13.000000, 180.000000)">
                <g id="=" transform="translate(153.173913, 87.000000)">
                    <path d="M21.94,14.92 C22.228,14.92 22.42,14.728 22.42,14.44 L22.42,12.264 C22.42,11.976 22.228,11.784 21.94,11.784 L11.06,11.784 C10.772,11.784 10.58,11.976 10.58,12.264 L10.58,14.44 C10.58,14.728 10.772,14.92 11.06,14.92 L21.94,14.92 Z M21.94,19.976 C22.228,19.976 22.42,19.784 22.42,19.496 L22.42,17.32 C22.42,17.032 22.228,16.84 21.94,16.84 L11.06,16.84 C10.772,16.84 10.58,17.032 10.58,17.32 L10.58,19.496 C10.58,19.784 10.772,19.976 11.06,19.976 L21.94,19.976 Z"></path>
                </g>
            </g>
        </g>
    </g>
</svg>