<?xml version="1.0" standalone="no"?>
<!DOCTYPE svg PUBLIC "-//W3C//DTD SVG 20010904//EN"
 "http://www.w3.org/TR/2001/REC-SVG-20010904/DTD/svg10.dtd">
<svg version="1.0" xmlns="http://www.w3.org/2000/svg"
 width="700.000000pt" height="700.000000pt" viewBox="0 0 700.000000 700.000000"
 preserveAspectRatio="xMidYMid meet">
<metadata>
Created by potrace 1.11, written by Peter Selinger 2001-2013
</metadata>
<g transform="translate(0.000000,700.000000) scale(0.100000,-0.100000)"
fill="#000000" stroke="none">
<path d="M1371 5979 c-119 -23 -247 -118 -292 -216 -50 -111 -49 -62 -48
-1548 1 -1356 1 -1391 20 -1448 50 -148 152 -243 302 -283 42 -11 234 -14
1011 -14 528 0 961 -2 963 -4 3 -3 -17 -140 -33 -231 -3 -16 -8 -43 -9 -60 -2
-16 -20 -127 -39 -245 -19 -118 -37 -231 -40 -250 -3 -19 -8 -55 -11 -80 -4
-25 -10 -60 -15 -78 -5 -18 -9 -141 -10 -272 l-1 -240 546 0 545 0 1 23 c0 12
2 31 4 41 2 11 6 54 10 95 3 42 7 92 10 111 4 34 10 94 20 190 2 25 7 72 11
105 4 33 7 79 8 102 l1 43 78 0 c296 1 400 1 403 -2 1 -2 5 -30 9 -63 3 -33 7
-80 10 -105 3 -25 7 -74 10 -110 3 -36 7 -81 10 -100 2 -19 7 -73 11 -120 3
-47 8 -93 10 -103 2 -10 4 -38 5 -63 l3 -44 549 0 549 0 -5 252 c-2 139 -6
262 -9 273 -6 21 -15 73 -23 140 -3 22 -8 51 -11 65 -2 14 -6 35 -9 47 -2 12
-18 113 -35 225 -17 112 -35 226 -40 253 -6 28 -12 66 -14 85 -3 19 -14 94
-26 165 -43 271 -110 686 -115 720 -10 75 -17 116 -25 160 -5 28 -12 73 -16
100 -3 28 -8 59 -10 70 -8 38 -13 71 -39 235 -14 91 -27 176 -30 190 -3 14 -8
45 -11 70 -3 25 -7 52 -9 60 -3 8 -7 35 -10 60 -3 25 -7 56 -10 70 -3 14 -12
68 -20 120 -8 52 -17 110 -20 128 l-6 32 -1454 0 -1455 0 0 -590 0 -590 -218
0 -218 0 0 868 c1 477 4 872 8 877 4 7 238 10 671 10 l666 -1 87 221 87 220 2
210 c1 116 -1 216 -3 223 -3 9 -236 12 -1121 11 -614 -1 -1136 -5 -1160 -10z
m3260 -2359 c0 -14 2 -34 4 -45 3 -11 7 -56 11 -100 3 -44 7 -87 9 -96 2 -8 6
-55 10 -105 4 -49 9 -102 11 -119 2 -16 6 -59 9 -95 3 -36 7 -78 10 -95 2 -16
7 -66 10 -110 3 -44 8 -96 10 -115 2 -19 7 -59 10 -87 l6 -53 -161 0 -161 0 5
48 c6 50 14 136 21 217 2 28 6 73 9 100 3 28 8 79 11 115 3 36 8 81 10 100 2
19 7 67 10 105 3 39 8 84 10 100 2 17 6 67 10 112 4 46 8 91 10 100 2 10 4 25
4 34 1 13 13 16 61 15 57 -1 60 -2 61 -26z"/>
</g>
</svg>
