<?xml version="1.0" encoding="UTF-8"?>
<svg width="14px" height="14px" viewBox="0 0 14 14" version="1.1" xmlns="http://www.w3.org/2000/svg" xmlns:xlink="http://www.w3.org/1999/xlink">
    <title>Shape</title>
    <g id="Symbols" stroke="none" stroke-width="1" fill-rule="evenodd">
        <g id="Icons/Arrows/Previous/Secondary" transform="translate(-5.000000, -5.000000)" fill-rule="nonzero">
            <g transform="translate(12.000000, 12.000000) scale(-1, 1) translate(-12.000000, -12.000000) " id="Shape">
                <path d="M12,5 C8.14007422,5 5,8.14007422 5,12 C5,15.8599258 8.14007422,19 12,19 C15.8599258,19 19,15.8599258 19,12 C19,8.14007422 15.8599258,5 12,5 Z M14.1624258,12.4124258 L11.24575,15.3290742 C11.132,15.4428242 10.9826758,15.5 10.8333242,15.5 C10.684,15.5 10.5346484,15.4428242 10.4208984,15.3290742 C10.1928242,15.101 10.1928242,14.7323242 10.4208984,14.50425 L12.9251758,12 L10.4209258,9.49575 C10.1928516,9.26767578 10.1928516,8.899 10.4209258,8.67092578 C10.649,8.44285156 11.0176758,8.44285156 11.24575,8.67092578 L14.1624258,11.5876016 C14.3905,11.8156758 14.3905,12.1843242 14.1624258,12.4124258 Z"></path>
            </g>
        </g>
    </g>
</svg>
