<?xml version="1.0" encoding="UTF-8"?>
<svg width="36px" height="36px" viewBox="0 0 36 36" version="1.1" xmlns="http://www.w3.org/2000/svg" xmlns:xlink="http://www.w3.org/1999/xlink">
    <title>coins 2</title>
    <defs>
        <filter id="filter-1">
            <feColorMatrix in="SourceGraphic" type="matrix" values="0 0 0 0 0.952941 0 0 0 0 0.784314 0 0 0 0 0.011765 0 0 0 1.000000 0"></feColorMatrix>
        </filter>
    </defs>
    <g id="Wallet" stroke="none" stroke-width="1" fill="none" fill-rule="evenodd" opacity="0.998581659">
        <g id="1-Gamer-Arena--Wallet-Dropdown---360px" transform="translate(-24.000000, -139.000000)">
            <g id="Wallet" transform="translate(8.000000, 65.000000)">
                <g id="coins-2" transform="translate(16.000000, 74.000000)" filter="url(#filter-1)">
                    <g id="coins" fill="#FFFFFF" fill-rule="nonzero">
                        <path d="M15.2727273,10.8753965 C15.2727273,13.7619833 20.486421,15.2727273 25.6363636,15.2727273 C30.7863062,15.2727273 36,13.7619833 36,10.8753965 C36,5.10214056 15.2727273,5.10214056 15.2727273,10.8753965 Z" id="Path"></path>
                        <path d="M35.6154004,14.30632 C35.3779591,14.1507716 35.0797561,14.1397536 34.8329726,14.2801522 C32.6858366,15.500883 29.4199538,16.1737918 25.6363636,16.1737918 C21.8527735,16.1737918 18.5868906,15.500883 16.4397546,14.2801522 C16.1929711,14.1398346 15.8947682,14.1507716 15.6573269,14.30632 C15.4183161,14.4626786 15.2727273,14.7442049 15.2727273,15.0468762 L15.2727273,15.3080678 C15.2727273,18.1493373 20.486421,19.6363636 25.6363636,19.6363636 C30.7863062,19.6363636 36,18.1493373 36,15.3080678 L36,15.0468762 C36,14.7442049 35.8543365,14.4626786 35.6154004,14.30632 Z" id="Path"></path>
                        <path d="M5.45454545,27.2390329 C5.45454545,30.125702 10.6682392,31.6363636 15.8181818,31.6363636 C20.9681244,31.6363636 26.1818182,30.1256197 26.1818182,27.2390329 C26.1818182,21.4657769 5.45454545,21.4657769 5.45454545,27.2390329 Z" id="Path"></path>
                        <path d="M25.7972186,30.6696795 C25.5589552,30.5149332 25.2615743,30.5031044 25.0147908,30.6435103 C22.8676548,31.8643045 19.6017719,32.5372483 15.8181818,32.5372483 C12.0345917,32.5372483 8.76870882,31.8643045 6.62157281,30.6435103 C6.37478931,30.5031855 6.07658635,30.5150142 5.83914505,30.6696795 C5.60013427,30.8260461 5.45454545,31.1075871 5.45454545,31.4102741 L5.45454545,31.6714793 C5.45454545,34.5129774 10.6682392,36 15.8181818,36 C20.9681244,36 26.1818182,34.5128964 26.1818182,31.6714793 L26.1818182,31.4102741 C26.1818182,31.1075871 26.0361546,30.8260461 25.7972186,30.6696795 Z" id="Path"></path>
                        <path d="M10.3636364,8.72727273 C11.440306,8.72727273 12.5170503,8.66027543 13.5641239,8.5271862 C13.7346003,8.50570426 13.8942398,8.42413876 14.0195747,8.29442408 C15.2270351,7.04048814 17.2900913,6.11553035 19.9853527,5.61996433 C20.2703271,5.56753524 20.5077684,5.34942364 20.6050768,5.04884116 C20.6875871,4.79550248 20.7272727,4.56018887 20.7272727,4.32997825 C20.7272727,-1.44331236 0,-1.44331236 0,4.32989594 C0,7.21654124 5.21369376,8.72727273 10.3636364,8.72727273 Z" id="Path"></path>
                        <path d="M10.4078304,13.0909091 C11.0708026,13.0909091 11.7174125,13.0663621 12.3436822,13.0215617 C12.5962466,13.0029287 12.8253184,12.8575909 12.9628966,12.6275942 C13.0997242,12.3984886 13.1286209,12.1119447 13.0411052,11.8557807 C12.8855135,11.4034836 12.8097067,10.9579916 12.8136096,10.4474459 C12.8136096,10.2107251 12.7236922,9.98421199 12.5649481,9.82105125 C12.4070297,9.65789052 12.1841876,9.55897331 11.9746304,9.58262918 C11.4515631,9.60968762 10.9284959,9.62823966 10.4078304,9.62823966 C6.60810577,9.62823966 3.32829607,8.95534339 1.17200395,7.73463535 C0.924168083,7.59432036 0.624693491,7.60533816 0.386239662,7.76080264 C0.14620965,7.91732029 0,8.19884142 0,8.50150702 L0,8.76269382 C0,11.6039914 5.2359267,13.0909091 10.4078304,13.0909091 Z" id="Path"></path>
                        <path d="M10.4078304,18.5454545 C11.0708026,18.5454545 11.7174125,18.5209075 12.3436822,18.4761072 C12.5962466,18.4574741 12.8253184,18.3121363 12.9628966,18.0821396 C13.0997242,17.8530341 13.1286209,17.5664901 13.0411052,17.3103261 C12.8855135,16.858029 12.8097067,16.412537 12.8097067,15.9019914 C12.8097067,15.6652706 12.7197892,15.4387574 12.5610452,15.2755967 C12.4031268,15.112436 12.1841876,15.0194327 11.9707275,15.0371746 C11.4492364,15.0642331 10.9277453,15.0827851 10.4078304,15.0827851 C6.60810577,15.0827851 3.32829607,14.4098888 1.17200395,13.1891808 C0.924168083,13.0488658 0.624693491,13.0598836 0.386239662,13.2153481 C0.14620965,13.3718657 0,13.6533869 0,13.9559715 L0,14.2171583 C0,17.0584559 5.2359267,18.5454545 10.4078304,18.5454545 Z" id="Path"></path>
                        <path d="M35.5914091,24.1293689 C35.3374888,23.966285 35.0223513,23.9575081 34.7601735,24.1023693 C33.166383,24.9824871 30.924135,25.5973742 28.2767104,25.8791557 C27.830087,25.9271363 27.5116941,26.4766561 27.5306706,26.9494405 C27.5306706,27.4021632 27.4611959,27.8347409 27.3189116,28.2699933 C27.2245847,28.5587128 27.2767504,28.878862 27.4570671,29.1178454 C27.6192013,29.3315847 27.8631966,29.4545455 28.1195783,29.4545455 C28.1493532,29.4545455 28.1799221,29.4527901 28.2105704,29.4492793 C33.0878567,28.8944933 36,27.2922426 36,25.1630413 L36,24.8934639 C36,24.5812557 35.84525,24.2907809 35.5914091,24.1293689 Z" id="Path"></path>
                        <path d="M14.9955914,21.8071504 L15.535233,21.8181818 C15.5400397,21.8181818 15.54477,21.8181818 15.5495767,21.8181818 C15.9294545,21.8181818 16.2592821,21.5133617 16.3435129,21.0833129 C16.4285829,20.6468218 16.2378429,20.202035 15.8864998,20.0168837 L15.7124686,19.9266026 C15.5964224,19.8676507 15.4796132,19.8086988 15.3715018,19.7433045 C15.1179702,19.5894825 14.8175928,19.6033379 14.5735982,19.773663 C14.3303665,19.9439881 14.1818182,20.249779 14.1818182,20.5793977 L14.1818182,20.8639201 C14.1817419,21.3853972 14.5457501,21.8071504 14.9955914,21.8071504 Z" id="Path"></path>
                        <path d="M35.6054446,19.7623096 C35.3618569,19.604957 35.0559346,19.5938112 34.8027628,19.7358383 C32.6000458,20.9707287 29.2496218,21.6514427 25.3680892,21.6514427 L24.8281633,21.6402969 C24.4983192,21.6103835 24.1037638,21.9208272 24.0198844,22.3252726 C23.9352382,22.7298 24.1269189,23.1419492 24.4791512,23.3129882 C25.364869,23.7439869 26.0885017,24.2562845 26.6291944,24.8352111 C26.7833056,24.9994479 26.9910107,25.0909091 27.2074565,25.0909091 C27.2242477,25.0909091 27.2418057,25.0900895 27.2593636,25.089188 C31.2910205,24.815542 36,23.5216444 36,20.775677 L36,20.5114557 C36,20.2052737 35.8505658,19.9204818 35.6054446,19.7623096 Z" id="Path"></path>
                        <path d="M6.84227694,22.9090909 C6.94451839,22.9090909 7.04683654,22.8877874 7.14347887,22.8450953 C8.58483019,22.2111037 10.3424934,21.7744676 12.3686842,21.5477986 C12.8001232,21.4998232 13.1085349,20.8933557 13.0901269,20.4113858 C13.0901269,20.1623908 12.9982399,19.9241327 12.8360189,19.7525118 C12.6746415,19.580891 12.4509069,19.4892861 12.2327713,19.5017273 C11.6998579,19.5301887 11.1669445,19.5497027 10.6356418,19.5497027 C6.75269104,19.5497027 3.401043,18.841916 1.19752119,17.5579127 C0.944256921,17.4103222 0.638222877,17.4219113 0.394546146,17.5854368 C0.14941211,17.7499848 0,18.046018 0,18.3643772 L0,18.6391068 C0,20.6513482 2.51515498,22.2447632 6.72883725,22.9001434 C6.76642038,22.9063641 6.80477051,22.9090909 6.84227694,22.9090909 Z" id="Path"></path>
                    </g>
                </g>
            </g>
        </g>
    </g>
</svg>