<?xml version="1.0" encoding="UTF-8"?>
<svg width="36px" height="36px" viewBox="0 0 36 36" version="1.1" xmlns="http://www.w3.org/2000/svg" xmlns:xlink="http://www.w3.org/1999/xlink">
    <title>wallet</title>
    <defs>
        <filter id="filter-1">
            <feColorMatrix in="SourceGraphic" type="matrix" values="0 0 0 0 0.584314 0 0 0 0 0.603922 0 0 0 0 0.635294 0 0 0 1.000000 0"></feColorMatrix>
        </filter>
    </defs>
    <g id="Wallet" stroke="none" stroke-width="1" fill="none" fill-rule="evenodd" opacity="0.998581659">
        <g id="1-Gamer-Arena--Wallet-Dropdown---360px" transform="translate(-213.000000, -140.000000)">
            <g id="Wallet" transform="translate(8.000000, 65.000000)">
                <g id="wallet" transform="translate(205.000000, 74.000000)" filter="url(#filter-1)">
                    <g transform="translate(0.000000, 1.000000)">
                        <path d="M33.7911849,29.4546003 L28.0219412,29.4546003 C24.3864068,29.4546003 21.4285751,26.5183212 21.4285751,22.9092774 C21.4285751,19.3002335 24.3864068,16.3639544 28.0219412,16.3639544 L33.7911849,16.3639544 C34.246747,16.3639544 34.6153846,15.9980029 34.6153846,15.5457603 L34.6153846,13.0912546 C34.6153846,11.3755551 33.2748141,9.98024529 31.5810593,9.84494066 L26.8477251,1.63768723 C26.4090843,0.878631342 25.700784,0.336108879 24.8532498,0.110831278 C24.0097335,-0.112912258 23.1276613,0.0045972027 22.3726922,0.440808888 L6.14653504,9.81855473 L3.29672169,9.81855473 C1.47856813,9.81855473 0,11.2862724 0,13.0912546 L0,32.7273002 C0,34.5322056 1.47849086,36 3.29672169,36 L31.3186629,36 C33.1368165,36 34.6153846,34.5322823 34.6153846,32.7273002 L34.6153846,30.2727945 C34.6153846,29.8205518 34.246747,29.4546003 33.7911849,29.4546003 Z M27.8698811,6.70470743 L29.6657047,9.81855473 L22.4821785,9.81855473 L27.8698811,6.70470743 Z M9.42262663,9.81855473 L23.2024551,1.85498769 C23.5751105,1.63845426 24.0105062,1.58092679 24.4266625,1.69122614 C24.8476094,1.80305955 25.198553,2.07313188 25.4166758,2.45104906 L25.4183756,2.45404048 L12.6763883,9.81855473 L9.42262663,9.81855473 Z" id="Shape" fill="#FFFFFF" fill-rule="nonzero"></path>
                        <path d="M33.5625048,18 L27.8749905,18 C25.1867379,18 23,20.2428125 23,23 C23,25.7571875 25.1867379,28 27.8749905,28 L33.5625048,28 C34.906631,28 36,26.8785938 36,25.5 L36,20.5 C36,19.1214062 34.906631,18 33.5625048,18 Z M29.5,25 C28.6731121,25 28,24.3268879 28,23.5 C28,22.6731121 28.6731121,22 29.5,22 C30.3268879,22 31,22.6731121 31,23.5 C31.0000703,24.3268879 30.3269582,25 29.5,25 Z" id="Shape" fill="#FFFFFF" fill-rule="nonzero"></path>
                    </g>
                </g>
            </g>
        </g>
    </g>
</svg>