<svg width="60px" height="60px" viewBox="0 0 60 60" version="1.1" xmlns="http://www.w3.org/2000/svg"
     xmlns:xlink="http://www.w3.org/1999/xlink">
    <g stroke="none" stroke-width="1" fill="none" fill-rule="evenodd">
        <g transform="translate(-130.000000, -507.000000)">
            <g>
                <g transform="translate(130.000000, 293.000000)">
                    <g transform="translate(0.000000, 214.000000)">
                        <g>
                            <circle id="Oval" fill="#EB2C44" cx="30" cy="30" r="30"></circle>
                            <g transform="translate(8.000000, 8.000000)">
                                <g>
                                    <g>
                                        <g>
                                            <rect id="Rectangle" x="0" y="0" width="44" height="44"></rect>
                                            <rect id="Rectangle" x="5.5" y="5.5" width="33" height="33"></rect>
                                            <path d="M33.7069425,26.8756265 L35.7137151,24.8482882 C36.9842012,23.5651512 36.984425,21.4770019 35.7139389,20.1931868 C35.3240874,19.79961 34.8559076,19.5231342 34.3557251,19.3698632 C34.764823,18.8085473 34.9861565,18.1328432 34.9861565,17.4227775 C34.9861565,16.5436162 34.6471066,15.7169016 34.0314457,15.0952267 C33.4162323,14.4735518 32.5978129,14.1310655 31.727249,14.1310655 C31.6907704,14.1310655 31.6542918,14.1317437 31.6178131,14.132874 C31.6462351,13.2541649 31.329341,12.3657349 30.666683,11.6961346 C30.004025,11.0269864 29.1233905,10.7064282 28.2548408,10.7355903 C28.2559598,10.6989681 28.2566312,10.6618936 28.2566312,10.6250453 C28.2566312,9.74565792 27.9175812,8.91916944 27.3021441,8.29749453 C26.0318819,7.01435759 23.9646845,7.01413154 22.6937508,8.29749453 L21.9999853,8.99829166 L21.3064436,8.29772058 C20.6910065,7.67581969 19.872587,7.33333333 19.0020232,7.33333333 C18.1316832,7.33333333 17.3134875,7.67581969 16.6980503,8.29726848 C16.0351686,8.96686881 15.7189459,9.8555248 15.7478154,10.7349122 C15.711113,10.7335558 15.6744106,10.7321994 15.6377081,10.7321994 C14.7673681,10.7321994 13.9489486,11.0744597 13.3330639,11.6961346 C12.6704059,12.365961 12.3541832,13.254617 12.3830528,14.1337782 C12.3461265,14.1324219 12.3094241,14.1310655 12.2724979,14.1310655 C11.4021578,14.1310655 10.5837384,14.4735518 9.96874881,15.0950007 C9.35308787,15.7166755 9.014038,16.5433901 9.014038,17.4227775 C9.014038,18.1326171 9.23514772,18.8083212 9.64446941,19.369411 C9.13690162,19.5240386 8.67163113,19.8039053 8.28603177,20.1931868 C7.01867885,21.473837 7.01576952,23.5554306 8.27752758,24.8392457 C8.28066068,24.8426366 8.28379385,24.8458015 8.28692695,24.8491924 L10.2966089,26.8787914 C10.2992945,26.8817302 10.3022038,26.8846691 10.3051132,26.8876079 C10.4257388,27.0096822 10.5546449,27.1202273 10.6898174,27.2203735 L10.095417,27.8207984 C9.51735366,28.4047206 9.22283902,29.2002384 9.26647912,30.0608625 C9.30810502,30.8871249 9.66013505,31.6742783 10.257221,32.277416 L13.6564482,35.711322 C14.2871034,36.3481431 15.115146,36.6666667 15.9434125,36.6666667 C16.7716791,36.6666667 17.5999455,36.3481431 18.2303769,35.711322 L19.8103719,34.115087 C20.5312166,34.2712969 21.2654891,34.3506452 22.0004329,34.3506452 C22.7347054,34.3506452 23.4692016,34.271749 24.1898226,34.1155391 L25.76937,35.711322 C26.4000252,36.3481431 27.2280679,36.6666667 28.0563344,36.6666667 C28.884377,36.6666667 29.7128673,36.3481431 30.3432987,35.711322 L33.7427497,32.277416 C35.0036125,31.0037737 35.1468415,29.0759034 34.0618818,27.979721 L33.337904,27.2484054 L33.6950813,26.8873818 C33.6991096,26.8835387 33.7029141,26.8796956 33.7069425,26.8756265 Z M17.9416809,9.55372995 C18.2250058,9.26753342 18.6016534,9.10996711 19.002247,9.10996711 C19.4028406,9.10996711 19.7794882,9.26753342 20.062813,9.55372995 L22.7543994,12.2725967 C23.3391766,12.863527 23.3391766,13.8247494 22.7543994,14.4154535 C22.4710745,14.70165 22.094427,14.8592163 21.6940571,14.8592163 L21.6938333,14.8592163 C21.2932397,14.8589902 20.916816,14.70165 20.6334911,14.4154535 C20.6330435,14.4150014 20.6325959,14.4145493 20.6323721,14.4143232 L17.9423523,11.6970388 C17.9401144,11.6947782 17.9381002,11.6925176 17.9356385,11.690483 C17.3569038,11.0988746 17.358918,10.1421734 17.9416809,9.55372995 Z M14.57289,15.0911576 C13.9921411,14.5000013 13.9934839,13.5417177 14.5766945,12.952596 C14.8602432,12.6663995 15.2371145,12.5088332 15.6377081,12.5088332 C16.0378542,12.5088332 16.4140541,12.6661735 16.6973789,12.9521439 C16.6976028,12.9521439 16.6978266,12.9523699 16.6978266,12.952596 C16.6989455,12.9535002 16.6998407,12.9544045 16.7007359,12.9553088 L19.3891891,15.6710107 C19.3907557,15.6728192 19.3927699,15.6746277 19.3945602,15.6764362 L20.0625893,16.351236 C20.3459141,16.6374325 20.5021233,17.0178976 20.5021233,17.4227775 C20.5021233,17.8274313 20.3461379,18.2078963 20.062813,18.4938667 C19.7794882,18.7800633 19.4028406,18.9376296 19.002247,18.9376296 C18.6016534,18.9376296 18.2250058,18.7800633 17.9419048,18.4938667 C17.9383241,18.4902497 17.9347433,18.4868587 17.9311626,18.4834678 L17.2716378,17.8170324 C17.2707426,17.8161281 17.2698474,17.8152239 17.2689522,17.8140935 L14.5769183,15.0952267 C14.5769183,15.0952267 14.5766945,15.0950007 14.5766945,15.0950007 C14.5753517,15.0936443 14.5740089,15.0922879 14.57289,15.0911576 Z M11.2126032,16.351236 C11.4957043,16.0652656 11.872128,15.9076993 12.2727217,15.9076993 C12.6733153,15.9076993 13.0499628,16.0652656 13.3332877,16.3514621 L16.0280072,19.0734938 C16.609875,19.664424 16.6087561,20.6233858 16.0253216,21.2131857 C15.7419967,21.4991561 15.3651254,21.6567224 14.9645318,21.6567224 C14.5639382,21.6567224 14.1872906,21.4991561 13.9041895,21.2129596 C13.9006088,21.2095687 13.8972519,21.2059517 13.8936711,21.2025607 L11.2208837,18.5026832 C11.2179743,18.4997444 11.215065,18.4965795 11.2123794,18.4938667 C10.9290546,18.2076703 10.7730689,17.8274313 10.7730689,17.4227775 C10.7728454,17.0181236 10.9290546,16.6376586 11.2126032,16.351236 Z M9.53883801,23.6013214 C9.53548107,23.5977044 9.53212413,23.5943135 9.52876718,23.5909225 C8.94510898,23.0002184 8.9455566,22.0399002 9.5298862,21.4496482 C9.81321105,21.1634517 10.1898586,21.0058854 10.5904522,21.0058854 C10.9910458,21.0058854 11.3679172,21.1634517 11.6512421,21.4498742 L13.6698758,23.4887418 C14.254653,24.0794459 14.254653,25.0406683 13.6700997,25.6313725 C13.3867748,25.917569 13.0101273,26.0751353 12.6097574,26.0751353 L12.6095336,26.0751353 C12.535905,26.0751353 12.4631714,26.0697098 12.3915569,26.0593109 C12.3861859,26.0581806 12.3808148,26.0575024 12.3754437,26.0565981 C12.0666062,26.0079944 11.7814909,25.8637658 11.5552338,25.6379284 C11.5529959,25.6354416 11.5505342,25.633181 11.5482962,25.6306943 L9.53883801,23.6013214 Z M19.7627035,32.2783202 C19.7550945,32.2762857 19.7477092,32.2753814 19.740324,32.2735729 C19.7226441,32.2692777 19.7051881,32.2652086 19.6875083,32.2620437 C19.6745281,32.2597831 19.661548,32.2582006 19.6483441,32.2563921 C19.6337974,32.2545836 19.6192507,32.2527751 19.6044802,32.2516448 C19.5890384,32.2502884 19.5735965,32.2496102 19.5581546,32.2493841 C19.545622,32.248932 19.5333133,32.248706 19.5207807,32.248932 C19.5042199,32.2491581 19.4878829,32.2500623 19.4715458,32.2514187 C19.4596846,32.252323 19.4478235,32.2532272 19.4359624,32.2545836 C19.4198491,32.2563921 19.4039596,32.2588788 19.3880701,32.2615916 C19.3755376,32.2636261 19.3632288,32.2661128 19.3506963,32.2688256 C19.3361496,32.2719905 19.3218267,32.2753814 19.3075038,32.2794506 C19.2938523,32.2830676 19.2802008,32.2871367 19.2665492,32.291432 C19.2537929,32.2957272 19.2414842,32.3002484 19.2289516,32.3047697 C19.214405,32.3104213 19.1998583,32.3160729 19.1857592,32.3224027 C19.1743456,32.327376 19.1629321,32.3328016 19.1517423,32.3382271 C19.1374194,32.3452351 19.1233202,32.3524691 19.109445,32.3603813 C19.0980314,32.3667111 19.0868416,32.3734931 19.0756519,32.380501 C19.0631193,32.3884132 19.050363,32.3963255 19.0380542,32.4049159 C19.0255217,32.4137323 19.013213,32.4230009 19.001128,32.4324956 C18.9910573,32.4401818 18.9812103,32.447868 18.9713633,32.4560063 C18.9570404,32.4682137 18.9433889,32.4808732 18.9299611,32.4939849 C18.9248138,32.4989583 18.9192189,32.5032535 18.9140717,32.508453 L16.9869701,34.4550866 C16.4115923,35.0362961 15.4756803,35.0362961 14.9003025,34.4550866 L11.5010754,31.0214067 C11.2123794,30.7297847 11.0425188,30.3565537 11.0230486,29.970211 C11.0053687,29.61823 11.1174902,29.3010628 11.3392714,29.0772598 L12.5535848,27.8504127 C12.5721598,27.8506388 12.5907348,27.8517691 12.6095336,27.8517691 C12.6095336,27.8517691 12.6095336,27.8517691 12.6097574,27.8517691 C13.4798736,27.8517691 14.2980693,27.5092827 14.9137303,26.8876079 C15.8556848,25.9358801 16.0985027,24.5419721 15.643303,23.361468 C16.2547118,23.2312553 16.8166619,22.9260695 17.269176,22.4694211 C17.7859194,21.9469881 18.092519,21.2911776 18.1885272,20.6107262 C18.4512629,20.6787713 18.7240694,20.7142633 19.002247,20.7142633 C19.002247,20.7142633 19.002247,20.7142633 19.0024708,20.7142633 C19.872587,20.7142633 20.6907827,20.372003 21.3064436,19.7503282 C21.9218808,19.1286533 22.2609307,18.3019388 22.2609307,17.4227775 C22.2609307,17.1422326 22.2260186,16.8671131 22.1591038,16.6021666 C22.8528693,16.5026986 23.4938191,16.1812362 23.99803,15.6714628 C25.268516,14.3883259 25.268516,12.3001765 23.9982538,11.0165874 L23.2436159,10.254301 L23.9373814,9.55372995 C24.5223824,8.96302574 25.4739601,8.96302574 26.0585135,9.55350384 C26.3418384,9.83970038 26.4978237,10.2201654 26.4978237,10.6248192 C26.4978237,11.0294731 26.3418384,11.4099381 26.0585135,11.6961346 C25.8868625,11.8695253 25.8009251,12.0969453 25.8009251,12.3243653 C25.8009251,12.5515592 25.8866387,12.7789792 26.0585135,12.9523699 C26.4020394,13.2993776 26.9586183,13.2993776 27.3021441,12.9523699 C27.8866975,12.3618918 28.8382752,12.3616658 29.4232762,12.9523699 C30.0080534,13.5433002 30.0078296,14.5045225 29.4230524,15.0952267 C29.2514014,15.2686175 29.1654639,15.4960375 29.1654639,15.7232314 C29.1654639,15.9506514 29.2511776,16.1778453 29.4230524,16.351236 C29.7665782,16.6982436 30.3231572,16.6982436 30.666683,16.3514621 C30.9500079,16.0652656 31.3268792,15.9076993 31.7274728,15.9074732 C32.1280665,15.9074732 32.504714,16.0650395 32.7878151,16.351236 C33.0713638,16.6376586 33.2273491,17.0181236 33.2273491,17.4227775 C33.2273491,17.8220057 33.075392,18.1977235 32.7992286,18.4823375 C32.7952003,18.4864066 32.791172,18.4902497 32.7873674,18.4943189 L31.5262808,19.7684133 C31.212296,20.0855805 31.1816361,20.5894762 31.4548901,20.9430397 L31.5000968,21.0015902 C31.7726795,21.3544754 32.2627912,21.4471615 32.6432433,21.2181591 C33.2329439,20.8632392 33.9842249,20.958412 34.4703083,21.449196 C35.0550855,22.0401263 35.0550855,23.0013487 34.4703083,23.5920528 L32.4518983,25.6306943 C32.4480938,25.6347634 32.4440655,25.6388326 32.4402609,25.6429017 L28.1078073,30.0192668 C25.9340833,32.2150224 22.7364958,33.08062 19.7627035,32.2783202 Z M32.818475,29.2359565 C33.2040744,29.6256901 33.0550267,30.4600908 32.4993429,31.0214067 L29.0998919,34.4550866 C28.5245141,35.0362961 27.5886021,35.0362961 27.0132243,34.4550866 L26.0777599,33.5101407 C27.2936399,32.9858993 28.4072455,32.2292645 29.3514379,31.2755022 L32.0942733,28.5046407 L32.818475,29.2359565 Z"
                                                  id="Shape" stroke="#FFFFFF" stroke-width="0.3" fill="#FFFFFF"
                                                  fill-rule="nonzero"></path>
                                        </g>
                                    </g>
                                </g>
                            </g>
                        </g>
                    </g>
                </g>
            </g>
        </g>
    </g>
</svg>
