<svg width="60px" height="60px" viewBox="0 0 60 60" version="1.1" xmlns="http://www.w3.org/2000/svg"
     xmlns:xlink="http://www.w3.org/1999/xlink">
    <g stroke="none" stroke-width="1" fill="none" fill-rule="evenodd">
        <g transform="translate(-130.000000, -389.000000)">
            <g>
                <g transform="translate(130.000000, 293.000000)">
                    <g transform="translate(0.000000, 96.000000)">
                        <g>
                            <circle fill="#EB2C44" cx="30" cy="30" r="30"></circle>
                            <g transform="translate(8.000000, 8.000000)" fill="#FFFFFF">
                                <g>
                                    <g>
                                        <g fill="none">
                                            <rect x="0" y="0" width="44" height="44"></rect>
                                            <g transform="translate(7.333333, 7.333333)" fill="#FFFFFF"
                                               fill-rule="nonzero">
                                                <path d="M28.4237289,24.0318262 L24.4620811,20.0701754 L20.0701754,24.462028 L24.0318797,28.4237352 C25.2446762,29.6365327 27.2109888,29.6365327 28.4237853,28.4237352 C29.6365254,27.2109377 29.6365254,25.2446237 28.4237289,24.0318262 L28.4237289,24.0318262 Z"></path>
                                                <path d="M13.7733556,23.1578947 C13.97831,23.1578947 14.1833711,23.0796617 14.3397303,22.9232489 C14.6525554,22.6104235 14.6525554,22.1032703 14.3397303,21.7904449 L13.3985849,20.8492984 L29.0393589,8.06158348 C29.2254092,7.90944286 29.3333333,7.68179266 29.3333333,7.44143292 L29.3333333,0.801021132 C29.3333333,0.358643862 28.9746899,0 28.5323131,0 L21.8918022,0 C21.6514427,0 21.4237928,0.107924247 21.2716523,0.293974755 L8.48400554,15.9347134 L7.54286019,14.993567 C7.2300885,14.6807949 6.72288251,14.6807415 6.41005742,14.993567 C6.09723232,15.3063924 6.09723232,15.8135456 6.41005742,16.126371 L13.2069275,22.9232489 C13.36334,23.0797151 13.5682944,23.1578947 13.7733556,23.1578947 Z M24.3462883,3.85424668 C24.65906,3.54142123 25.166266,3.54142123 25.4790911,3.85424668 C25.7919162,4.16707213 25.7919162,4.67422531 25.4790911,4.98705077 L11.5076966,18.9584614 L10.3748938,17.8256573 L24.3462883,3.85424668 Z"></path>
                                                <path d="M5.30150712,28.4237289 L9.26315789,24.4620811 L4.87130535,20.0701754 L0.909598111,24.0318797 C-0.30319937,25.2446762 -0.30319937,27.2109888 0.909598111,28.4237853 C2.12239559,29.6365254 4.08870964,29.6365254 5.30150712,28.4237289 L5.30150712,28.4237289 Z"></path>
                                                <path d="M0.28733895,9.40091822 L6.47710535,15.4385965 L8.88631586,11.9229123 L3.7672459,5.8155505 C3.46148177,5.45081757 3.46148177,4.85934866 3.7672459,4.49455345 C4.07301004,4.12975824 4.5687154,4.12975824 4.87447953,4.49455345 L9.88247642,10.4693983 L12.3508772,6.86740367 L7.87966391,0.34281284 C7.73095753,0.125853724 7.508446,0 7.27351183,0 L0.782939917,0 C0.350548299,0 0,0.418225438 0,0.934094932 L0,8.67780419 C0,8.95809494 0.105488105,9.22350245 0.28733895,9.40091822 Z"></path>
                                                <path d="M23.1935969,15.6973592 L22.1556086,16.735355 L21.7577052,16.2486914 L19.4141038,18.1647783 L20.0701497,18.8208288 L18.8207825,20.0702049 L18.0393465,19.2887632 L15.6340807,21.2552657 L16.7353236,22.1556199 L15.6973353,23.1936156 C15.3523797,23.5385737 15.3523208,24.0979747 15.6973353,24.4429917 C16.0423498,24.7880086 16.6016879,24.7880086 16.9467024,24.4429917 L24.4429641,16.9466764 C24.6154713,16.7741679 24.7017544,16.5481223 24.7017544,16.3220178 C24.7017544,16.0959722 24.6154713,15.8698088 24.4429641,15.6973592 C24.0979496,15.3523422 23.5386114,15.3523422 23.1935969,15.6973592 L23.1935969,15.6973592 Z"></path>
                                            </g>
                                        </g>
                                    </g>
                                </g>
                            </g>
                        </g>
                    </g>
                </g>
            </g>
        </g>
    </g>
</svg>
