<svg width="60px" height="60px" viewBox="0 0 60 60" version="1.1" xmlns="http://www.w3.org/2000/svg"
     xmlns:xlink="http://www.w3.org/1999/xlink">
    <g stroke="none" stroke-width="1" fill="none" fill-rule="evenodd">
        <g transform="translate(-130.000000, -625.000000)">
            <g>
                <g transform="translate(130.000000, 293.000000)">
                    <g transform="translate(0.000000, 332.000000)">
                        <g>
                            <circle fill="#EB2C44" cx="30" cy="30" r="30"></circle>
                            <g transform="translate(10.000000, 10.000000)">
                                <g>
                                    <g>
                                        <g>
                                            <rect x="0" y="0" width="40" height="40"></rect>
                                            <path d="M11.25,5 C11.25,17.25375 17.63125,20.06625 18.255,25 L21.76125,25 C22.3825,20.06625 28.75,17.25375 28.75,5 L11.25,5 Z M20.0075,23.275 C19.4975,22.0275 18.79625,20.82625 18.0725,19.58375 C16.295,16.53625 14.30875,13.13125 13.84875,7.5 L26.15125,7.5 C25.69125,13.1325 23.71,16.5375 21.93625,19.58625 C21.215,20.8275 20.51625,22.02875 20.0075,23.275 Z M20,19.43375 C18.59375,16.23 17.68875,12.435 17.67875,8.75 L15.95,8.75 C16.4175,12.6475 18.27125,17.52875 20,19.43375 L20,19.43375 Z M35,7.5 C34.535,12.63125 31.49,17.61375 26.40875,19.2975 C26.78,18.6075 27.15375,17.86625 27.51125,17.06875 C31.155,15.1675 32.5575,11.75625 33.09125,9.255 L29.73125,9.255 C29.805,8.6925 29.86,8.1025 29.905,7.49875 L35,7.49875 L35,7.5 Z M5,7.5 C5.465,12.63125 8.51,17.61375 13.59125,19.2975 C13.22,18.6075 12.84625,17.86625 12.48875,17.06875 C8.845,15.1675 7.4425,11.75625 6.90875,9.255 L10.26875,9.255 C10.19625,8.69375 10.14125,8.1025 10.09625,7.5 L5,7.5 Z M21.7975,26.25 L18.215,26.25 C17.9625,27.73375 16.1775,29.52375 13.75125,29.52375 L13.75125,35 L26.25125,35 L26.25125,29.52375 C23.7525,29.52375 22.0375,27.73375 21.7975,26.25 Z M25,33.75 L15,33.75 L15,31.25 L25,31.25 L25,33.75 Z"
                                                  fill="#FFFFFF" fill-rule="nonzero"></path>
                                        </g>
                                    </g>
                                </g>
                            </g>
                        </g>
                    </g>
                </g>
            </g>
        </g>
    </g>
</svg>
