<svg viewBox="0 0 43 97" version="1.1" xmlns="http://www.w3.org/2000/svg" xmlns:xlink="http://www.w3.org/1999/xlink">
    <g>
        <path d="M42.8424727,75.4403324 C42.4677418,74.7356222 41.6951654,74.3318191 40.8981031,74.4242114 L31.6875193,74.4242114 L31.6875193,49.9334401 C31.6890864,48.8671355 30.819742,48.0013709 29.7456963,48 C29.7106326,48 29.6755689,48.0007873 29.6407011,48.0027325 L13.2661557,48.0027325 C12.193677,47.946519 11.2784952,48.7644341 11.2220799,49.8291826 C11.2203169,49.864 11.2193375,49.8986228 11.2193375,49.9334401 L11.2193375,74.4242114 L2.00875363,74.4242114 C0.99562858,74.3327917 0.0996436677,75.0744588 0.00757700638,76.0804652 C-0.0435493736,76.6387093 0.166049196,77.189173 0.576039668,77.5744976 L20.0207144,96.3744859 C20.7466698,97.1603068 21.9768372,97.2128246 22.7680228,96.4917755 C22.8091589,96.4544296 22.8485321,96.4151385 22.8861423,96.3744859 L42.3308171,77.3712345 C42.9611799,76.9435067 43.1792016,76.1207288 42.8424727,75.4403324 Z M21.4532325,92.5128761 L7.02325249,78.4890843 L13.2659598,78.4890843 C14.3917196,78.4890843 15.312778,77.0664371 15.312778,75.9485874 L15.312778,52.0674108 L27.593687,52.0674108 L27.593687,75.9485874 C27.593687,77.0664371 28.5147454,78.4890843 29.6405052,78.4890843 L35.8832125,78.4890843 L21.4532325,92.5128761 Z"></path>
        <path d="M13,36 L29,36 C30.1046033,36 31,35.1046033 31,34 C31,32.8953967 30.1046033,32 29,32 L13,32 C11.8953967,32 11,32.8953967 11,34 C11,35.1046033 11.8953967,36 13,36 Z"></path>
        <path d="M13,20 L29,20 C30.1046033,20 31,19.1046033 31,18 C31,16.8953967 30.1046033,16 29,16 L13,16 C11.8953967,16 11,16.8953967 11,18 C11,19.1046033 11.8953967,20 13,20 Z"></path>
        <path d="M13,4 L29,4 C30.1046033,4 31,3.10460331 31,2 C31,0.895396689 30.1046033,0 29,0 L13,0 C11.8953967,0 11,0.895396689 11,2 C11,3.10460331 11.8953967,4 13,4 Z"></path>
    </g>
</svg>
