<svg height="504pt" viewBox="-20 0 504 504" width="504pt" xmlns="http://www.w3.org/2000/svg"><path d="m199.800781 320.480469c9.589844 4.808593 20.472657 7.519531 32 7.519531 11.4375 0 22.390625-2.71875 32-7.519531v23.519531l-32 40-32-40zm0 0" fill="#eac6bb"/><path d="m231.800781 424c13.277344 0 24 10.71875 24 24s-10.722656 24-24 24c-13.28125 0-24-10.71875-24-24s10.71875-24 24-24zm0 0" fill="#ffce54"/><path d="m295.800781 344-64 80-16-20 48-60zm0 0" fill="#ed5565"/><path d="m199.800781 344 32 40-16 20-48-60zm0 0" fill="#da4453"/><path d="m55.800781 284v4c0 30.960938 25.03125 56 56 56h56l64 80c-13.28125 0-24 10.71875-24 24s10.71875 24 24 24c13.277344 0 24-10.71875 24-24s-10.722656-24-24-24l64-80h56c30.953125 0 56-25.039062 56-56v-4c0-11.039062 8.953125-20 20-20 11.03125 0 20 8.960938 20 20v4c0 53.039062-42.96875 96-96 96h-48v120h-144v-120h-48c-53.046875 0-96-42.960938-96-96v-4c0-11.039062 8.953125-20 20-20 11.03125 0 20 8.960938 20 20zm0 0" fill="#ac92ec"/><path d="m303.800781 200v24l-24-16.238281s-16.082031 8-44 8c-27.921875 0-52-8-52-8l-24 16.238281v-24c0-35.359375 28.640625-64 64-64h48v32c17.671875 0 32 14.320312 32 32zm0 0" fill="#965353"/><path d="m271.800781 168v-32h-32v48c17.671875 0 32 6.320312 32 24v2.71875c5.144531-1.589844 8-2.957031 8-2.957031l24 16.238281v-24c0-17.679688-14.328125-32-32-32zm0 0" fill="#844747"/><path d="m303.800781 224.238281v31.761719c0 28.238281-16.328125 52.71875-40 64.480469-9.609375 4.808593-20.5625 7.519531-32 7.519531-11.527343 0-22.410156-2.71875-32-7.519531-23.6875-11.761719-40-36.234375-40-64.480469v-31.761719l24-16.238281s24.078125 8 52 8c27.917969 0 44-8 44-8zm0 0" fill="#eac6bb"/><path d="m303.800781 224.238281v31.761719c0 28.238281-16.328125 52.71875-40 64.480469-9.609375 4.808593-20.5625 7.519531-32 7.519531-11.527343 0-22.410156-2.71875-32-7.519531-23.6875-11.761719-40-36.234375-40-64.480469v-31.761719l24-16.238281s24.078125 8 52 8c27.917969 0 44-8 44-8zm0 0" fill="#eac6bb"/><path d="m279.800781 208s-2.855469 1.367188-8 2.953125v45.046875c0 28.238281-16.328125 52.71875-40 64.480469-5.015625 2.503906-10.394531 4.40625-16.015625 5.6875 5.144532 1.175781 10.503906 1.832031 16.015625 1.832031 11.4375 0 22.390625-2.71875 32-7.519531 23.671875-11.761719 40-36.234375 40-64.480469v-31.761719zm0 0" fill="#d3b1a9"/><path d="m101.457031 130.34375c-3.128906-3.128906-8.183593-3.128906-11.3125 0l-16 16c-3.128906 3.128906-3.128906 8.183594 0 11.3125l10.34375 10.34375-10.34375 10.34375c-3.128906 3.128906-3.128906 8.183594 0 11.3125l16 16c1.558594 1.558594 3.609375 2.34375 5.65625 2.34375s4.09375-.785156 5.65625-2.34375c3.128907-3.128906 3.128907-8.183594 0-11.3125l-10.34375-10.34375 10.34375-10.34375c3.128907-3.128906 3.128907-8.183594 0-11.3125l-10.34375-10.34375 10.34375-10.34375c3.117188-3.128906 3.117188-8.183594 0-11.3125zm0 0" fill="#48cfad"/><path d="m381.457031 34.34375-16-16c-3.128906-3.128906-8.183593-3.128906-11.3125 0-3.128906 3.128906-3.128906 8.183594 0 11.3125l10.34375 10.34375-10.34375 10.34375c-3.128906 3.128906-3.128906 8.183594 0 11.3125l10.34375 10.34375-10.34375 10.34375c-3.128906 3.128906-3.128906 8.183594 0 11.3125l10.34375 10.34375-10.34375 10.34375c-3.128906 3.128906-3.128906 8.183594 0 11.3125 1.558594 1.558594 3.609375 2.34375 5.65625 2.34375s4.09375-.785156 5.65625-2.34375l16-16c3.128907-3.128906 3.128907-8.183594 0-11.3125l-10.34375-10.34375 10.34375-10.34375c3.128907-3.128906 3.128907-8.183594 0-11.3125l-10.34375-10.34375 10.34375-10.34375c3.117188-3.128906 3.117188-8.183594 0-11.3125zm0 0" fill="#5d9cec"/><path d="m8.03125 112h-.078125c-4.425781 0-7.953125 3.574219-7.953125 8s3.609375 8 8.03125 8c4.425781 0 8-3.574219 8-8s-3.574219-8-8-8zm0 0" fill="#ffce54"/><path d="m80.03125 8c0-4.425781-3.574219-8-8-8h-.078125c-4.425781 0-7.953125 3.574219-7.953125 8s3.609375 8 8.03125 8c4.425781 0 8-3.574219 8-8zm0 0" fill="#ac92ec"/><path d="m456.03125 24h-.078125c-4.425781 0-7.953125 3.574219-7.953125 8s3.609375 8 8.03125 8c4.425781 0 8-3.574219 8-8s-3.574219-8-8-8zm0 0" fill="#4fc1e9"/><path d="m360.03125 224h-.078125c-4.425781 0-7.953125 3.574219-7.953125 8s3.609375 8 8.03125 8c4.425781 0 8-3.574219 8-8s-3.574219-8-8-8zm0 0" fill="#ec87c0"/><path d="m239.800781 40v-8c0-4.425781-3.578125-8-8-8-4.425781 0-8 3.574219-8 8v8c-4.425781 0-8 3.574219-8 8s3.574219 8 8 8v8c0 4.425781 3.574219 8 8 8 4.421875 0 8-3.574219 8-8v-8c4.421875 0 8-3.574219 8-8s-3.585937-8-8-8zm0 0" fill="#ed5565"/><path d="m439.800781 168v-8c0-4.425781-3.578125-8-8-8-4.425781 0-8 3.574219-8 8v8c-4.425781 0-8 3.574219-8 8s3.574219 8 8 8v8c0 4.425781 3.574219 8 8 8 4.421875 0 8-3.574219 8-8v-8c4.421875 0 8-3.574219 8-8s-3.585937-8-8-8zm0 0" fill="#a0d468"/></svg>