<?xml version="1.0" encoding="UTF-8"?>
<svg width="18px" height="17px" viewBox="0 0 18 17" version="1.1" xmlns="http://www.w3.org/2000/svg" xmlns:xlink="http://www.w3.org/1999/xlink">
    <title>Shape</title>
    <g id="Symbols" stroke="none" stroke-width="1" fill="none" fill-rule="evenodd">
        <g id="Icons/Warning/Primary" transform="translate(-3.000000, -3.000000)" fill="#FFFFFF" fill-rule="nonzero">
            <g id="alert" transform="translate(3.000000, 3.000000)">
                <path d="M17.6260078,13.0060547 L11.2674727,1.31744531 C10.2458672,-0.402433594 7.75550391,-0.40471875 6.73252734,1.31744531 L0.374308594,13.0060547 C-0.670042969,14.7634805 0.594351562,16.9889414 2.64125391,16.9889414 L15.3585352,16.9889414 C17.4037148,16.9889414 18.6703594,14.7652734 17.6260078,13.0060547 Z M9,14.8795664 C8.41858594,14.8795664 7.9453125,14.406293 7.9453125,13.8248789 C7.9453125,13.2434648 8.41858594,12.7701914 9,12.7701914 C9.58141406,12.7701914 10.0546875,13.2434648 10.0546875,13.8248789 C10.0546875,14.406293 9.58141406,14.8795664 9,14.8795664 Z M10.0546875,10.6608164 C10.0546875,11.2422305 9.58141406,11.7155039 9,11.7155039 C8.41858594,11.7155039 7.9453125,11.2422305 7.9453125,10.6608164 L7.9453125,5.38737891 C7.9453125,4.80596484 8.41858594,4.33269141 9,4.33269141 C9.58141406,4.33269141 10.0546875,4.80596484 10.0546875,5.38737891 L10.0546875,10.6608164 Z" id="Shape"></path>
            </g>
        </g>
    </g>
</svg>