<?xml version="1.0" encoding="UTF-8"?>
<svg width="25px" height="25px" viewBox="0 0 25 25" version="1.1" xmlns="http://www.w3.org/2000/svg" xmlns:xlink="http://www.w3.org/1999/xlink">
    <title>Popups/Components/Timeline/Current Step/Default</title>
    <defs>
        <filter id="filter-1">
            <feColorMatrix in="SourceGraphic" type="matrix" values="0 0 0 0 1.000000 0 0 0 0 1.000000 0 0 0 0 1.000000 0 0 0 1.000000 0"></feColorMatrix>
        </filter>
    </defs>
    <g id="Duel-Details" stroke="none" stroke-width="1" fill="none" fill-rule="evenodd">
        <g id="Gamer-Arena--Duel-Detail---Progress-Blank-360px" transform="translate(-30.000000, -270.000000)">
            <g id="Group-4" transform="translate(30.000000, 138.000000)">
                <g id="Popups/Components/Timeline/Current-Step/Default" transform="translate(0.000000, 132.000000)">
                    <circle fill="#EEB502" cx="12.5" cy="12.5" r="12.5"></circle>
                    <g id="Icons/Arena/Filled/Primary" transform="translate(2.000000, 1.500000)">
                        <rect id="Rectangle" x="0" y="0" width="20" height="20"></rect>
                        <g filter="url(#filter-1)" id="arena">
                            <g transform="translate(2.500000, 2.916667)">
                                <path d="M7.50005859,11.7857143 C7.00368465,11.7857143 6.6,12.1834633 6.6,12.6724234 L6.6,14.8316985 C6.89646506,14.8417432 7.19691425,14.8469388 7.50005859,14.8469388 C7.80296855,14.8469388 8.10341774,14.8418587 8.4,14.8316985 L8.4,12.6724234 C8.4,12.1834633 7.99631532,11.7857143 7.50005859,11.7857143 Z" id="Path" fill="#000000" fill-rule="nonzero"></path>
                                <path d="M7.2,8.45441694 C5.90600846,8.43236739 4.67199171,8.31438497 3.6,8.1122449 L3.6,14.5642197 C4.29459207,14.6946699 5.05764375,14.7900256 5.86160849,14.8469388 L5.86160849,12.734569 C5.86160849,11.9100775 6.43113679,11.2152281 7.2,11.0175903 L7.2,8.45441694 Z" id="Path" fill="#000000" fill-rule="nonzero"></path>
                                <path d="M11.3751931,8.1122449 C10.3106888,8.31450044 9.08511264,8.43259829 7.8,8.45464784 L7.8,11.0173594 C8.56405245,11.21442 9.13011122,11.9097312 9.13011122,12.7347999 L9.13011122,14.8469388 C9.93754689,14.7893329 10.7037916,14.692361 11.4,14.5594865 C11.3841928,14.5138867 11.3751931,14.4651699 11.3751931,14.4142597 L11.3751931,8.1122449 Z" id="Path" fill="#000000" fill-rule="nonzero"></path>
                                <path d="M14.9896826,6.2755102 C14.9382127,6.6500576 14.6837944,6.99122949 14.2304138,7.29149317 C13.8260411,7.55930848 13.260693,7.79641365 12.5500803,7.99608729 C12.4683616,8.01903296 12.384767,8.04139918 12.3,8.06318598 L12.3,14.5408163 C12.3672977,14.5235491 12.4340093,14.5060502 12.4994311,14.4880876 C14.101446,14.0472528 14.9424334,13.4397721 14.9988276,12.6823335 C14.999531,12.671556 15,12.6606626 15,12.6497692 C15,12.6497692 14.9963654,6.30587263 14.9896826,6.2755102 L14.9896826,6.2755102 Z" id="Path" fill="#000000" fill-rule="nonzero"></path>
                                <path d="M0.769118602,7.29615141 C0.313904446,6.9946957 0.0594063346,6.65189552 0.00960810892,6.2755102 C0.00433536549,6.30307321 0.00105454869,8.46109298 0.000703033457,9.4839346 C0.000351518228,10.506892 0,11.5298495 0,12.6083961 C0,13.0397916 0.258130459,13.4299584 0.767126682,13.7681262 C1.17066789,14.0361126 1.73496941,14.2730616 2.44456451,14.4723721 C2.52810831,14.4958817 2.61329254,14.5185806 2.7,14.5408163 L2.7,8.06779926 C2.61469861,8.04579521 2.53068612,8.02344369 2.44843119,8.00028151 C1.73825023,7.80073937 1.17324566,7.56390615 0.769118602,7.29615141 Z" id="Path" fill="#000000" fill-rule="nonzero"></path>
                                <path d="M1.11914441,6.2755102 C2.41986519,5.58969076 4.80626913,5.1717191 7.50079856,5.1717191 C10.1817527,5.1717191 12.5804771,5.59061318 13.881426,6.27504899 C14.0333783,6.14879272 14.1,6.03948592 14.1,5.96338625 C14.1,5.78535915 13.735748,5.42607647 12.765398,5.09066142 C12.7794296,5.04730767 12.787301,3.28929001 12.787301,3.28929001 L13.5979414,3.28929001 C13.7064299,3.28929001 13.8081877,3.23025511 13.8716152,3.13063373 C13.9350428,3.03101234 13.9522686,2.90291122 13.9180451,2.78634039 L13.7286751,2.14295225 L13.917931,1.49956417 C13.9522686,1.38299331 13.9350428,1.25489219 13.8716152,1.1552708 C13.8081877,1.05564942 13.7064299,0.996614525 13.5979414,0.996614525 L12.2483951,0.996614525 C12.0621053,0.996614525 11.9110656,1.16760818 11.9110656,1.37872712 L11.9110656,4.84425992 C10.6787918,4.54643348 9.13428573,4.38408752 7.50079856,4.38397223 L7.50079856,2.445852 L8.31839773,2.445852 C8.42688617,2.445852 8.52864402,2.38681711 8.59207155,2.28719572 C8.65549908,2.18757434 8.67272491,2.05935792 8.63850142,1.94290239 L8.44913145,1.29951427 L8.63850142,0.65601084 C8.67272491,0.539440006 8.65549908,0.411338889 8.59207155,0.311717504 C8.52864402,0.212096119 8.42688617,0.153061224 8.31839773,0.153061224 L6.96885144,0.153061224 C6.78256158,0.153061224 6.63152192,0.324170177 6.63152192,0.53517379 L6.62456315,4.39976867 C5.12135338,4.45419146 3.73290639,4.64847621 2.64699509,4.96048487 C2.49082187,5.00545284 2.34685507,5.05122794 2.21429608,5.09757957 L2.21429608,3.9415564 L3.02493648,3.9415564 C3.13342495,3.9415564 3.2351828,3.88252151 3.29861033,3.78278483 C3.36203787,3.68316344 3.3792637,3.55506233 3.34504018,3.43849149 L3.15567023,2.79510335 L3.34504018,2.15171527 C3.3792637,2.03514441 3.36203787,1.90704329 3.29861033,1.80742191 C3.2351828,1.70780052 3.13342495,1.64876563 3.02493648,1.64876563 L1.67550429,1.64876563 C1.48910034,1.64876563 1.33806067,1.81987458 1.33806067,2.03087822 L1.33806067,2.27578076 L1.33806067,5.4869562 C1.33806067,5.48995408 1.33840291,5.49272134 1.33851698,5.4957192 C1.02925073,5.6870061 0.9,5.85730793 0.9,5.96338625 C0.9,6.03960122 0.966849898,6.14902331 1.11914441,6.2755102 Z" id="Path" fill="#000000" fill-rule="nonzero"></path>
                                <path d="M2.1,7.0392717 C2.25638383,7.0976113 2.42939202,7.15559444 2.62085904,7.21203292 C3.92145883,7.59510185 5.65360461,7.80612245 7.49822291,7.80612245 C9.34284121,7.80612245 11.074987,7.59510185 12.3755868,7.21203292 C12.5684296,7.15511914 12.742699,7.09677957 12.9,7.0379647 C11.6363178,6.56471297 9.64712471,6.2755102 7.49902547,6.2755102 C5.37374177,6.2755102 3.36517267,6.5695845 2.1,7.0392717 Z" id="Path" fill="#000000" fill-rule="nonzero"></path>
                            </g>
                        </g>
                    </g>
                </g>
            </g>
        </g>
    </g>
</svg>
