<?xml version="1.0" encoding="UTF-8"?>
<svg width="25px" height="25px" viewBox="0 0 25 25" version="1.1" xmlns="http://www.w3.org/2000/svg" xmlns:xlink="http://www.w3.org/1999/xlink">
    <title>Popups/Components/Timeline/Current Step/Default</title>
    <g id="Duel-Details" stroke="none" stroke-width="1" fill="none" fill-rule="evenodd" opacity="0.253952753">
        <g id="Gamer-Arena--Duel-Detail---Progress-Blank-360px" transform="translate(-30.000000, -204.000000)">
            <g id="Group-4" transform="translate(30.000000, 138.000000)">
                <g id="Popups/Components/Timeline/Current-Step/Default" transform="translate(0.000000, 66.000000)">
                    <circle fill="#4F515C" cx="12.5" cy="12.5" r="12.5"></circle>
                    <g id="Icons/Swords/Primary" transform="translate(3.000000, 3.000000)">
                        <rect id="Rectangle" x="0" y="0" width="19" height="19"></rect>
                        <g id="Sword" transform="translate(3.166667, 3.166667)" fill="#FFFFFF" fill-rule="nonzero">
                            <path d="M12.2738829,10.3773795 L10.5631714,8.66666667 L8.66666667,10.5631484 L10.3774026,12.2738857 C10.9011102,12.7975937 11.7501997,12.7975937 12.2739073,12.2738857 C12.7975905,11.7501777 12.7975905,10.9010875 12.2738829,10.3773795 L12.2738829,10.3773795 Z" id="Path"></path>
                            <path d="M5.94758536,10 C6.03608839,10 6.12463753,9.96621754 6.19215625,9.89867568 C6.32723981,9.76359196 6.32723981,9.544594 6.19215625,9.40951028 L5.78575258,9.00310614 L12.5397232,3.48113832 C12.6200631,3.41544124 12.6666667,3.31713774 12.6666667,3.21334603 L12.6666667,0.345895489 C12.6666667,0.15486894 12.5117979,0 12.3207716,0 L9.45327822,0 C9.34948663,0 9.25118325,0.0466036522 9.18548624,0.126943644 L3.66354785,6.88089896 L3.25714417,6.47449482 C3.12208367,6.33943416 2.9030629,6.3394111 2.76797934,6.47449482 C2.63289578,6.60957854 2.63289578,6.8285765 2.76797934,6.96366022 L5.70299142,9.89867568 C5.7705332,9.9662406 5.85903622,10 5.94758536,10 Z M10.51317,1.66433379 C10.6482305,1.52925008 10.8672512,1.52925008 11.0023348,1.66433379 C11.1374184,1.79941751 11.1374184,2.01841548 11.0023348,2.15349919 L4.96923263,8.18660831 L4.4800678,7.69744291 L10.51317,1.66433379 Z" id="Shape"></path>
                            <path d="M2.28928717,12.2738829 L4,10.5631714 L2.10351822,8.66666667 L0.392781003,10.3774026 C-0.130927001,10.9011102 -0.130927001,11.7501997 0.392781003,12.2739073 C0.916489006,12.7975905 1.76557916,12.7975905 2.28928717,12.2738829 L2.28928717,12.2738829 Z" id="Path"></path>
                            <path d="M0.124078183,4.05948741 L2.79693185,6.66666667 L3.83727276,5.14853029 L1.62676528,2.51126044 C1.49473076,2.35376213 1.49473076,2.0983551 1.62676528,1.9408299 C1.75879979,1.78330469 1.97285438,1.78330469 2.10488889,1.9408299 L4.267433,4.52087653 L5.33333333,2.96546977 L3.40258214,0.148032817 C3.33836802,0.0543459262 3.2422835,0 3.14083465,0 L0.338087691,0 C0.151373129,0 0,0.180597348 0,0.403359175 L0,3.74723363 C0,3.86826827 0.0455516816,3.98287606 0.124078183,4.05948741 Z" id="Path"></path>
                            <path d="M10.0154169,6.77840512 L9.56719463,7.22663055 L9.39537272,7.01648037 L8.38336302,7.84388153 L8.66665554,8.12717608 L8.1271561,8.66667938 L7.7897178,8.32923867 L6.75108029,9.1784102 L7.22661701,9.56719948 L6.77839478,10.0154249 C6.62943668,10.1643841 6.62941125,10.4059436 6.77839478,10.5549282 C6.92737832,10.7039128 7.16891069,10.7039128 7.31789422,10.5549282 L10.5549163,7.31788298 C10.6294081,7.24339068 10.6666667,7.14578008 10.6666667,7.04814405 C10.6666667,6.95053345 10.6294081,6.85287198 10.5549163,6.77840512 C10.4059328,6.62942052 10.1644004,6.62942052 10.0154169,6.77840512 L10.0154169,6.77840512 Z" id="Path"></path>
                        </g>
                    </g>
                </g>
            </g>
        </g>
    </g>
</svg>