<?xml version="1.0" encoding="UTF-8"?>
<svg width="25px" height="25px" viewBox="0 0 25 25" version="1.1" xmlns="http://www.w3.org/2000/svg" xmlns:xlink="http://www.w3.org/1999/xlink">
    <title>Popups/Components/Timeline/Current Step/Default</title>
    <g id="Duel-Details" stroke="none" stroke-width="1" fill="none" fill-rule="evenodd" opacity="0.253952753">
        <g id="Gamer-Arena--Duel-Detail---Progress-Blank-360px" transform="translate(-30.000000, -547.000000)">
            <g id="Group-4" transform="translate(30.000000, 138.000000)">
                <g id="Popups/Components/Timeline/Current-Step/Default" transform="translate(0.000000, 409.000000)">
                    <circle fill="#4F515C" cx="12.5" cy="12.5" r="12.5"></circle>
                    <g id="Icons/Cup/Primary" transform="translate(3.000000, 4.000000)">
                        <rect id="Rectangle" x="0" y="0" width="19" height="19"></rect>
                        <path d="M5.34375,2.375 C5.34375,8.19553125 8.37484375,9.53146875 8.671125,11.875 L10.3365937,11.875 C10.6316875,9.53146875 13.65625,8.19553125 13.65625,2.375 L5.34375,2.375 Z M9.5035625,11.055625 C9.2613125,10.4630625 8.92821875,9.89246875 8.5844375,9.30228125 C7.740125,7.85471875 6.79665625,6.23734375 6.57815625,3.5625 L12.4218437,3.5625 C12.2033437,6.2379375 11.26225,7.8553125 10.4197187,9.30346875 C10.077125,9.8930625 9.74521875,10.4636562 9.5035625,11.055625 Z M9.5,9.23103125 C8.83203125,7.70925 8.40215625,5.906625 8.39740625,4.15625 L7.57625,4.15625 C7.7983125,6.0075625 8.67884375,8.32615625 9.5,9.23103125 L9.5,9.23103125 Z M16.625,3.5625 C16.404125,5.99984375 14.95775,8.36653125 12.5441563,9.1663125 C12.7205,8.8385625 12.8980313,8.48646875 13.0678438,8.10765625 C14.798625,7.2045625 15.4648125,5.58421875 15.7183437,4.396125 L14.1223438,4.396125 C14.157375,4.1289375 14.1835,3.8486875 14.204875,3.56190625 L16.625,3.56190625 L16.625,3.5625 Z M2.375,3.5625 C2.595875,5.99984375 4.04225,8.36653125 6.45584375,9.1663125 C6.2795,8.8385625 6.10196875,8.48646875 5.93215625,8.10765625 C4.201375,7.2045625 3.5351875,5.58421875 3.28165625,4.396125 L4.87765625,4.396125 C4.84321875,4.12953125 4.81709375,3.8486875 4.79571875,3.5625 L2.375,3.5625 Z M10.3538125,12.46875 L8.652125,12.46875 C8.5321875,13.1735312 7.6843125,14.0237812 6.53184375,14.0237812 L6.53184375,16.625 L12.4693438,16.625 L12.4693438,14.0237812 C11.2824375,14.0237812 10.4678125,13.1735312 10.3538125,12.46875 Z M11.875,16.03125 L7.125,16.03125 L7.125,14.84375 L11.875,14.84375 L11.875,16.03125 Z" id="Shape" fill="#FFFFFF" fill-rule="nonzero"></path>
                    </g>
                </g>
            </g>
        </g>
    </g>
</svg>