<?xml version="1.0" encoding="UTF-8"?>
<svg width="25px" height="25px" viewBox="0 0 25 25" version="1.1" xmlns="http://www.w3.org/2000/svg" xmlns:xlink="http://www.w3.org/1999/xlink">
    <title>Popups/Components/Timeline/Current Step/Default</title>
    <g id="Duel-Details" stroke="none" stroke-width="1" fill="none" fill-rule="evenodd" opacity="0.253952753">
        <g id="Gamer-Arena--Duel-Detail---Progress-Blank-360px" transform="translate(-30.000000, -468.000000)">
            <g id="Group-4" transform="translate(30.000000, 138.000000)">
                <g id="6th-Step" transform="translate(0.000000, 326.000000)">
                    <g id="Popups/Components/Timeline/Current-Step/Default" transform="translate(0.000000, 4.000000)">
                        <circle fill="#4F515C" cx="12.5" cy="12.5" r="12.5"></circle>
                        <g id="Icons/Hands/Primary" transform="translate(1.000000, 0.000000)">
                            <rect id="Rectangle" x="0" y="0" width="24" height="24"></rect>
                            <rect id="Rectangle" x="3" y="3" width="18" height="18"></rect>
                            <path d="M18.385605,14.6594327 L19.4802083,13.5536118 C20.1732006,12.8537189 20.1733227,11.7147283 19.4803303,11.0144655 C19.2676841,10.7997873 19.0123133,10.6489823 18.7394864,10.5653799 C18.9626307,10.2592076 19.0833581,9.89064174 19.0833581,9.50333316 C19.0833581,9.02379064 18.8984218,8.57285541 18.5626067,8.23376004 C18.2270358,7.89466464 17.7806252,7.70785393 17.3057722,7.70785393 C17.2858748,7.70785393 17.2659773,7.70822383 17.2460799,7.70884039 C17.2615828,7.22954447 17.0887314,6.74494632 16.7272817,6.37970977 C16.3658318,6.01471983 15.8854857,5.8398699 15.4117313,5.85577655 C15.4123417,5.83580077 15.4127079,5.81557835 15.4127079,5.79547923 C15.4127079,5.31581341 15.2277716,4.86500151 14.8920786,4.52590611 C14.1992083,3.82601323 13.0716461,3.82588993 12.3784096,4.52590611 L11.999992,4.90815909 L11.6216965,4.52602941 C11.2860036,4.18681074 10.8395929,4 10.3647399,4 C9.89000903,4 9.44372046,4.18681074 9.10802746,4.52578281 C8.74645562,4.89101935 8.57397047,5.3757408 8.58971751,5.85540665 C8.569698,5.85466679 8.54967849,5.85392696 8.52965899,5.85392696 C8.05492805,5.85392696 7.60851742,6.04061437 7.2725803,6.37970977 C6.91113052,6.74506965 6.73864537,7.22979106 6.75439241,7.70933359 C6.73425084,7.70859376 6.71423133,7.70785393 6.69408976,7.70785393 C6.21935882,7.70785393 5.7729482,7.89466464 5.43749935,8.23363674 C5.10168429,8.57273211 4.916748,9.02366731 4.916748,9.50333316 C4.916748,9.89051844 5.0373533,10.2590843 5.26061968,10.5651333 C4.98376452,10.6494756 4.72998061,10.8021301 4.51965369,11.0144655 C3.82837028,11.713002 3.82678338,12.8484167 4.51501504,13.5486795 C4.51672401,13.5505291 4.51843301,13.5522554 4.52014197,13.554105 L5.61633215,14.6611589 C5.617797,14.6627619 5.6193839,14.6643649 5.62097084,14.6659679 C5.68676664,14.7325539 5.75707906,14.7928513 5.83080948,14.8474764 L5.50659109,15.1749809 C5.19128382,15.493484 5.03063947,15.9274028 5.05444316,16.3968341 C5.07714819,16.8475227 5.26916457,17.2768791 5.5948478,17.6058633 L7.44897173,19.4789029 C7.79296547,19.8262599 8.24462512,20 8.69640683,20 C9.14818857,20 9.59997029,19.8262599 9.94384196,19.4789029 L10.8056574,18.6082293 C11.1988454,18.6934347 11.5993577,18.7367156 12.0002361,18.7367156 C12.4007484,18.7367156 12.8013827,18.6936813 13.1944487,18.6084759 L14.05602,19.4789029 C14.4000137,19.8262599 14.8516734,20 15.3034551,20 C15.7551147,20 16.2070185,19.8262599 16.5508902,19.4789029 L18.4051362,17.6058633 C19.0928796,16.9111493 19.1710045,15.8595837 18.5792083,15.261666 L18.1843113,14.8627666 L18.3791352,14.6658446 C18.3813325,14.6637484 18.3834077,14.6616522 18.385605,14.6594327 Z M9.78637142,5.21112543 C9.94091228,5.05501823 10.1463564,4.96907297 10.364862,4.96907297 C10.5833676,4.96907297 10.7888117,5.05501823 10.9433526,5.21112543 L12.4114906,6.69414366 C12.7304599,7.01646926 12.7304599,7.54077238 12.4114906,7.86297464 C12.2569497,8.01908181 12.0515056,8.1050271 11.8331221,8.1050271 L11.833,8.1050271 C11.6144944,8.10490377 11.4091724,8.01908181 11.2546315,7.86297464 C11.2543874,7.86272804 11.2541432,7.86248141 11.2540212,7.86235811 L9.78673764,6.380203 C9.78551695,6.37896991 9.7844183,6.37773686 9.78307555,6.37662707 C9.46740206,6.05393157 9.46850072,5.5320946 9.78637142,5.21112543 Z M7.94884907,8.23154049 C7.63207696,7.90909163 7.6328094,7.3863915 7.95092429,7.06505236 C8.10558718,6.90894519 8.31115336,6.82299993 8.52965899,6.82299993 C8.74792046,6.82299993 8.95312042,6.90882189 9.10766124,7.06480576 C9.10778334,7.06480576 9.1079054,7.06492906 9.1079054,7.06505236 C9.10851574,7.06554559 9.10900402,7.06603882 9.10949231,7.06653205 L10.5759214,8.547824 C10.5767758,8.54881046 10.5778745,8.54979691 10.578851,8.55078337 L10.9432305,8.91885603 C11.0977713,9.0749632 11.1829763,9.28248958 11.1829763,9.50333316 C11.1829763,9.72405342 11.0978934,9.9315798 10.9433526,10.0875637 C10.7888117,10.2436709 10.5833676,10.3296161 10.364862,10.3296161 C10.1463564,10.3296161 9.94091228,10.2436709 9.78649352,10.0875637 C9.78454039,10.0855908 9.78258727,10.0837411 9.78063415,10.0818915 L9.42089333,9.71838129 C9.42040505,9.71788806 9.41991677,9.71739483 9.41942849,9.71677827 L7.95104635,8.23376004 C7.95104635,8.23376004 7.95092429,8.23363674 7.95092429,8.23363674 C7.95019185,8.23289688 7.94945942,8.23215702 7.94884907,8.23154049 Z M6.11596541,8.91885603 C6.27038417,8.76287212 6.47570619,8.67692687 6.69421182,8.67692687 C6.91271742,8.67692687 7.11816153,8.76287212 7.27270236,8.91897933 L8.74254937,10.4037239 C9.05993183,10.7260495 9.05932149,11.2491195 8.74108453,11.5708286 C8.58654367,11.7268124 8.3809775,11.8127577 8.1624719,11.8127577 C7.94396627,11.8127577 7.73852215,11.7268124 7.58410339,11.5707052 C7.58215027,11.5688556 7.5803192,11.5668827 7.57836608,11.5650331 L6.120482,10.0923727 C6.11889509,10.0907697 6.11730815,10.0890434 6.11584331,10.0875637 C5.96130249,9.9314565 5.87621942,9.72405342 5.87621942,9.50333316 C5.87609749,9.28261288 5.96130249,9.07508653 6.11596541,8.91885603 Z M5.20300255,12.873448 C5.20117149,12.8714751 5.19934043,12.8696255 5.19750937,12.8677759 C4.87915035,12.5455737 4.87939451,12.0217638 5.19811975,11.6998081 C5.35266057,11.5437009 5.55810469,11.4577556 5.77661029,11.4577556 C5.99511592,11.4577556 6.20068209,11.5437009 6.35522295,11.6999314 L7.45629591,12.812041 C7.7752653,13.1342432 7.7752653,13.6585464 7.456418,13.9807487 C7.30187714,14.1368558 7.09643306,14.2228011 6.87804949,14.2228011 L6.87792743,14.2228011 C6.83776635,14.2228011 6.79809352,14.2198417 6.75903106,14.2141696 C6.75610138,14.213553 6.75317169,14.2131831 6.75024201,14.2126899 C6.5817852,14.1861788 6.42626778,14.1075086 6.30285482,13.9843246 C6.30163414,13.9829682 6.30029136,13.9817351 6.29907064,13.9803787 L5.20300255,12.873448 Z M10.7796565,17.6063565 C10.7755061,17.6052467 10.7714778,17.6047535 10.7674494,17.603767 C10.7578059,17.6014242 10.7482844,17.5992047 10.7386409,17.5974784 C10.7315608,17.5962453 10.7244807,17.5953821 10.7172786,17.5943957 C10.709344,17.5934092 10.7014095,17.5924228 10.6933528,17.5918062 C10.68493,17.5910664 10.6765072,17.5906964 10.6680843,17.5905731 C10.6612484,17.5903265 10.6545345,17.5902032 10.6476986,17.5903265 C10.6386654,17.5904498 10.6297543,17.5909431 10.6208432,17.5916829 C10.6143734,17.5921762 10.6079037,17.5926694 10.601434,17.5934092 C10.592645,17.5943957 10.583978,17.5957521 10.575311,17.5972318 C10.568475,17.5983415 10.5617612,17.5996979 10.5549252,17.6011776 C10.5469907,17.6029039 10.5391782,17.6047535 10.5313657,17.6069731 C10.5239194,17.608946 10.5164732,17.6111655 10.5090269,17.6135083 C10.5020689,17.6158512 10.495355,17.6183173 10.4885191,17.6207835 C10.4805845,17.6238662 10.47265,17.6269488 10.4649595,17.6304014 C10.458734,17.6331142 10.4525084,17.6360736 10.4464049,17.639033 C10.4385924,17.6428555 10.430902,17.6468013 10.4233336,17.6511171 C10.417108,17.6545697 10.4110045,17.6582689 10.404901,17.6620914 C10.3980651,17.6664072 10.3911071,17.670723 10.3843932,17.6754086 C10.3775573,17.6802176 10.3708435,17.6852732 10.3642517,17.6904522 C10.3587585,17.6946446 10.3533874,17.6988371 10.3480163,17.7032761 C10.3402038,17.7099347 10.3327576,17.7168399 10.3254333,17.7239918 C10.3226257,17.7267045 10.319574,17.7290474 10.3167664,17.7318835 L9.26562007,18.7936836 C8.95177764,19.1107069 8.44128018,19.1107069 8.12743775,18.7936836 L6.27331386,16.9207673 C6.11584331,16.7617007 6.02319207,16.5581202 6.01257196,16.3473878 C6.00292841,16.1553982 6.06408556,15.9823979 6.18505711,15.8603235 L6.8474099,15.1911342 C6.8575417,15.1912575 6.86767353,15.191874 6.87792743,15.191874 C6.87792743,15.191874 6.87792743,15.191874 6.87804949,15.191874 C7.35265833,15.191874 7.7989469,15.0050633 8.13476196,14.6659679 C8.64855532,14.1468437 8.78100149,13.3865302 8.53271073,12.7426189 C8.86620645,12.6715938 9.17272467,12.5051288 9.41955055,12.2560479 C9.70141058,11.9710844 9.86864674,11.6133696 9.92101483,11.2422143 C10.0643252,11.2793298 10.2131288,11.2986891 10.364862,11.2986891 C10.364862,11.2986891 10.364862,11.2986891 10.3649841,11.2986891 C10.8395929,11.2986891 11.2858815,11.1120017 11.6216965,10.7729063 C11.9573895,10.4338109 12.1423258,9.98287569 12.1423258,9.50333316 C12.1423258,9.35030867 12.1232829,9.20024353 12.0867839,9.05572724 C12.4652015,9.00147198 12.8148104,8.82612885 13.0898345,8.54807063 C13.7828269,7.84817775 13.7828269,6.70918718 13.0899566,6.00904767 L12.678336,5.59325508 L13.0567535,5.21112543 C13.375845,4.88892313 13.8948874,4.88892313 14.2137347,5.2110021 C14.3682755,5.3671093 14.4533584,5.57463565 14.4533584,5.79535594 C14.4533584,6.01607622 14.3682755,6.22360257 14.2137347,6.37970977 C14.1201068,6.47428654 14.0732319,6.59833381 14.0732319,6.72238108 C14.0732319,6.84630503 14.1199848,6.97035227 14.2137347,7.06492906 C14.4011124,7.25420595 14.7047009,7.25420595 14.8920786,7.06492906 C15.2109259,6.7428501 15.7299683,6.7427268 16.0490597,7.06492906 C16.3680291,7.38725465 16.3679071,7.91155774 16.0489377,8.23376004 C15.9553098,8.32833683 15.9084349,8.45238407 15.9084349,8.57630802 C15.9084349,8.70035529 15.9551878,8.82427923 16.0489377,8.91885603 C16.2363154,9.10813288 16.5399039,9.10813288 16.7272817,8.91897933 C16.8818225,8.76287212 17.0873887,8.67692687 17.3058943,8.67680357 C17.5243999,8.67680357 17.729844,8.76274882 17.8842628,8.91885603 C18.0389257,9.07508653 18.1240086,9.28261288 18.1240086,9.50333316 C18.1240086,9.72109404 18.0411229,9.92603098 17.8904884,10.081275 C17.8882911,10.0834945 17.8860938,10.0855908 17.8840186,10.0878103 L17.1961532,10.7827709 C17.0248887,10.9557712 17.0081651,11.2306234 17.1572128,11.4234762 L17.181871,11.4554128 C17.3305524,11.6478957 17.5978861,11.6984517 17.8054054,11.5735413 C18.1270603,11.3799487 18.5368499,11.4318611 18.8019863,11.6995615 C19.1209557,12.0218871 19.1209557,12.5461902 18.8019863,12.8683925 L17.7010354,13.9803787 C17.6989603,13.9825982 17.696763,13.9848178 17.6946878,13.9870373 L15.3315312,16.3741455 C14.1458636,17.5718304 12.401725,18.0439745 10.7796565,17.6063565 Z M17.9009864,15.9468853 C18.1113133,16.1594673 18.0300146,16.614595 17.7269143,16.9207673 L15.8726683,18.7936836 C15.5588259,19.1107069 15.0483284,19.1107069 14.734486,18.7936836 L14.2242327,18.2782586 C14.88744,17.9923087 15.4948612,17.5795988 16.0098752,17.0593648 L17.5059673,15.5479859 L17.9009864,15.9468853 Z" id="Shape" stroke="#FFFFFF" stroke-width="0.3" fill="#FFFFFF" fill-rule="nonzero"></path>
                        </g>
                    </g>
                </g>
            </g>
        </g>
    </g>
</svg>