<?xml version="1.0" encoding="UTF-8"?>
<svg width="61px" height="40px" viewBox="0 0 61 40" version="1.1" xmlns="http://www.w3.org/2000/svg" xmlns:xlink="http://www.w3.org/1999/xlink">
    <title>credit-card-2</title>
    <defs>
        <filter id="filter-1">
            <feColorMatrix in="SourceGraphic" type="matrix" values="0 0 0 0 1.000000 0 0 0 0 1.000000 0 0 0 0 1.000000 0 0 0 1.000000 0"></feColorMatrix>
        </filter>
    </defs>
    <g id="Wallet" stroke="none" stroke-width="1" fill="none" fill-rule="evenodd">
        <g id="3-Gamer-Arena--Deposit---360px" transform="translate(-70.000000, -740.000000)">
            <g id="Group-4" transform="translate(13.913043, 635.000000)">
                <g id="Default-Method" transform="translate(0.000000, 86.000000)">
                    <g id="credit-card-2" transform="translate(13.913043, 16.000000)" filter="url(#filter-1)">
                        <g transform="translate(43.000000, 3.000000)">
                            <path d="M58.7500757,15.1515152 L1.2500415,15.1515152 C0.500040039,15.1515152 0,15.6485245 0,16.3939802 L0,33.7879079 C0,37.26674 2.75004443,40 6.24997314,40 L53.7500268,40 C57.2500727,40 60,37.2666236 60,33.7879079 L60,16.3939802 C60,15.6485245 59.5000771,15.1515152 58.7500757,15.1515152 Z M8.75005615,25.0910023 L18.7500366,25.0910023 C19.5000381,25.0910023 20.0000781,25.5880116 20.0000781,26.3334673 C20.0000781,27.078923 19.5000381,27.5759323 18.7500366,27.5759323 L8.75005615,27.5759323 C8.00005468,27.5758158 7.50001465,27.0788065 7.50001465,26.3333508 C7.50001465,25.5878951 8.00005468,25.0910023 8.75005615,25.0910023 Z M26.2500513,32.5455594 L8.75005615,32.5455594 C8.00005468,32.5455594 7.50001465,32.0485501 7.50001465,31.3030944 C7.50001465,30.5576387 8.00005468,30.0606294 8.75005615,30.0606294 L26.2500513,30.0606294 C27.0000527,30.0606294 27.5000928,30.5576387 27.5000928,31.3030944 C27.5000928,32.0485501 27.0000527,32.5455594 26.2500513,32.5455594 Z M47.5000537,32.5455594 C46.5000908,32.5455594 45.7500893,32.297113 45.0000879,31.8001037 C44.2500864,32.297113 43.5000849,32.5455594 42.5001221,32.5455594 C39.7500776,32.5455594 37.5000732,30.3091922 37.5000732,27.5758158 C37.5000732,24.8424394 39.7500776,22.6060723 42.5001221,22.6060723 C43.5000849,22.6060723 44.2500864,22.8545187 45.0000879,23.351528 C45.7500893,22.8545187 46.5000908,22.6060723 47.5000537,22.6060723 C50.2500981,22.6060723 52.5001025,24.8424394 52.5001025,27.5758158 C52.5001025,30.3091922 50.2500981,32.5455594 47.5000537,32.5455594 Z" id="Shape" fill="#000000" fill-rule="nonzero"></path>
                            <path d="M53.7499341,0 L6.24994873,0 C2.75003369,0 0,2.83335144 0,6.43942412 L0,9.01512133 C0,9.78784257 0.500038086,10.3030303 1.25003662,10.3030303 L58.7499634,10.3030303 C59.4999619,10.3030303 60,9.78784257 60,9.01512133 L60,6.43942412 C60,2.83335144 57.2498491,0 53.7499341,0 Z" id="Path" fill="#000000" fill-rule="nonzero"></path>
                        </g>
                    </g>
                </g>
            </g>
        </g>
    </g>
</svg>