<svg width="512" height="512" viewBox="0 0 512 512" fill="none" xmlns="http://www.w3.org/2000/svg">
    <path d="M349.837 319.667H447.667C459.449 319.667 469 310.116 469 298.334C469 286.551 459.449 277 447.667 277H298.333H298.332C297.63 277 296.927 277.037 296.228 277.106C295.912 277.137 295.606 277.196 295.295 277.241C294.918 277.295 294.54 277.339 294.165 277.413C293.807 277.484 293.46 277.582 293.109 277.671C292.786 277.752 292.461 277.823 292.141 277.92C291.796 278.024 291.463 278.154 291.126 278.275C290.807 278.39 290.485 278.495 290.17 278.625C289.855 278.756 289.552 278.909 289.245 279.055C288.922 279.207 288.595 279.351 288.278 279.521C287.983 279.679 287.703 279.859 287.416 280.03C287.106 280.215 286.791 280.39 286.488 280.593C286.171 280.805 285.873 281.041 285.568 281.269C285.316 281.458 285.057 281.633 284.812 281.835C283.725 282.727 282.727 283.725 281.835 284.812C281.633 285.057 281.458 285.316 281.269 285.569C281.041 285.874 280.805 286.172 280.593 286.489C280.39 286.792 280.215 287.106 280.029 287.417C279.858 287.703 279.678 287.984 279.52 288.279C279.35 288.596 279.207 288.922 279.054 289.246C278.909 289.553 278.755 289.856 278.624 290.171C278.494 290.486 278.389 290.807 278.274 291.127C278.153 291.464 278.024 291.797 277.919 292.142C277.822 292.462 277.751 292.787 277.67 293.11C277.581 293.461 277.483 293.808 277.412 294.166C277.338 294.541 277.294 294.919 277.24 295.296C277.196 295.607 277.136 295.914 277.105 296.229C277.037 296.928 277 297.63 277 298.333V447.666C277 459.449 286.551 469 298.333 469C310.115 469 319.666 459.449 319.666 447.667V349.837L475.248 505.419C483.579 513.75 497.087 513.75 505.418 505.419C513.749 497.088 513.749 483.58 505.418 475.249L349.837 319.667Z"/>
    <path d="M217.501 234.253C217.859 234.182 218.205 234.084 218.556 233.995C218.88 233.914 219.205 233.843 219.525 233.746C219.869 233.642 220.202 233.513 220.538 233.392C220.858 233.277 221.18 233.172 221.495 233.042C221.809 232.912 222.11 232.759 222.416 232.614C222.741 232.461 223.069 232.317 223.387 232.146C223.68 231.989 223.959 231.81 224.244 231.64C224.556 231.454 224.872 231.277 225.176 231.074C225.491 230.863 225.787 230.629 226.089 230.403C226.344 230.212 226.605 230.035 226.853 229.832C227.388 229.393 227.903 228.929 228.393 228.44C228.401 228.433 228.409 228.426 228.416 228.419C228.423 228.412 228.43 228.403 228.437 228.396C228.925 227.906 229.389 227.392 229.829 226.856C230.033 226.608 230.209 226.347 230.4 226.092C230.626 225.79 230.861 225.494 231.071 225.179C231.275 224.875 231.451 224.559 231.637 224.247C231.807 223.962 231.986 223.683 232.143 223.39C232.313 223.072 232.458 222.744 232.611 222.419C232.756 222.113 232.908 221.812 233.039 221.498C233.169 221.183 233.275 220.861 233.389 220.541C233.51 220.204 233.639 219.872 233.743 219.528C233.84 219.208 233.911 218.882 233.992 218.559C234.081 218.208 234.179 217.861 234.25 217.504C234.324 217.129 234.368 216.751 234.423 216.374C234.467 216.063 234.527 215.757 234.558 215.441C234.627 214.74 234.664 214.037 234.664 213.334V63.9993C234.664 52.2173 225.113 42.6662 213.331 42.6662C201.549 42.6662 191.998 52.2173 191.998 63.9993V161.829L36.4183 6.24825C28.0873 -2.08275 14.5793 -2.08275 6.24825 6.24825C-2.08275 14.5793 -2.08275 28.0873 6.24825 36.4183L161.83 192H64.0003C52.2183 192 42.6673 201.551 42.6673 213.333C42.6673 225.115 52.2173 234.666 63.9993 234.666H213.332C214.035 234.666 214.737 234.629 215.437 234.56C215.752 234.529 216.058 234.47 216.37 234.425C216.748 234.371 217.126 234.327 217.501 234.253Z"/>
</svg>
