<?xml version="1.0" encoding="UTF-8"?>
<svg width="13px" height="16px" viewBox="0 0 13 16" version="1.1" xmlns="http://www.w3.org/2000/svg" xmlns:xlink="http://www.w3.org/1999/xlink">
    <title>medal (1)</title>
    <defs>
        <linearGradient x1="50%" y1="100%" x2="50%" y2="3.061617e-15%" id="linearGradient-1">
            <stop stop-color="#6E4021" offset="0%"></stop>
            <stop stop-color="#B3774F" offset="100%"></stop>
        </linearGradient>
    </defs>
    <g id="Symbols" stroke="none" stroke-width="1" fill="none" fill-rule="evenodd">
        <g id="Tags/User-Level-Tag/Bronze" transform="translate(0.000000, -2.000000)" fill-rule="nonzero">
            <g id="medal-(1)" transform="translate(0.000000, 2.000000)">
                <path d="M5.30441681,11.1564931 L2.18608345,10.1111111 L1.49807022,10.1790525 L0.0111470023,14.3202186 C-0.0362344352,14.4521091 0.0740199784,14.587003 0.217335602,14.5724258 L2.30162766,14.3608735 C2.35985317,14.3549767 2.41773863,14.3744984 2.45960357,14.4141645 L3.95793762,15.8344878 C4.06093746,15.932133 4.23376258,15.8927599 4.28110623,15.7608694 L5.77777778,11.5926366 L5.30441681,11.1564931 Z" id="Path" fill="#B3774F"></path>
                <path d="M5.49177135,11.5555556 L5.77777778,11.0156586 L1.72959329,10.1111111 L1.44444444,10.6494115 C2.59397304,11.1883693 3.98584243,11.5182946 5.49177135,11.5555556 L5.49177135,11.5555556 Z" id="Path" fill="#82D361"></path>
                <path d="M7.69551176,11.1564931 L10.8138724,10.1111111 L11.5018917,10.1790525 L12.9888657,14.3202186 C13.0362098,14.4521091 12.9259922,14.587003 12.7826753,14.5724258 L10.698365,14.3608735 C10.640139,14.3549767 10.582253,14.3744984 10.5404255,14.4141645 L9.04207832,15.8344878 C8.93907758,15.932133 8.76625095,15.8927599 8.71890688,15.7608694 L7.22222222,11.5926366 L7.69551176,11.1564931 Z" id="Path" fill="#B3774F"></path>
                <path d="M7.50822865,11.5555556 L7.22222222,11.0156586 L11.2704067,10.1111111 L11.5555556,10.6494115 C10.406027,11.1883693 9.01415757,11.5182946 7.50822865,11.5555556 Z" id="Path" fill="#82D361"></path>
                <path d="M6.50016551,13 C0.00028562573,13 -0.00510701247,6.49526205 0.00028562573,6.38303407 C0.171134209,2.82808718 3.01589093,0 6.50016551,0 C9.98212897,0 12.825415,2.82432575 12.9996952,6.37590906 C13.005333,6.49048793 12.9996952,13 6.50016551,13 Z" id="Path" fill="#CA7F4C"></path>
                <path d="M6.5,12.3069265 C3.02001055,12.3069265 0.17885737,9.41410131 0.0081839313,5.77777778 C0.00279792523,5.89257478 0,6.00811169 0,6.12431452 C0,9.92164242 2.91015701,13 6.5,13 C10.089843,13 13,9.92164242 13,6.12431452 C13,6.00807469 12.9972021,5.89257478 12.9918161,5.77777778 C12.8211426,9.41410131 9.97998945,12.3069265 6.5,12.3069265 Z" id="Path" fill="#B3774F"></path>
                <path d="M6.50001811,11.5555556 C1.43472153,11.5555556 1.43814655,6.4837109 1.4449274,6.37231212 C1.61206157,3.62164689 3.81141022,1.44444444 6.50001811,1.44444444 C9.188626,1.44444444 11.3879747,3.62164689 11.5551088,6.37231212 C11.5618897,6.4837109 11.5551088,11.5555556 6.50001811,11.5555556 Z" id="Path" fill="url(#linearGradient-1)"></path>
            </g>
        </g>
    </g>
</svg>