<?xml version="1.0" encoding="UTF-8"?>
<svg width="18px" height="22px" viewBox="0 0 18 22" version="1.1" xmlns="http://www.w3.org/2000/svg" xmlns:xlink="http://www.w3.org/1999/xlink">
    <title>medal (1)</title>
    <defs>
        <linearGradient x1="50%" y1="100%" x2="50%" y2="0.726617133%" id="linearGradient-1">
            <stop stop-color="#696969" offset="0%"></stop>
            <stop stop-color="#FFFFFF" offset="100%"></stop>
        </linearGradient>
    </defs>
    <g id="Arena-Pages" stroke="none" stroke-width="1" fill="none" fill-rule="evenodd">
        <g id="Gamer-Arena--Quick-Duel-Expanded-576px" transform="translate(-72.000000, -470.000000)" fill-rule="nonzero">
            <g id="Expanded-Ranking" transform="translate(0.000000, 145.000000)">
                <g id="Ranking-Levels" transform="translate(72.000000, 157.000000)">
                    <g id="medal-(1)" transform="translate(0.000000, 168.000000)">
                        <path d="M7.34457713,15.447452 L3.02688478,14 L2.07425107,14.0940727 L0.0154343109,19.8279949 C-0.0501707564,20.0106126 0.102489201,20.1973888 0.300926219,20.177205 L3.18686906,19.8842864 C3.26748901,19.8761216 3.3476381,19.9031517 3.40560494,19.9580739 L5.48022132,21.9246754 C5.62283648,22.0598764 5.8621328,22.0053599 5.92768555,21.8227422 L8,16.0513431 L7.34457713,15.447452 Z" id="Path" fill="#E5E5E5"></path>
                        <path d="M7.60399109,16 L8,15.2524504 L2.39482147,14 L2,14.745339 C3.59165498,15.4915882 5.51885874,15.9484079 7.60399109,16 L7.60399109,16 Z" id="Path" fill="#82D361"></path>
                        <path d="M10.655324,15.447452 L14.9730541,14 L15.9256962,14.0940727 L17.9845833,19.8279949 C18.0501366,20.0106126 17.8975277,20.1973888 17.6990889,20.177205 L14.8131208,19.8842864 C14.7325001,19.8761216 14.6523503,19.9031517 14.5944353,19.9580739 L12.5198007,21.9246754 C12.3771843,22.0598764 12.1378859,22.0053599 12.0723326,21.8227422 L10,16.0513431 L10.655324,15.447452 Z" id="Path" fill="#E5E5E5"></path>
                        <path d="M10.3960089,16 L10,15.2524504 L15.6051785,14 L16,14.745339 C14.408345,15.4915882 12.4811413,15.9484079 10.3960089,16 Z" id="Path" fill="#82D361"></path>
                        <path d="M9.00022917,18 C0.00039548178,18 -0.00707124804,8.99343976 0.00039548178,8.83804717 C0.236955058,3.91581302 4.17584898,0 9.00022917,0 C13.8214093,0 17.7582669,3.91060489 17.999578,8.82818177 C18.0073841,8.98682944 17.999578,18 9.00022917,18 Z" id="Path" fill="#E5E5E5"></path>
                        <path d="M9,17.0403598 C4.18155306,17.0403598 0.247648667,13.0349095 0.0113315972,8 C0.00387405032,8.15894969 0,8.31892388 0,8.4798201 C0,13.7376587 4.02944816,18 9,18 C13.9705518,18 18,13.7376587 18,8.4798201 C18,8.31887265 17.9961259,8.15894969 17.9886684,8 C17.7523513,13.0349095 13.8184469,17.0403598 9,17.0403598 Z" id="Path" fill="#989595"></path>
                        <path d="M9.00002508,16 C1.9865375,16 1.99127984,8.97744586 2.00066871,8.82320139 C2.23208525,5.014588 5.27733723,2 9.00002508,2 C12.7227129,2 15.7679649,5.014588 15.9993814,8.82320139 C16.0087703,8.97744586 15.9993814,16 9.00002508,16 Z" id="Path" fill="url(#linearGradient-1)"></path>
                    </g>
                </g>
            </g>
        </g>
    </g>
</svg>