<?xml version="1.0" encoding="UTF-8"?>
<svg width="13px" height="16px" viewBox="0 0 13 16" version="1.1" xmlns="http://www.w3.org/2000/svg" xmlns:xlink="http://www.w3.org/1999/xlink">
    <title>medal (1)</title>
    <defs>
        <linearGradient x1="50%" y1="100%" x2="50%" y2="3.061617e-15%" id="linearGradient-1">
            <stop stop-color="#CDCDCD" offset="0%"></stop>
            <stop stop-color="#9E9E9E" offset="100%"></stop>
        </linearGradient>
    </defs>
    <g id="Symbols" stroke="none" stroke-width="1" fill="none" fill-rule="evenodd">
        <g id="Tags/User-Level-Tag/Silver" transform="translate(0.000000, -2.000000)" fill-rule="nonzero">
            <g id="medal-(1)" transform="translate(0.000000, 2.000000)">
                <path d="M5.30441681,11.2345105 L2.18608345,10.1818182 L1.49807022,10.2502347 L0.0111470023,14.4203599 C-0.0362344352,14.5531728 0.0740199784,14.68901 0.217335602,14.6743309 L2.30162766,14.4612992 C2.35985317,14.4553612 2.41773863,14.4750194 2.45960357,14.5149628 L3.95793762,15.9452185 C4.06093746,16.0435465 4.23376258,16.0038981 4.28110623,15.8710852 L5.77777778,11.673704 L5.30441681,11.2345105 Z" id="Path" fill="#959AA2"></path>
                <path d="M5.49177135,11.6363636 L5.77777778,11.0926912 L1.72959329,10.1818182 L1.44444444,10.7238829 C2.59397304,11.2666096 3.98584243,11.5988421 5.49177135,11.6363636 L5.49177135,11.6363636 Z" id="Path" fill="#82D361"></path>
                <path d="M7.69551176,11.2345105 L10.8138724,10.1818182 L11.5018917,10.2502347 L12.9888657,14.4203599 C13.0362098,14.5531728 12.9259922,14.68901 12.7826753,14.6743309 L10.698365,14.4612992 C10.640139,14.4553612 10.582253,14.4750194 10.5404255,14.5149628 L9.04207832,15.9452185 C8.93907758,16.0435465 8.76625095,16.0038981 8.71890688,15.8710852 L7.22222222,11.673704 L7.69551176,11.2345105 Z" id="Path" fill="#959AA2"></path>
                <path d="M7.50822865,11.6363636 L7.22222222,11.0926912 L11.2704067,10.1818182 L11.5555556,10.7238829 C10.406027,11.2666096 9.01415757,11.5988421 7.50822865,11.6363636 Z" id="Path" fill="#82D361"></path>
                <path d="M6.50016551,13.0909091 C0.00028562573,13.0909091 -0.00510701247,6.54068346 0.00028562573,6.42767067 C0.171134209,2.84786401 3.01589093,0 6.50016551,0 C9.98212897,0 12.825415,2.84407628 12.9996952,6.42049583 C13.005333,6.53587596 12.9996952,13.0909091 6.50016551,13.0909091 Z" id="Path" fill="#E0E0E0"></path>
                <path d="M6.5,12.3929889 C3.02001055,12.3929889 0.17885737,9.47993419 0.0081839313,5.81818182 C0.00279792523,5.93378159 0,6.05012645 0,6.16714189 C0,9.99102453 2.91015701,13.0909091 6.5,13.0909091 C10.089843,13.0909091 13,9.99102453 13,6.16714189 C13,6.0500892 12.9972021,5.93378159 12.9918161,5.81818182 C12.8211426,9.47993419 9.97998945,12.3929889 6.5,12.3929889 Z" id="Path" fill="#CECECE"></path>
                <path d="M6.50001811,11.6363636 C1.43472153,11.6363636 1.43814655,6.52905153 1.4449274,6.41687374 C1.61206157,3.64697309 3.81141022,1.45454545 6.50001811,1.45454545 C9.188626,1.45454545 11.3879747,3.64697309 11.5551088,6.41687374 C11.5618897,6.52905153 11.5551088,11.6363636 6.50001811,11.6363636 Z" id="Path" fill="url(#linearGradient-1)"></path>
                <path d="M6.5,10.9366311 C3.81659708,10.9366311 1.6218578,8.67515227 1.45504505,5.81818182 C1.44827724,5.93388886 1.44444444,6.05049228 1.44444444,6.16802942 C1.44444444,9.18810273 3.70789773,11.6363636 6.5,11.6363636 C9.29210227,11.6363636 11.5555556,9.18810273 11.5555556,6.16802942 C11.5555556,6.05045493 11.5517228,5.93388886 11.544955,5.81818182 C11.3781422,8.67515227 9.18340292,10.9366311 6.5,10.9366311 Z" id="Path" fill="#898989"></path>
                <path d="M8.00604635,8.56796221 L4.99395365,8.56796221 C4.7100513,8.56796221 4.46868046,8.33139805 4.37525469,8 C4.34779764,8.19141869 4.33333333,8.38667049 4.33333333,8.58353125 C4.33333333,9.06460972 4.6291158,9.45454545 4.99395365,9.45454545 L8.00604635,9.45454545 C8.3708842,9.45454545 8.66666667,9.06460972 8.66666667,8.58353125 C8.66666667,8.42145238 8.632462,8.27021032 8.57399462,8.14026329 C8.45889034,8.39599298 8.24795556,8.56796221 8.00604635,8.56796221 Z" id="Path" fill="#CECECE"></path>
            </g>
        </g>
    </g>
</svg>