<?xml version="1.0" encoding="UTF-8"?>
<svg width="19px" height="18px" viewBox="0 0 19 18" version="1.1" xmlns="http://www.w3.org/2000/svg" xmlns:xlink="http://www.w3.org/1999/xlink">
    <g id="Symbols" stroke="none" stroke-width="1" fill-rule="evenodd" opacity="0.998581659">
        <g id="nudge">
            <path d="M14.6502193,12.4615385 L14.6502193,7.84615385 C14.6502193,5.01230769 13.1363732,2.64 10.4963732,2.01230769 L10.4963732,1.38461538 C10.4963732,0.618461538 9.86868087,0 9.10252702,0 C8.33637317,0 7.72714241,0.618461538 7.72714241,1.38461538 L7.72714241,2.01230769 C5.07791164,2.64 3.57329625,5.00307692 3.57329625,7.84615385 L3.57329625,12.4615385 L2.37329625,13.6523077 C1.79175779,14.2338462 2.19791164,15.2307692 3.0194501,15.2307692 L15.1763732,15.2307692 C15.9979116,15.2307692 16.4132963,14.2338462 15.8317578,13.6523077 L14.6502193,12.4615385 Z M9.10252702,18 C10.1179116,18 10.9486809,17.1692308 10.9486809,16.1538462 L7.25637317,16.1538462 C7.25637317,17.1692308 8.07791164,18 9.10252702,18 Z M4.28406548,2.05846154 C4.67175779,1.70769231 4.68098856,1.10769231 4.31175779,0.738461538 C3.96098856,0.387692308 3.38868087,0.378461538 3.02868087,0.72 C1.45021933,2.16 0.360988559,4.11692308 0.0102193282,6.31384615 C-0.0728575949,6.87692308 0.360988559,7.38461538 0.933296251,7.38461538 C1.37637317,7.38461538 1.76406548,7.06153846 1.83791164,6.61846154 C2.11483471,4.82769231 3.00098856,3.23076923 4.28406548,2.05846154 Z M15.2040655,0.72 C14.8348347,0.378461538 14.262527,0.387692308 13.9117578,0.738461538 C13.542527,1.10769231 13.5609886,1.69846154 13.9394501,2.04923077 C15.2132963,3.22153846 16.1086809,4.81846154 16.3856039,6.60923077 C16.4502193,7.05230769 16.8379116,7.37538462 17.2902193,7.37538462 C17.8532963,7.37538462 18.2963732,6.86769231 18.2040655,6.30461538 C17.8532963,4.11692308 16.7732963,2.16923077 15.2040655,0.72 Z" id="🔹-Icon-Color"></path>
        </g>
    </g>
</svg>
