<?xml version="1.0" encoding="UTF-8"?>
<svg width="32px" height="32px" viewBox="0 0 32 32" version="1.1" xmlns="http://www.w3.org/2000/svg" xmlns:xlink="http://www.w3.org/1999/xlink">
    <title>discount</title>
    <defs>
        <filter id="filter-1">
            <feColorMatrix in="SourceGraphic" type="matrix" values="0 0 0 0 0.584314 0 0 0 0 0.603922 0 0 0 0 0.635294 0 0 0 1.000000 0"></feColorMatrix>
        </filter>
    </defs>
    <g id="Profile-Page" stroke="none" stroke-width="1" fill="none" fill-rule="evenodd">
        <g id="Gamer-Arena-Profile-1-576px" transform="translate(-50.000000, -1152.000000)">
            <g id="Stats" transform="translate(24.000000, 959.000000)">
                <g id="discount" transform="translate(26.000000, 193.000000)" filter="url(#filter-1)">
                    <g>
                        <path d="M16,32 C24.8224522,32 32,24.8224522 32,16 C32,7.17754782 24.8224522,0 16,0 C7.17754782,0 0,7.17754782 0,16 C0,24.8224522 7.17754782,32 16,32 Z M16,1.42675159 C24.035828,1.42675159 30.5732484,7.96417203 30.5732484,16 C30.5732484,24.035828 24.035828,30.5732484 16,30.5732484 C7.96417203,30.5732484 1.42675159,24.035828 1.42675159,16 C1.42675159,7.96417203 7.96417203,1.42675159 16,1.42675159 Z" id="Shape" fill="#000000" fill-rule="nonzero"></path>
                        <path d="M12,15 C13.6570541,15 15,13.6567405 15,12.0002022 C15.0004041,10.3432595 13.6570541,9 12,9 C10.3429456,9 9,10.3432595 9,11.9997979 C9.00161703,13.6559321 10.3437542,14.9979789 12,15 Z M11.9999999,10.4487637 C12.856623,10.4487637 13.5511386,11.1432325 13.5511386,11.9997979 C13.5515428,12.8567676 12.8570272,13.5512363 11.9999999,13.5512363 C11.1433769,13.5512363 10.4488613,12.8567676 10.4488613,11.9997979 C10.4496698,11.1436367 11.1437811,10.4499764 11.9999999,10.4487637 Z" id="Shape" fill="#000000" fill-rule="nonzero"></path>
                        <path d="M17,21.0002021 C17,22.6571448 18.3432595,24 19.9997978,24 C21.6567405,24 23,22.6571448 23,21.0002021 C23,19.3432594 21.6567405,18 19.9997978,18 C18.3436637,18.0020211 17.0020211,19.3440679 17,21.0002021 Z M21.5512363,21.0002021 C21.5512363,21.8567675 20.8567675,22.5512363 19.9997978,22.5512363 C19.1432324,22.5512363 18.4487637,21.8567675 18.4487637,21.0002021 C18.4487637,20.1436367 19.1432324,19.449168 19.9997978,19.4487637 C20.8563633,19.4499764 21.5500236,20.1436367 21.5512363,21.0002021 Z" id="Shape" fill="#000000" fill-rule="nonzero"></path>
                        <path d="M10.3375317,24.8832473 C10.6815366,25.1000047 11.1425614,25.0062501 11.3666418,24.6741026 L21.8785038,9.11164655 C22.0241561,8.89649177 22.0399247,8.62284061 21.9200002,8.39366289 C21.7996606,8.16448497 21.5618864,8.01463799 21.2963096,8.00101548 C21.0307328,7.98739307 20.7776049,8.11159788 20.6327826,8.3271532 L10.1209206,23.8896092 C9.8964252,24.2221575 9.99352677,24.6668907 10.3375317,24.8832473 Z" id="Path" fill="#000000" fill-rule="nonzero"></path>
                    </g>
                </g>
            </g>
        </g>
    </g>
</svg>
