<?xml version="1.0" encoding="UTF-8"?>
<svg width="69px" height="68px" viewBox="0 0 69 68" version="1.1" xmlns="http://www.w3.org/2000/svg" xmlns:xlink="http://www.w3.org/1999/xlink">
    <title>Group 4</title>
    <defs>
        <filter id="filter-1">
            <feColorMatrix in="SourceGraphic" type="matrix" values="0 0 0 0 1.000000 0 0 0 0 1.000000 0 0 0 0 1.000000 0 0 0 1.000000 0"></feColorMatrix>
        </filter>
    </defs>
    <g id="Wallet" stroke="none" stroke-width="1" fill="none" fill-rule="evenodd">
        <g id="6-Gamer-Arena--Withdraw-Success---360px" transform="translate(-153.000000, -185.000000)">
            <g id="Success-Pop-up" transform="translate(42.000000, 140.000000)">
                <g id="Group-4" transform="translate(111.217391, 45.000000)">
                    <g filter="url(#filter-1)" id="wallet-filled-money-tool">
                        <g transform="translate(0.000000, 9.000000)">
                            <path d="M14.4796131,11.2036707 L38.6619718,4.53185119 L37.3813286,1.91545139 C36.543461,0.214791514 34.4998813,-0.487505276 32.8173341,0.359382029 L11.1690141,11.2036707 L14.4796131,11.2036707 Z" id="Path" fill="#000000" fill-rule="nonzero"></path>
                            <path d="M46.3324805,5.17092494 C46.0320206,5.17092494 45.731424,5.2093909 45.4308957,5.28632284 L39.7345867,6.74802957 L22.3380282,11.2036707 L42.0841033,11.2036707 L50.6901408,11.2036707 L49.6246314,7.53658188 C49.2148201,6.10693012 47.835122,5.17092494 46.3324805,5.17092494 Z" id="Path" fill="#000000" fill-rule="nonzero"></path>
                            <path d="M54.1401521,13.7891332 L53.3580972,13.7891332 L52.294777,13.7891332 L51.2314567,13.7891332 L43.115922,13.7891332 L13.2949335,13.7891332 L9.38465891,13.7891332 L6.09179614,13.7891332 L5.4812445,13.7891332 L3.43692552,13.7891332 C2.35302486,13.7891332 1.38574642,14.2869983 0.754614386,15.0713064 C0.466488893,15.4327701 0.246964708,15.8487944 0.123482354,16.3057391 C0.0480209155,16.5921821 0,16.8922652 0,17.1991684 L0,17.6083726 L0,21.4958127 L0,55.1937807 C0,57.0761884 1.5366693,58.6038159 3.43006539,58.6038159 L54.133292,58.6038159 C56.0267567,58.6038159 57.5633803,57.0761884 57.5633803,55.1937807 L57.5633803,45.6797825 L37.2093494,45.6797825 C33.991948,45.6797825 31.3782382,43.0813356 31.3782382,39.8827226 L31.3782382,36.7591304 L31.3782382,35.7020194 L31.3782382,34.6449085 L31.3782382,32.2988043 C31.3782382,30.7301881 32.0093016,29.3048616 33.0315297,28.2613908 C33.937067,27.333793 35.1513101,26.7063466 36.509616,26.5494849 C36.7360003,26.5222728 36.9692448,26.5085645 37.2024892,26.5085645 L54.709543,26.5085645 L55.7728633,26.5085645 L56.8361835,26.5085645 L57.5633803,26.5085645 L57.5633803,17.1991684 C57.5702175,15.3168289 56.0335482,13.7891332 54.1401521,13.7891332 Z" id="Path" fill="#000000" fill-rule="nonzero"></path>
                            <path d="M59.874315,29.3483397 C59.5290128,29.0293869 59.1215563,28.7867055 58.6657574,28.6272292 C58.3134802,28.5094247 57.9406229,28.4400871 57.5469784,28.4400871 L57.4571999,28.4400871 L57.3881394,28.4400871 L56.3177028,28.4400871 L52.4572246,28.4400871 L36.9600638,28.4400871 C35.0539269,28.4400871 33.5070423,29.9931788 33.5070423,31.9069644 L33.5070423,33.6334 L33.5070423,34.7081319 L33.5070423,35.7828639 L33.5070423,39.6241639 C33.5070423,41.5378801 35.0539269,43.0910411 36.9600638,43.0910411 L57.4571999,43.0910411 L57.5469784,43.0910411 C57.9406229,43.0910411 58.3135492,43.0217036 58.6657574,42.9038298 C59.1215563,42.7512872 59.5290128,42.501672 59.874315,42.1827193 C60.5649193,41.5517476 61,40.636492 61,39.6242332 L61,31.9069644 C61,30.8945669 60.5649193,29.979242 59.874315,29.3483397 Z M44.1699729,36.455438 C44.1699729,37.4122962 43.396496,38.1888767 42.4434621,38.1888767 L41.2970589,38.1888767 C40.344025,38.1888767 39.5705481,37.4122962 39.5705481,36.455438 L39.5705481,35.3044348 C39.5705481,34.7497344 39.8260717,34.2573685 40.2335283,33.9453496 C40.5304881,33.7165357 40.8965775,33.5709962 41.2970589,33.5709962 L41.5871127,33.5709962 L42.4434621,33.5709962 C43.396496,33.5709962 44.1699729,34.3475073 44.1699729,35.3044348 L44.1699729,36.455438 L44.1699729,36.455438 Z" id="Shape" fill="#000000" fill-rule="nonzero"></path>
                        </g>
                    </g>
                    <g id="Group-3" transform="translate(30.000000, 0.000000)">
                        <circle id="Oval" fill="#48B474" cx="19" cy="19" r="19"></circle>
                        <g id="Icons/Check/Primary" transform="translate(5.145914, 7.244949)">
                            <rect id="Rectangle" x="0" y="0" width="26.9166667" height="26.9166667"></rect>
                            <path d="M10.8925504,14.9105223 L8.0862253,12.1011286 C7.7735205,11.7880819 7.27640006,11.7880819 6.96369526,12.1011286 C6.65099047,12.4141754 6.65099047,12.9118394 6.96369526,13.2248861 L10.3232673,16.5881316 C10.6359721,16.9011783 11.1411106,16.9011783 11.4538154,16.5881316 L19.9529714,8.08770916 C20.2656762,7.77466244 20.2656762,7.27699843 19.9529714,6.96395171 C19.6402666,6.65090499 19.1431462,6.65090499 18.8304414,6.96395171 L10.8925504,14.9105223 Z" id="Icon/Check" stroke="#FFFFFF" fill="#FFFFFF"></path>
                        </g>
                    </g>
                </g>
            </g>
        </g>
    </g>
</svg>