<?xml version="1.0" encoding="UTF-8"?>
<svg width="18px" height="19px" viewBox="0 0 18 19" version="1.1" xmlns="http://www.w3.org/2000/svg" xmlns:xlink="http://www.w3.org/1999/xlink">
    <title>arena</title>
    <defs>
        <filter id="filter-1">
            <feColorMatrix in="SourceGraphic" type="matrix" values="0 0 0 0 1.000000 0 0 0 0 1.000000 0 0 0 0 1.000000 0 0 0 1.000000 0"></feColorMatrix>
        </filter>
    </defs>
    <g id="Symbols" stroke="none" stroke-width="1" fill="none" fill-rule="evenodd">
        <g id="arena" transform="translate(-3.000000, -3.000000)" filter="url(#filter-1)">
            <g transform="translate(3.000000, 3.500000)">
                <path d="M9.0000703,14.1428571 C8.40442158,14.1428571 7.92,14.620156 7.92,15.206908 L7.92,17.7980382 C8.27575807,17.8100919 8.6362971,17.8163265 9.0000703,17.8163265 C9.36356226,17.8163265 9.72410129,17.8102304 10.08,17.7980382 L10.08,15.206908 C10.08,14.620156 9.59557838,14.1428571 9.0000703,14.1428571 Z" id="Path" fill="#000000" fill-rule="nonzero"></path>
                <path d="M8.64,10.1453003 C7.08721016,10.1188409 5.60639006,9.97726197 4.32,9.73469388 L4.32,17.4770637 C5.15351048,17.6336039 6.0691725,17.7480307 7.03393019,17.8163265 L7.03393019,15.2814828 C7.03393019,14.292093 7.71736415,13.4582738 8.64,13.2211084 L8.64,10.1453003 Z" id="Path" fill="#000000" fill-rule="nonzero"></path>
                <path d="M13.6502317,9.73469388 C12.3728265,9.97740052 10.9021352,10.1191179 9.36,10.1455774 L9.36,13.2208313 C10.2768629,13.457304 10.9561335,14.2916774 10.9561335,15.2817599 L10.9561335,17.8163265 C11.9250563,17.7471995 12.8445499,17.6308333 13.68,17.4713838 C13.6610314,17.4166641 13.6502317,17.3582039 13.6502317,17.2971116 L13.6502317,9.73469388 Z" id="Path" fill="#000000" fill-rule="nonzero"></path>
                <path d="M17.9876191,7.53061224 C17.9258552,7.98006912 17.6205532,8.38947538 17.0764966,8.74979181 C16.5912493,9.07117017 15.9128316,9.35569638 15.0600964,9.59530474 C14.962034,9.62283956 14.8617204,9.64967902 14.76,9.67582317 L14.76,17.4489796 C14.8407573,17.428259 14.9208111,17.4072602 14.9993174,17.3857052 C16.9217352,16.8567033 17.9309201,16.1277266 17.9985931,15.2188002 C17.9994372,15.2058672 18,15.1927951 18,15.179723 C18,15.179723 17.9956385,7.56704716 17.9876191,7.53061224 L17.9876191,7.53061224 Z" id="Path" fill="#000000" fill-rule="nonzero"></path>
                <path d="M0.922942323,8.75538169 C0.376685335,8.39363485 0.0712876016,7.98227463 0.0115297307,7.53061224 C0.00520243858,7.56368785 0.00126545842,10.1533116 0.000843640149,11.3807215 C0.000421821874,12.6082704 0,13.8358193 0,15.1300754 C0,15.6477499 0.30975655,16.1159501 0.920552018,16.5217514 C1.40480146,16.8433351 2.08196329,17.1276739 2.93347741,17.3668465 C3.03372997,17.395058 3.13595105,17.4222968 3.24,17.4489796 L3.24,9.68135911 C3.13763833,9.65495425 3.03682334,9.62813243 2.93811742,9.60033782 C2.08590028,9.36088725 1.40789479,9.07668738 0.922942323,8.75538169 Z" id="Path" fill="#000000" fill-rule="nonzero"></path>
                <path d="M1.34297329,7.53061224 C2.90383822,6.70762892 5.76752296,6.20606292 9.00095827,6.20606292 C12.2181032,6.20606292 15.0965725,6.70873582 16.6577112,7.53005879 C16.8400539,7.37855126 16.92,7.2473831 16.92,7.1560635 C16.92,6.94243098 16.4828976,6.51129176 15.3184776,6.1087937 C15.3353155,6.0567692 15.3447612,3.94714801 15.3447612,3.94714801 L16.3175297,3.94714801 C16.4477158,3.94714801 16.5698252,3.87630613 16.6459383,3.75676047 C16.7220513,3.63721481 16.7427223,3.48349347 16.7016541,3.34360847 L16.4744102,2.5715427 L16.7015172,1.799477 C16.7427223,1.65959197 16.7220513,1.50587063 16.6459383,1.38632496 C16.5698252,1.2667793 16.4477158,1.19593743 16.3175297,1.19593743 L14.6980741,1.19593743 C14.4745263,1.19593743 14.2932787,1.40112982 14.2932787,1.65447254 L14.2932787,5.81311191 C12.8145502,5.45572018 10.9611429,5.26090503 9.00095827,5.26076667 L9.00095827,2.9350224 L9.98207728,2.9350224 C10.1122634,2.9350224 10.2343728,2.86418053 10.3104859,2.74463487 C10.3865989,2.6250892 10.4072699,2.47122951 10.3662017,2.33148286 L10.1389577,1.55941713 L10.3662017,0.787213008 C10.4072699,0.647328007 10.3865989,0.493606667 10.3104859,0.374061005 C10.2343728,0.254515343 10.1122634,0.183673469 9.98207728,0.183673469 L8.36262173,0.183673469 C8.1390739,0.183673469 7.9578263,0.389004213 7.9578263,0.642208548 L7.94947578,5.2797224 C6.14562405,5.34502975 4.47948767,5.57817146 3.1763941,5.95258185 C2.98898625,6.00654341 2.81622609,6.06147353 2.65715529,6.11709548 L2.65715529,4.72986768 L3.62992378,4.72986768 C3.76010994,4.72986768 3.88221936,4.65902581 3.9583324,4.53934179 C4.03444544,4.41979613 4.05511643,4.26607479 4.01404821,4.12618979 L3.78680428,3.35412402 L4.01404821,2.58205833 C4.05511643,2.44217329 4.03444544,2.28845195 3.9583324,2.16890629 C3.88221936,2.04936063 3.76010994,1.97851875 3.62992378,1.97851875 L2.01060515,1.97851875 C1.7869204,1.97851875 1.6056728,2.1838495 1.6056728,2.43705387 L1.6056728,2.73093692 L1.6056728,6.58434744 C1.6056728,6.5879449 1.60608349,6.59126561 1.60622038,6.59486303 C1.23510088,6.82440732 1.08,7.02876951 1.08,7.1560635 C1.08,7.24752146 1.16021988,7.37882797 1.34297329,7.53061224 Z" id="Path" fill="#000000" fill-rule="nonzero"></path>
                <path d="M2.52,8.44712604 C2.70766059,8.51713356 2.91527043,8.58671333 3.14503085,8.65443951 C4.7057506,9.11412222 6.78432553,9.36734694 8.99786749,9.36734694 C11.2114094,9.36734694 13.2899844,9.11412222 14.8507041,8.65443951 C15.0821155,8.58614296 15.2912388,8.51613548 15.48,8.44555764 C13.9635813,7.87765557 11.5765496,7.53061224 8.99883057,7.53061224 C6.44849013,7.53061224 4.03820721,7.8835014 2.52,8.44712604 Z" id="Path" fill="#000000" fill-rule="nonzero"></path>
            </g>
        </g>
    </g>
</svg>