<?xml version="1.0" encoding="UTF-8"?>
<svg width="18px" height="18px" viewBox="0 0 18 18" version="1.1" xmlns="http://www.w3.org/2000/svg" xmlns:xlink="http://www.w3.org/1999/xlink">
    <title>Shape</title>
    <g id="Symbols" stroke="none" stroke-width="1" fill="none" fill-rule="evenodd">
        <g id="Icons/Arena/Secondary" transform="translate(-3.000000, -3.000000)" fill="#959AA2" fill-rule="nonzero">
            <g id="Shape">
                <path d="M20.9982147,9.91946409 C20.9982147,9.40859984 20.6949921,8.9463501 20.0969238,8.54548644 C19.6687317,8.25860596 19.0860443,8.0016632 18.3632812,7.78015137 L18.3632812,6.9375 L19.9453125,6.9375 C20.1149139,6.9375 20.2740784,6.85606385 20.3730927,6.71846007 C20.4722443,6.58099365 20.4991608,6.40425109 20.4456024,6.2434387 L20.1496582,5.35546875 L20.4456024,4.4674988 C20.4992981,4.30668641 20.4722443,4.12994385 20.37323,3.99247743 C20.2740784,3.85487365 20.1149139,3.7734375 19.9454498,3.7734375 L17.8360748,3.7734375 C17.5447998,3.7734375 17.3087311,4.00950623 17.3087311,4.30078125 L17.3087311,7.50439453 C15.7886353,7.16697694 13.9394989,6.98391722 12.0001373,6.98391722 L12.0001373,6.1640625 L13.5821686,6.1640625 C13.7516327,6.1640625 13.9107971,6.08262635 14.0099487,5.94502257 C14.108963,5.80755615 14.1360168,5.63081359 14.0823212,5.4700012 L13.786377,4.58203125 L14.0823212,3.6940613 C14.1360168,3.53324891 14.108963,3.35650635 14.0098114,3.21903993 C13.9107971,3.08143615 13.7516327,3 13.5821686,3 L11.4727936,3 C11.1815186,3 10.9454498,3.23606873 10.9454498,3.52734375 L10.9454498,7.00218202 C9.03726195,7.06851195 7.26420594,7.31419373 5.86921691,7.71066286 C5.78997803,7.73332215 5.71279905,7.75625609 5.63671875,7.77960205 L5.63671875,6.9375 L7.21875,6.9375 C7.38835145,6.9375 7.54751585,6.85606385 7.64653016,6.71846007 C7.74568175,6.58099365 7.77259826,6.40425109 7.71903993,6.2434387 L7.4230957,5.35546875 L7.71903993,4.4674988 C7.77273558,4.30668641 7.74568175,4.12994385 7.64653016,3.99247743 C7.54751585,3.85487365 7.38835145,3.7734375 7.21875,3.7734375 L5.109375,3.7734375 C4.8182373,3.7734375 4.58203125,4.00950623 4.58203125,4.30078125 L4.58203125,8.12457275 C4.58203125,8.14036561 4.58312988,8.15588379 4.58436584,8.17140197 C4.32550049,8.289505 4.09712218,8.41433714 3.9012909,8.54548644 C3.30322266,8.9463501 3,9.40859984 3,9.91946409 C3,9.97467041 3.00123596,12.6745605 3.00082397,13.8874512 C3.00041199,15.1003418 3,16.3132324 3,17.592041 C3,18.4213715 3.78057861,19.108017 5.32003786,19.6326141 C6.51109315,20.038559 8.12031554,20.3265381 9.890625,20.4534302 L9.890625,20.4726562 C9.890625,20.7639313 10.1266937,21 10.4179687,21 L13.5820312,21 C13.8733063,21 14.109375,20.7639313 14.109375,20.4726562 L14.109375,20.4534302 C15.8600464,20.3279114 17.4582825,20.0437775 18.6435699,19.6449737 C20.1463623,19.139328 20.9380646,18.4785004 20.9967041,17.6810303 C20.9976654,17.6681213 20.9982147,17.6552124 20.9982147,17.6423035 C20.9982147,17.6423035 20.9982147,9.97686768 20.9982147,9.91946409 L20.9982147,9.91946409 Z M5.63671875,4.828125 L6.48719787,4.828125 L6.36689757,5.1887512 C6.33091737,5.29696657 6.33091737,5.41397093 6.36689757,5.5221863 L6.48719787,5.8828125 L5.63671875,5.8828125 L5.63671875,4.828125 Z M11.999176,11.8003235 C9.78982542,11.8003235 7.71519471,11.5565643 6.15760802,11.113678 C5.92826844,11.048584 5.72103884,10.9815674 5.53372191,10.9141388 C7.04914855,10.3714142 9.45460509,10.0315246 12,10.0315246 C14.5727234,10.0315246 16.955246,10.3656464 18.4686127,10.9126282 C18.2803345,10.9806061 18.0715942,11.0480347 17.8406067,11.113678 C16.28302,11.5565643 14.2083893,11.8003235 11.999176,11.8003235 Z M19.0935974,5.5221863 L19.2137604,5.8828125 L18.3634186,5.8828125 L18.3634186,4.828125 L19.2137604,4.828125 L19.0935974,5.1887512 C19.0574799,5.29696657 19.0574799,5.41397093 19.0935974,5.5221863 Z M12.7303162,4.7487488 L12.8504791,5.109375 L12.0001373,5.109375 L12.0001373,4.0546875 L12.8504791,4.0546875 L12.7303162,4.4153137 C12.6941986,4.52352907 12.6941986,4.64053343 12.7303162,4.7487488 Z M6.15760802,8.72525023 C7.71519471,8.2825012 9.78982542,8.03860472 11.999176,8.03860472 C14.2083893,8.03860472 16.28302,8.2825012 17.8406067,8.72525023 C19.3834991,9.16374207 19.9435272,9.6796875 19.9435272,9.91946409 C19.9435272,10.0101013 19.863327,10.1402893 19.6804047,10.290802 C18.1144409,9.47561644 15.2270966,8.97683714 12,8.97683714 C8.7565613,8.97683714 5.88418577,9.4745178 4.31863402,10.2913513 C4.13516234,10.140564 4.0546875,10.0102387 4.0546875,9.91946409 C4.0546875,9.6796875 4.61471559,9.16374207 6.15760802,8.72525023 Z M4.0546875,17.592041 C4.0546875,16.3133697 4.0550995,15.1006164 4.05551149,13.8877258 C4.05578613,13.0829773 4.05606077,12.2263184 4.05619813,11.4023438 C4.12417601,11.4375 4.12417601,11.4375 4.21289062,11.48172 C4.65083312,11.7227325 5.20578005,11.9395752 5.86921691,12.1282654 C5.96575928,12.1555939 6.06408691,12.1822357 6.16419982,12.2081909 L6.16419982,18.7906494 C5.98828125,18.7407989 5.81991579,18.6887512 5.66033936,18.6343689 C4.39031982,18.2015076 4.0546875,17.7632904 4.0546875,17.592041 Z M7.21888732,19.0426483 L7.21888732,12.4432983 C8.48533631,12.6836242 9.94308473,12.8239746 11.4718323,12.8503418 L11.4718323,15.5123291 C10.5635376,15.7474365 9.890625,16.573883 9.890625,17.5546875 L9.890625,19.3961334 C8.92918397,19.324585 8.02336121,19.2042847 7.21888732,19.0426483 L7.21888732,19.0426483 Z M13.0546875,19.9453125 L10.9453125,19.9453125 L10.9453125,17.5546875 C10.9453125,16.9730987 11.4185486,16.5 12,16.5 C12.5815888,16.5 13.0546875,16.9730987 13.0546875,17.5546875 L13.0546875,19.9453125 Z M12.5265198,15.5117798 L12.5265198,12.8503418 C14.0558166,12.8239746 15.514389,12.6834869 16.78125,12.4428863 L16.78125,19.042511 C15.9763641,19.20401 15.0698547,19.3244476 14.109375,19.3959961 L14.109375,17.5546875 C14.109375,16.5733338 13.4357758,15.7462006 12.5265198,15.5117798 L12.5265198,15.5117798 Z M18.307251,18.6453552 C18.1574249,18.695755 18.0000458,18.7442322 17.8359375,18.7906494 L17.8359375,12.2077789 C17.9353638,12.1819611 18.0331421,12.1554565 18.1289978,12.1282654 C18.8751068,11.9160919 19.4841614,11.6682129 19.9435272,11.3905334 L19.9435272,17.6163483 C19.9148254,17.809433 19.5429382,18.22966 18.307251,18.6453552 L18.307251,18.6453552 Z"></path>
            </g>
        </g>
    </g>
</svg>