<?xml version="1.0" encoding="UTF-8"?>
<svg width="20px" height="19px" viewBox="0 0 20 19" version="1.1" xmlns="http://www.w3.org/2000/svg" xmlns:xlink="http://www.w3.org/1999/xlink">
    <title>Icons/Arena/Lined/Secondary</title>
    <defs>
        <filter id="filter-1">
            <feColorMatrix in="SourceGraphic" type="matrix" values="0 0 0 0 0.584314 0 0 0 0 0.603922 0 0 0 0 0.635294 0 0 0 1.000000 0"></feColorMatrix>
        </filter>
    </defs>
    <g id="Symbols" stroke="none" stroke-width="1" fill="none" fill-rule="evenodd">
        <g id="Icons/Arena/Lined/Secondary" transform="translate(-2.000000, -2.000000)" filter="url(#filter-1)">
            <g transform="translate(3.000000, 3.000000)">
                <path d="M9.04737875,0 C9.04247411,0.00464649362 9.03266485,0.00464649362 9.01795095,0.00464649362 C4.05446322,0.00464649362 0.0179509537,3.82871074 0.0179509537,8.53096228 C0.0179509537,10.4499641 0.709504087,12.3132081 1.97489918,13.8140255 L0.665362398,16.6948516 C0.55746049,16.9318227 0.675171662,17.2059659 0.92040327,17.3035422 C1.00868665,17.3407142 1.10677929,17.3500072 1.1999673,17.3360677 L6.00160218,16.5368708 C6.96291008,16.8667718 7.97326431,17.0340456 8.99342779,17.0293991 C13.9569155,17.0293991 17.9934458,13.2053349 17.9934458,8.50308332 C18.0032371,3.81477126 13.9961526,0.00464649362 9.04737875,0 Z M8.99833243,16.1047469 C8.05173842,16.1047469 7.11495368,15.9421196 6.22721526,15.626158 C6.14383651,15.5936326 6.05555313,15.5889861 5.96726975,15.6029256 L1.92585286,16.2720207 L2.99506267,13.9162484 C3.06863215,13.7536211 3.03920436,13.5631149 2.91658856,13.4283666 C2.33784196,12.7917969 1.87680654,12.0669439 1.55310082,11.2816865 C1.19015804,10.4034992 1.00378202,9.46955399 1.00378202,8.52631579 C1.00378202,4.33517855 4.60378202,0.929279596 9.02285559,0.929279596 C13.4321199,0.920005736 17.0125014,4.2980066 17.017406,8.47520436 C17.017406,8.48449735 17.017406,8.49379033 17.017406,8.50308332 C17.017406,12.6988671 13.417406,16.1047469 8.99833243,16.1047469 Z" id="Shape" stroke="#979797" stroke-width="0.5" fill="#000000" fill-rule="nonzero"></path>
                <path d="M8.61577112,6.81640614 L5.96726975,6.81640614 C5.69751499,6.81640614 5.47680654,7.02549835 5.47680654,7.2810555 C5.47680654,7.53661265 5.69751499,7.74570486 5.96726975,7.74570486 L8.61577112,7.74570486 C8.88552589,7.74570486 9.10623433,7.53661265 9.10623433,7.2810555 C9.10623433,7.02549835 8.88552589,6.81640614 8.61577112,6.81640614 Z" id="Path" stroke="#979797" stroke-width="0.5" fill="#000000" fill-rule="nonzero"></path>
                <path d="M12.0490136,9.13965295 L5.96726975,9.13965295 C5.69751499,9.13965295 5.47680654,9.34874516 5.47680654,9.60430231 C5.47680654,9.85985946 5.69751499,10.0689517 5.96726975,10.0689517 L12.0490136,10.0689517 C12.3187684,10.0689517 12.5394768,9.85985946 12.5394768,9.60430231 C12.5394768,9.34874516 12.3187684,9.13965295 12.0490136,9.13965295 Z" id="Path" stroke="#979797" stroke-width="0.5" fill="#000000" fill-rule="nonzero"></path>
            </g>
        </g>
    </g>
</svg>