<?xml version="1.0" encoding="UTF-8"?>
<svg width="22px" height="21px" viewBox="0 0 22 21" version="1.1" xmlns="http://www.w3.org/2000/svg" xmlns:xlink="http://www.w3.org/1999/xlink">
    <title>Icons/Menu/Lined/Secondary</title>
    <defs>
        <filter id="filter-1">
            <feColorMatrix in="SourceGraphic" type="matrix" values="0 0 0 0 0.584314 0 0 0 0 0.603922 0 0 0 0 0.635294 0 0 0 1.000000 0"></feColorMatrix>
        </filter>
    </defs>
    <g id="Arena-Pages" stroke="none" stroke-width="1" fill="none" fill-rule="evenodd">
        <g id="Gamer-Arena--Arena-Page-576px" transform="translate(-511.000000, -3417.000000)">
            <g id="Footer(Resizeable)" transform="translate(0.000000, 3393.000000)">
                <g id="Menu" transform="translate(506.739130, 21.000000)">
                    <g id="Icons/Menu/Lined/Secondary" transform="translate(2.000000, 0.000000)">
                        <rect id="Rectangle" x="0" y="0" width="27" height="27"></rect>
                        <g filter="url(#filter-1)" id="menu-2">
                            <g transform="translate(3.375000, 3.375000)">
                                <path d="M16.4795054,0 L3.77049463,0 C1.69142871,0 0,1.69146826 0,3.77053418 L0,16.4794658 C0,18.5585317 1.69142871,20.25 3.77049463,20.25 L16.4795054,20.25 C18.5585713,20.25 20.25,18.5585317 20.25,16.4794658 L20.25,3.77053418 C20.25,1.69146826 18.5585713,0 16.4795054,0 Z M19.0634766,16.4794658 C19.0634766,17.9042827 17.9043223,19.0634766 16.4795054,19.0634766 L3.77049463,19.0634766 C2.34567773,19.0634766 1.18652344,17.9042827 1.18652344,16.4794658 L1.18652344,3.77053418 C1.18652344,2.34571729 2.34567773,1.18652344 3.77049463,1.18652344 L16.4795054,1.18652344 C17.9043223,1.18652344 19.0634766,2.34571729 19.0634766,3.77053418 L19.0634766,16.4794658 Z" id="Shape" stroke="#979797" stroke-width="0.4" fill="#000000" fill-rule="nonzero"></path>
                                <path d="M15.730968,4.5 L4.51903195,4.5 C4.19787124,4.5 3.9375,4.75185 3.9375,5.0625 C3.9375,5.37315 4.19787124,5.625 4.51903195,5.625 L15.730968,5.625 C16.0521288,5.625 16.3125,5.37315 16.3125,5.0625 C16.3125,4.75185 16.0521288,4.5 15.730968,4.5 Z" id="Path" stroke="#979797" stroke-width="0.4" fill="#000000" fill-rule="nonzero"></path>
                                <path d="M15.730968,9.5625 L4.51903195,9.5625 C4.19787124,9.5625 3.9375,9.81435 3.9375,10.125 C3.9375,10.43565 4.19787124,10.6875 4.51903195,10.6875 L15.730968,10.6875 C16.0521288,10.6875 16.3125,10.43565 16.3125,10.125 C16.3125,9.81435 16.0521288,9.5625 15.730968,9.5625 Z" id="Path" stroke="#979797" stroke-width="0.4" fill="#000000" fill-rule="nonzero"></path>
                                <path d="M15.730968,14.625 L4.51903195,14.625 C4.19787124,14.625 3.9375,14.87685 3.9375,15.1875 C3.9375,15.49815 4.19787124,15.75 4.51903195,15.75 L15.730968,15.75 C16.0521288,15.75 16.3125,15.49815 16.3125,15.1875 C16.3125,14.87685 16.0521288,14.625 15.730968,14.625 Z" id="Path" stroke="#979797" stroke-width="0.4" fill="#000000" fill-rule="nonzero"></path>
                            </g>
                        </g>
                    </g>
                </g>
            </g>
        </g>
    </g>
</svg>