<?xml version="1.0" encoding="iso-8859-1"?>
<!-- Generator: Adobe Illustrator 19.0.0, SVG Export Plug-In . SVG Version: 6.00 Build 0)  -->
<svg version="1.1" id="Capa_1" xmlns="http://www.w3.org/2000/svg" xmlns:xlink="http://www.w3.org/1999/xlink" x="0px"
     y="0px"
     viewBox="0 0 512 512" style="enable-background:new 0 0 512 512;" xml:space="preserve">
	<g>
		<g>
			<rect x="480" y="240.224" width="32" height="32"/>
            <rect x="416" y="240.224" width="32" height="32"/>
            <polygon points="307.312,219.536 284.688,196.912 225.376,256.224 284.688,315.536 307.312,292.912 286.624,272.224 384,272.224
				384,240.224 286.624,240.224 			"/>
            <path d="M288,432.224c0,8.837-7.163,16-16,16h-80c0-0.176,0-0.336,0-0.512V112.72c0.084-26.199-15.882-49.776-40.24-59.424
				L99.072,32.224H272c8.837,0,16,7.163,16,16v112h32v-112c0-26.51-21.49-48-48-48H0v475.904l109.616,32.896
				c6.02,1.816,12.272,2.743,18.56,2.752c22.548,0.051,43.392-11.992,54.608-31.552H272c26.51,0,48-21.49,48-48v-80h-32V432.224z
				 M160,447.712c0.004,17.673-14.32,32.003-31.993,32.007c-3.118,0.001-6.22-0.454-9.207-1.351L32,452.32V39.872l107.888,43.2
				c12.161,4.809,20.14,16.571,20.112,29.648V447.712z"/>
		</g>
	</g>
</svg>
