<?xml version="1.0" encoding="UTF-8"?>
<svg width="17px" height="20px" viewBox="0 0 17 20" version="1.1" xmlns="http://www.w3.org/2000/svg" xmlns:xlink="http://www.w3.org/1999/xlink">
    <title>headphones-2</title>
    <defs>
        <filter id="filter-1">
            <feColorMatrix in="SourceGraphic" type="matrix" values="0 0 0 0 0.584314 0 0 0 0 0.603922 0 0 0 0 0.635294 0 0 0 1.000000 0"></feColorMatrix>
        </filter>
    </defs>
    <g id="Symbols" stroke="none" stroke-width="1" fill="none" fill-rule="evenodd">
        <g id="headphones-2" transform="translate(-3.000000, -2.000000)" filter="url(#filter-1)">
            <g transform="translate(4.000000, 3.000000)">
                <path d="M7.91015625,0 C3.54849609,0 0,3.54849609 0,7.91015625 C0,8.39351953 0,12.1327031 0,12.1992188 C0,13.0715508 0.709699219,13.78125 1.58203125,13.78125 L2.20007813,13.78125 C2.41776562,14.3950078 3.00392578,14.8359375 3.69140625,14.8359375 C4.56373828,14.8359375 5.2734375,14.1262383 5.2734375,13.2539062 L5.2734375,8.96484375 C5.2734375,8.09251172 4.56373828,7.3828125 3.69140625,7.3828125 C3.00392578,7.3828125 2.41776562,7.82374219 2.20007813,8.4375 L1.58203125,8.4375 C1.39714453,8.4375 1.21974609,8.46966797 1.0546875,8.52820313 L1.0546875,7.91015625 C1.0546875,4.13005078 4.13005078,1.0546875 7.91015625,1.0546875 C11.6902617,1.0546875 14.765625,4.13005078 14.765625,7.91015625 L14.765625,8.52820312 C14.6005664,8.46966797 14.423168,8.4375 14.2382812,8.4375 L13.6202344,8.4375 C13.4025469,7.82374219 12.8163867,7.3828125 12.1289062,7.3828125 C11.2565742,7.3828125 10.546875,8.09251172 10.546875,8.96484375 L10.546875,13.2539062 C10.546875,14.1262383 11.2565742,14.8359375 12.1289062,14.8359375 C12.2885508,14.8359375 12.4426758,14.8119609 12.588082,14.7677695 C12.3908203,15.4168242 11.7869062,15.890625 11.0742188,15.890625 L9.40148438,15.890625 C9.18379688,15.2768672 8.59763672,14.8359375 7.91015625,14.8359375 C7.03782422,14.8359375 6.328125,15.5456367 6.328125,16.4179688 C6.328125,17.2903008 7.03782422,18 7.91015625,18 C8.59763672,18 9.18379688,17.5590703 9.40148438,16.9453125 L11.0742188,16.9453125 C12.5281055,16.9453125 13.7109375,15.7624805 13.7109375,14.3085938 L13.7109375,13.78125 L14.2382812,13.78125 C15.1106133,13.78125 15.8203125,13.0715508 15.8203125,12.1992188 C15.8203125,12.1336875 15.8203125,8.39313281 15.8203125,7.91015625 C15.8203125,3.54849609 12.2718164,0 7.91015625,0 Z M3.1640625,8.96484375 C3.1640625,8.67406641 3.40062891,8.4375 3.69140625,8.4375 C3.98218359,8.4375 4.21875,8.67406641 4.21875,8.96484375 L4.21875,13.2539062 C4.21875,13.5446836 3.98218359,13.78125 3.69140625,13.78125 C3.40062891,13.78125 3.1640625,13.5446836 3.1640625,13.2539062 L3.1640625,8.96484375 Z M1.58203125,9.4921875 L2.109375,9.4921875 L2.109375,12.7265625 L1.58203125,12.7265625 C1.29125391,12.7265625 1.0546875,12.4899961 1.0546875,12.1992188 L1.0546875,10.0195312 C1.0546875,9.72875391 1.29125391,9.4921875 1.58203125,9.4921875 Z M7.91015625,16.9453125 C7.61937891,16.9453125 7.3828125,16.7087461 7.3828125,16.4179688 C7.3828125,16.1271914 7.61937891,15.890625 7.91015625,15.890625 C8.20093359,15.890625 8.4375,16.1271914 8.4375,16.4179688 C8.4375,16.7087461 8.20093359,16.9453125 7.91015625,16.9453125 Z M12.65625,13.2539062 C12.65625,13.5446836 12.4196836,13.78125 12.1289062,13.78125 C11.8381289,13.78125 11.6015625,13.5446836 11.6015625,13.2539062 L11.6015625,8.96484375 C11.6015625,8.67406641 11.8381289,8.4375 12.1289062,8.4375 C12.4196836,8.4375 12.65625,8.67406641 12.65625,8.96484375 L12.65625,13.2539062 Z M14.765625,12.1992188 C14.765625,12.4899961 14.5290586,12.7265625 14.2382812,12.7265625 L13.7109375,12.7265625 L13.7109375,9.4921875 L14.2382812,9.4921875 C14.5290586,9.4921875 14.765625,9.72875391 14.765625,10.0195312 L14.765625,12.1992188 Z" id="Shape" stroke="#979797" stroke-width="0.3" fill="#000000" fill-rule="nonzero"></path>
            </g>
        </g>
    </g>
</svg>