<svg viewBox="0 0 71 71">
    <path d="M54.747 37.639h8.554v19.674h-8.554zm-15.398 0h8.555v19.674h-8.555zm-16.253 0h8.555v19.674h-8.555zm-15.397 0h8.554v19.674H7.699zm58.168-6.416v-2.139H5.133v2.139c0 1.181.925 2.138 2.066 2.138h56.602c1.14 0 2.066-.957 2.066-2.138zM68.92 61.59H2.08c-1.149 0-2.08.903-2.08 2.017v5.377C0 70.097.931 71 2.08 71h66.84c1.149 0 2.08-.903 2.08-2.016v-5.377c0-1.114-.931-2.017-2.08-2.017zM2.08 24.807h66.84c.93 0 1.748-.62 2.001-1.518a2.09 2.09 0 00-.91-2.345L36.59.31a2.076 2.076 0 00-2.182 0L.99 20.944a2.089 2.089 0 001.09 3.863zm32.006-12.535h2.828c1.15 0 2.08.934 2.08 2.087 0 1.152-.93 2.086-2.08 2.086h-2.828a2.083 2.083 0 01-2.08-2.086c0-1.153.931-2.087 2.08-2.087z"
          fill="#959AA2"></path>
</svg>
