<?xml version="1.0"?>
<svg xmlns="http://www.w3.org/2000/svg" xmlns:xlink="http://www.w3.org/1999/xlink" xmlns:svgjs="http://svgjs.com/svgjs" version="1.1" width="512" height="512" x="0" y="0" viewBox="0 0 512 512" style="enable-background:new 0 0 512 512" xml:space="preserve" class=""><g>
<path xmlns="http://www.w3.org/2000/svg" style="" d="M51.568,349.088l-50.97,96.791c-1.793,3.406,0.676,7.497,4.525,7.497h242.955  c1.98,0,3.782-1.143,4.626-2.934l47.755-101.353H51.568V349.088z" fill="#f1f2f2" data-original="#f1f2f2" class=""/>
<path xmlns="http://www.w3.org/2000/svg" style="" d="M60.406,453.377H5.12c-3.845,0-6.315-4.093-4.527-7.493l50.976-96.795h55.286l-50.976,96.795  C54.091,449.284,56.562,453.377,60.406,453.377z" fill="#dddddd" data-original="#dddddd" class=""/>
<path xmlns="http://www.w3.org/2000/svg" style="" d="M460.322,75.93h-63.84V6.938h63.84c2.845,0,5.151,2.306,5.151,5.151v58.689  C465.474,73.623,463.168,75.93,460.322,75.93z" fill="#48b474" data-original="#00b494" class=""/>
<rect xmlns="http://www.w3.org/2000/svg" x="396.48" y="6.938" style="" width="27.467" height="68.992" fill="#48b474" data-original="#049b7e" class=""/>
<path xmlns="http://www.w3.org/2000/svg" style="" d="M372.226,510.183h-69.192c-2.854,0-5.168-2.314-5.168-5.168V349.088h79.528v155.927  C377.394,507.869,375.08,510.183,372.226,510.183z" fill="#965b33" data-original="#965b33" class=""/>
<path xmlns="http://www.w3.org/2000/svg" style="" d="M337.629,510.183h-34.596c-2.854,0-5.168-2.314-5.168-5.168V349.088h39.764V510.183z" fill="#7f4620" data-original="#7f4620" class=""/>
<path xmlns="http://www.w3.org/2000/svg" id="SVGCleanerId_0" style="" d="M506.886,349.088H176.014V100.196h198.983  C450.661,100.196,512,161.535,512,237.2v106.774C512,346.799,509.71,349.088,506.886,349.088z" fill="#4f515c" data-original="#d84f48" class=""/>
<g xmlns="http://www.w3.org/2000/svg">
	<path id="SVGCleanerId_0_1_" style="" d="M506.886,349.088H176.014V100.196h198.983   C450.661,100.196,512,161.535,512,237.2v106.774C512,346.799,509.71,349.088,506.886,349.088z" fill="#4f515c" data-original="#d84f48" class=""/>
</g>
<path xmlns="http://www.w3.org/2000/svg" style="" d="M300.46,349.088H51.568V224.642c0-68.73,55.716-124.446,124.446-124.446l0,0  c68.73,0,124.446,55.716,124.446,124.446L300.46,349.088L300.46,349.088z" fill="#262831" data-original="#38444c" class=""/>
<path xmlns="http://www.w3.org/2000/svg" style="" d="M241.722,118.942c-3.068-0.225-6.178-0.338-9.308-0.338c-68.734,0-124.448,55.714-124.448,124.438  v106.047H51.568V224.641c0-68.724,55.714-124.448,124.448-124.448C200.134,100.194,222.657,107.057,241.722,118.942z" fill="#1c1e26" data-original="#2d393f" class=""/>
<circle xmlns="http://www.w3.org/2000/svg" style="" cx="396.48" cy="165.98" r="27.467" fill="#f1f2f2" data-original="#f1f2f2" class=""/>
<path xmlns="http://www.w3.org/2000/svg" style="" d="M419.875,180.386c-4.838,7.839-13.503,13.063-23.391,13.063c-15.172,0-27.47-12.298-27.47-27.466  c0-10.561,5.961-19.733,14.708-24.326c-2.587,4.186-4.076,9.122-4.076,14.403c0,15.169,12.298,27.466,27.47,27.466  C411.72,183.526,416.061,182.392,419.875,180.386z" fill="#dddddd" data-original="#dddddd" class=""/>
<path xmlns="http://www.w3.org/2000/svg" style="" d="M396.032,175.344c-4.268,0-7.727-3.46-7.727-7.727V9.544c0-4.268,3.459-7.727,7.727-7.727  s7.727,3.46,7.727,7.727v158.073C403.759,171.885,400.3,175.344,396.032,175.344z" fill="#48b474" data-original="#00b494" class=""/>
<g xmlns="http://www.w3.org/2000/svg">
</g>
<g xmlns="http://www.w3.org/2000/svg">
</g>
<g xmlns="http://www.w3.org/2000/svg">
</g>
<g xmlns="http://www.w3.org/2000/svg">
</g>
<g xmlns="http://www.w3.org/2000/svg">
</g>
<g xmlns="http://www.w3.org/2000/svg">
</g>
<g xmlns="http://www.w3.org/2000/svg">
</g>
<g xmlns="http://www.w3.org/2000/svg">
</g>
<g xmlns="http://www.w3.org/2000/svg">
</g>
<g xmlns="http://www.w3.org/2000/svg">
</g>
<g xmlns="http://www.w3.org/2000/svg">
</g>
<g xmlns="http://www.w3.org/2000/svg">
</g>
<g xmlns="http://www.w3.org/2000/svg">
</g>
<g xmlns="http://www.w3.org/2000/svg">
</g>
<g xmlns="http://www.w3.org/2000/svg">
</g>
</g></svg>
