<svg xmlns="http://www.w3.org/2000/svg" width="20" height="20" viewBox="0 0 20 20">
    <defs>
        <filter id="q9z5vc6hna">
            <feColorMatrix in="SourceGraphic" values="0 0 0 0 0.584314 0 0 0 0 0.603922 0 0 0 0 0.635294 0 0 0 1.000000 0"/>
        </filter>
    </defs>
    <g fill="none" fill-rule="evenodd">
        <g>
            <g>
                <path d="M0 0H24V24H0z" transform="translate(-158 -57) translate(156 55)"/>
                <g filter="url(#q9z5vc6hna)" transform="translate(-158 -57) translate(156 55)">
                    <g fill="#000" fill-rule="nonzero" stroke="#979797" stroke-width=".4">
                        <path d="M14.648 0H3.352C1.503 0 0 1.504 0 3.352v11.296C0 16.496 1.503 18 3.352 18h11.296C16.497 18 18 16.496 18 14.648V3.352C18 1.504 16.497 0 14.648 0zm2.297 14.648c0 1.267-1.03 2.297-2.297 2.297H3.352c-1.267 0-2.297-1.03-2.297-2.297V3.352c0-1.267 1.03-2.297 2.297-2.297h11.296c1.267 0 2.297 1.03 2.297 2.297v11.296z" transform="translate(3 3)"/>
                        <path d="M13.983 4H4.017c-.286 0-.517.224-.517.5s.231.5.517.5h9.966c.286 0 .517-.224.517-.5s-.231-.5-.517-.5zM13.983 8.5H4.017c-.286 0-.517.224-.517.5s.231.5.517.5h9.966c.286 0 .517-.224.517-.5s-.231-.5-.517-.5zM13.983 13H4.017c-.286 0-.517.224-.517.5s.231.5.517.5h9.966c.286 0 .517-.224.517-.5s-.231-.5-.517-.5z" transform="translate(3 3)"/>
                    </g>
                </g>
            </g>
        </g>
    </g>
</svg>
