<?xml version="1.0" encoding="UTF-8"?>
<svg width="20px" height="20px" viewBox="0 0 20 20" version="1.1" xmlns="http://www.w3.org/2000/svg"
     xmlns:xlink="http://www.w3.org/1999/xlink">
    <g stroke="none" stroke-width="1" fill-rule="evenodd">
        <path d="M16.4220312,0 L3.57796875,0 C1.60507813,0 0,1.60507813 0,3.57796875 L0,16.4220703 C0,18.3949219 1.60507813,20 3.57796875,20 L16.4220703,20 C18.3949219,20 20,18.3949219 20,16.4220312 L20,3.57796875 C20,1.60507813 18.3949219,0 16.4220312,0 Z M18.828125,16.4220312 C18.828125,17.74875 17.74875,18.828125 16.4220312,18.828125 L3.57796875,18.828125 C2.25125,18.828125 1.171875,17.74875 1.171875,16.4220312 L1.171875,3.57796875 C1.171875,2.25125 2.25125,1.171875 3.57796875,1.171875 L16.4220703,1.171875 C17.74875,1.171875 18.828125,2.25125 18.828125,3.57796875 L18.828125,16.4220312 Z"
              id="Shape" fill-rule="nonzero"></path>
        <path d="M17.1982311,4.225466 L8.37189815,4.225466 C8.1292388,3.49251252 7.44754414,2.96296296 6.64604584,2.96296296 C5.84454754,2.96296296 5.16285288,3.49251252 4.92019353,4.225466 L3.54247104,4.225466 C3.22242804,4.225466 2.96296296,4.48933711 2.96296296,4.81481481 C2.96296296,5.14029252 3.22242804,5.40416363 3.54247104,5.40416363 L4.92023216,5.40416363 C5.16289151,6.13711711 5.84458617,6.66666667 6.64608447,6.66666667 C7.44758277,6.66666667 8.12927743,6.13711711 8.37193678,5.40416363 L17.1982697,5.40416363 C17.5183127,5.40416363 17.7777778,5.14029252 17.7777778,4.81481481 C17.7777778,4.48933711 17.5183127,4.225466 17.1982311,4.225466 Z M6.64604584,5.48796903 C6.28107165,5.48796903 5.98413172,5.1859867 5.98413172,4.81481481 C5.98413172,4.44364293 6.28107165,4.1416606 6.64604584,4.1416606 C7.01102002,4.1416606 7.30795996,4.44364293 7.30795996,4.81481481 C7.30795996,5.1859867 7.01102002,5.48796903 6.64604584,5.48796903 Z"
              id="Shape" fill-rule="nonzero"></path>
        <path d="M17.1982311,9.41065118 L15.8204699,9.41065118 C15.5778106,8.6776977 14.8960773,8.14814815 14.0946176,8.14814815 C13.293158,8.14814815 12.6114633,8.6776977 12.368804,9.41065118 L3.54247104,9.41065118 C3.22242804,9.41065118 2.96296296,9.67452229 2.96296296,10 C2.96296296,10.3254777 3.22242804,10.5893488 3.54247104,10.5893488 L12.368804,10.5893488 C12.6114633,11.3223023 13.2931966,11.8518519 14.0946563,11.8518519 C14.8961159,11.8518519 15.5778492,11.3223023 15.8205086,10.5893488 L17.1982697,10.5893488 C17.5183127,10.5893488 17.7777778,10.3254777 17.7777778,10 C17.7777778,9.67452229 17.5183127,9.41065118 17.1982311,9.41065118 Z M14.0946563,10.6731542 C13.7296821,10.6731542 13.4327421,10.3711719 13.4327421,10 C13.4327421,9.62882812 13.7296821,9.32684578 14.0946563,9.32684578 C14.4596305,9.32684578 14.7565704,9.62882812 14.7565704,10 C14.7565704,10.3711719 14.4596305,10.6731542 14.0946563,10.6731542 Z"
              id="Shape" fill-rule="nonzero"></path>
        <path d="M17.1982311,14.5958364 L10.8547812,14.5958364 C10.6121218,13.8628829 9.93042716,13.3333333 9.12892886,13.3333333 C8.32743056,13.3333333 7.6457359,13.8628829 7.40307655,14.5958364 L3.54247104,14.5958364 C3.22242804,14.5958364 2.96296296,14.8597075 2.96296296,15.1851852 C2.96296296,15.5106629 3.22242804,15.774534 3.54247104,15.774534 L7.40307655,15.774534 C7.6457359,16.5074875 8.32743056,17.037037 9.12892886,17.037037 C9.93042716,17.037037 10.6121218,16.5074875 10.8547812,15.774534 L17.1982697,15.774534 C17.5183127,15.774534 17.7777778,15.5106629 17.7777778,15.1851852 C17.7777778,14.8597075 17.5183127,14.5958364 17.1982311,14.5958364 Z M9.12892886,15.8583787 C8.76395468,15.8583787 8.46701474,15.5563964 8.46701474,15.1852245 C8.46701474,14.8140526 8.76395468,14.5120703 9.12892886,14.5120703 C9.49390304,14.5120703 9.79084298,14.8140133 9.79084298,15.1851852 C9.79084298,15.5563571 9.49390304,15.8583787 9.12892886,15.8583787 L9.12892886,15.8583787 Z"
              id="Shape" fill-rule="nonzero"></path>
    </g>
</svg>
