<?xml version="1.0" encoding="UTF-8"?>
<svg width="11px" height="21px" viewBox="0 0 11 21" version="1.1" xmlns="http://www.w3.org/2000/svg" xmlns:xlink="http://www.w3.org/1999/xlink">
    <title>Shape</title>
    <g id="Arena-Pages" stroke="none" stroke-width="1" fill="none" fill-rule="evenodd">
        <g id="Filter-&amp;-Sorting---414px-5" transform="translate(-79.000000, -450.000000)" fill="#959AA2" fill-rule="nonzero">
            <g id="Select-Platform" transform="translate(21.000000, 290.000000)">
                <g id="Games" transform="translate(16.000000, 35.000000)">
                    <g id="Group-Copy" transform="translate(0.000000, 124.000000)">
                        <g id="smartphone" transform="translate(42.000000, 1.000000)">
                            <path d="M8.90577076,0 L2.13054811,0 C0.978698139,0 0,0.937285175 0,2.08647692 L0,17.9303481 C0,19.0795398 0.957990008,20.0144404 2.10983998,20.0144404 L8.89621316,20.0071278 C10.0479038,20.0071278 10.9901238,19.0720682 10.9901238,17.9227175 L11,2.08536413 C10.9998407,0.932039176 10.0622402,0 8.90577076,0 Z M4.53938165,1.25093233 L6.50506118,1.25093233 C6.67773514,1.25093233 6.81839114,1.39082564 6.81839114,1.56362567 C6.81839114,1.73642571 6.67773514,1.87631902 6.50506118,1.87631902 L4.53938165,1.87631902 C4.36622982,1.87631902 4.2260517,1.73642571 4.2260517,1.56362567 C4.2260517,1.39082564 4.36622982,1.25093233 4.53938165,1.25093233 Z M3.35822171,1.35044735 C3.47434654,1.23471743 3.68572877,1.23312773 3.8016943,1.35044735 C3.85983636,1.40831231 3.89424372,1.48954581 3.89424372,1.57252798 C3.89424372,1.65392045 3.85983636,1.73499498 3.8016943,1.79301891 C3.74387083,1.85104284 3.66215336,1.88522132 3.58075447,1.88522132 C3.49776265,1.88522132 3.4179567,1.85104284 3.35822171,1.79301891 C3.30039823,1.73515395 3.26742394,1.65392045 3.26742394,1.57252798 C3.26726522,1.48954581 3.30039823,1.40831231 3.35822171,1.35044735 Z M5.45898197,19.3946177 C4.94191586,19.3946177 4.52138151,18.9746198 4.52138151,18.4587632 C4.52138151,17.9427477 4.94191586,17.5229088 5.45898197,17.5229088 C5.97604808,17.5229088 6.39658243,17.9427477 6.39658243,18.4587632 C6.39658243,18.9746198 5.97588878,19.3946177 5.45898197,19.3946177 Z M10.027355,16.8868711 L1.09673449,16.8868711 L1.09673449,2.97098416 L10.027355,2.97098416 L10.027355,16.8868711 Z" id="Shape"></path>
                        </g>
                    </g>
                </g>
            </g>
        </g>
    </g>
</svg>
