<?xml version="1.0" encoding="UTF-8"?>
<svg width="22px"
     height="21px"
     viewBox="0 0 22 21"
     version="1.1"
     fill="#959aa2"
     xmlns="http://www.w3.org/2000/svg"
     xmlns:xlink="http://www.w3.org/1999/xlink">
    <g>
        <path d="M20.4223321,0 L1.57762954,0 C0.707846318,0 0,0.714381038 0,1.59265814 L0,13.1179901 C0,13.9961898 0.707846318,14.7106869 1.57762954,14.7106869 L8.25590734,14.7106869 L8.25590734,17.1839044 L5.34499093,17.1839044 C4.89812174,17.1839044 4.53519144,17.5497984 4.53519144,18.0016827 L4.53519144,19.1822604 C4.53519144,19.634106 4.89823673,20 5.34499093,20 L16.6550474,20 C17.1019549,20 17.4648469,19.634106 17.4648469,19.1822604 L17.4648469,18.0016827 C17.4648469,17.5497984 17.1018783,17.1839044 16.6550474,17.1839044 L13.744131,17.1839044 L13.744131,14.7106869 L20.4222938,14.7106869 C21.292077,14.7106869 22,13.9962672 22,13.1179901 L22,1.59265814 C22,0.714381038 21.2921537,0 20.4223321,0 Z M1.53569842,13.1179901 L1.57759121,1.54991442 L20.4642249,1.59265814 L20.4642249,13.1599988 L1.53569842,13.1179901 Z M21.23217,12.187879 C21.0132006,12.187879 20.8353575,12.0085101 20.8353575,11.7879834 C20.8353575,11.5665671 21.0132006,11.3875076 21.23217,11.3875076 C21.4511776,11.3875076 21.6287525,11.5664897 21.6287525,11.7879834 C21.6287525,12.0085874 21.4511776,12.187879 21.23217,12.187879 Z M21.23217,10.5181274 C21.0132006,10.5181274 20.8353575,10.3391453 20.8353575,10.117729 C20.8353575,9.89716363 21.0132006,9.7178721 21.23217,9.7178721 C21.4511776,9.7178721 21.6287525,9.897241 21.6287525,10.117729 C21.6287525,10.3391453 21.4511776,10.5181274 21.23217,10.5181274 Z"
              fill-rule="nonzero"/>
    </g>
</svg>
