<?xml version="1.0" encoding="UTF-8"?>
<svg width="64px" height="64px" viewBox="0 0 64 64" version="1.1" xmlns="http://www.w3.org/2000/svg" xmlns:xlink="http://www.w3.org/1999/xlink">
    <title>Group 2</title>
    <g id="Page-1" stroke="none" stroke-width="1" fill="none" fill-rule="evenodd">
        <g id="Gamer-Arena-Settings-Social-Account-360px--3-2" transform="translate(-32.000000, -290.000000)">
            <g id="Group-4-Copy" transform="translate(16.000000, 274.000000)">
                <rect id="Rectangle" fill="none" x="0" y="0" width="328" height="96" rx="8"></rect>
                <g id="Game-Info" transform="translate(16.000000, 16.000000)" fill-rule="nonzero">
                    <g id="Group-2">
                        <g id="discord">
                            <circle id="Oval" fill="#827DDC" cx="32" cy="32" r="32"></circle>
                            <path d="M47.4776817,14.3453806 C46.7726052,13.6417362 45.798427,13.2063492 44.7222707,13.2063492 L19.134307,13.2063492 C16.9824957,13.2063492 15.2380952,14.9468972 15.2380952,17.0939564 L15.2380952,42.6252855 C15.2380952,43.6985651 15.6739448,44.6703419 16.378896,45.3737363 L16.378896,45.3737363 L35.0463858,64 C51.2955934,62.4355819 64,48.7738301 64,32.1501216 C64,31.6981092 63.9882237,31.2487218 63.9696822,30.8012094 L47.4776817,14.3453806 Z" id="Path" fill="#6E64C3"></path>
                            <path d="M44.8491748,13.2063492 L19.1510769,13.2063492 C16.9900038,13.2063492 15.2380952,14.9331041 15.2380952,17.0631487 L15.2380952,42.3922765 C15.2380952,44.5223212 16.9900038,46.249076 19.1510769,46.249076 L40.8683765,46.249076 L39.9868862,42.773864 L48.7619048,50.7936508 C48.7619048,49.8563617 48.7619048,17.9773714 48.7619048,17.0633967 C48.7619048,14.9331041 47.010122,13.2063492 44.8491748,13.2063492 Z" id="Path" fill="#5046AF"></path>
                            <path d="M40.7560614,23.2954074 C40.7560614,23.2954074 39.1548116,21.5814016 35.5190954,21.3333333 L35.5190954,21.8745389 C35.5190954,21.8745389 37.5132077,21.7574095 39.9816356,24.2141135 C38.1183947,22.8587772 35.4603647,22.0097461 32.5079362,22.0097461 C29.5555077,22.0097461 26.8974777,22.8586516 25.0342368,24.2141135 C27.5026647,21.7574095 29.496777,21.8745389 29.496777,21.8745389 L29.496777,21.3333333 C25.8610609,21.5814016 24.2598111,23.2954074 24.2598111,23.2954074 C21.4894105,26.9034442 21.3333333,34.7965582 21.3333333,34.7965582 C23.9429384,37.9762505 27.2218004,37.5705033 27.2218004,37.5705033 L28.4262144,35.811554 C26.873017,35.3867246 25.7638386,34.4113997 25.0971892,33.6518791 C26.9570776,34.9809774 29.5884118,35.811554 32.5079362,35.811554 C35.4274606,35.811554 38.0587948,34.9811029 39.9186832,33.6518791 C39.2520339,34.4112741 38.1428555,35.3867246 36.5896581,35.811554 L37.7940721,37.5705033 C37.7940721,37.5705033 41.072934,37.9765016 43.6825394,34.7965582 C43.6827874,34.7964327 43.5265861,26.9034442 40.7560614,23.2954074 Z M29.0285455,32.5639442 C27.9814504,32.5639442 27.1326489,31.6521429 27.1326489,30.5271736 C27.1326489,29.4023298 27.9814504,28.4904029 29.0285455,28.4904029 C30.0756407,28.4904029 30.9244422,29.4023298 30.9244422,30.5271736 C30.9244422,31.6520173 30.0756407,32.5639442 29.0285455,32.5639442 Z M35.9875752,32.5639442 C34.94048,32.5639442 34.0916786,31.6521429 34.0916786,30.5271736 C34.0916786,29.4023298 34.94048,28.4904029 35.9875752,28.4904029 C37.0346704,28.4904029 37.8834719,29.4023298 37.8834719,30.5271736 C37.8834719,31.6520173 37.0347946,32.5639442 35.9875752,32.5639442 Z" id="Shape" fill="#FFFFFF"></path>
                        </g>
                        <g id="check" transform="translate(44.000000, 0.000000)">
                            <path d="M10,0 C4.48577883,0 0,4.48577883 0,10 C0,15.5142212 4.48577883,20 10,20 C15.5142212,20 20,15.5142212 20,10 C20,4.48577883 15.5142212,0 10,0 Z" id="Path" fill="#2196F3"></path>
                            <path d="M15.5268212,7.79572737 L9.70393261,13.4300942 C9.52924104,13.5991347 9.29992761,13.6842105 9.07061413,13.6842105 C8.84130066,13.6842105 8.61198723,13.5991347 8.43729566,13.4300942 L5.5259334,10.6129108 C5.17556606,10.2740361 5.17556606,9.72612256 5.5259334,9.38724792 C5.87613667,9.04821452 6.44220301,9.04821452 6.79257034,9.38724792 L9.07061413,11.5915999 L14.2601843,6.57006452 C14.6103875,6.23103112 15.1764539,6.23103112 15.5268212,6.57006452 C15.8770245,6.90893916 15.8770245,7.45669397 15.5268212,7.79572737 Z" id="Path" fill="#FAFAFA"></path>
                        </g>
                    </g>
                </g>
            </g>
        </g>
    </g>
</svg>
