<?xml version="1.0" encoding="UTF-8"?>
<svg width="64px" height="64px" viewBox="0 0 64 64" version="1.1" xmlns="http://www.w3.org/2000/svg" xmlns:xlink="http://www.w3.org/1999/xlink">
    <title>Group</title>
    <g id="Page-1" stroke="none" stroke-width="1" fill="none" fill-rule="evenodd">
        <g id="Gamer-Arena-Settings-Social-Account-360px--3-2" transform="translate(-32.000000, -182.000000)">
            <g id="Group-4" transform="translate(16.000000, 166.000000)">
                <rect id="Rectangle" fill="none" x="0" y="0" width="328" height="96" rx="8"></rect>
                <g id="Game-Info" transform="translate(16.000000, 16.000000)" fill-rule="nonzero">
                    <g id="Group">
                        <g id="facebook">
                            <circle id="Oval" fill="#3B5998" cx="31.7723186" cy="31.7723186" r="31.7723186"></circle>
                            <path d="M40.7598584,35.0160708 L35.0904779,35.0160708 L35.0904779,55.7860531 L26.500885,55.7860531 L26.500885,35.0160708 L22.415646,35.0160708 L22.415646,27.7166726 L26.500885,27.7166726 L26.500885,22.9931327 C26.500885,19.615292 28.1054159,14.3259469 35.1669381,14.3259469 L41.5295575,14.3525664 L41.5295575,21.4378761 L36.9130619,21.4378761 C36.155823,21.4378761 35.0910442,21.8162124 35.0910442,23.4275398 L35.0910442,27.723469 L41.5103009,27.723469 L40.7598584,35.0160708 Z" id="Path" fill="#FFFFFF"></path>
                        </g>
                        <g id="check" transform="translate(44.000000, 0.000000)">
                            <path d="M10,0 C4.48577883,0 0,4.48577883 0,10 C0,15.5142212 4.48577883,20 10,20 C15.5142212,20 20,15.5142212 20,10 C20,4.48577883 15.5142212,0 10,0 Z" id="Path" fill="#2196F3"></path>
                            <path d="M15.5268212,7.79572737 L9.70393261,13.4300942 C9.52924104,13.5991347 9.29992761,13.6842105 9.07061413,13.6842105 C8.84130066,13.6842105 8.61198723,13.5991347 8.43729566,13.4300942 L5.5259334,10.6129108 C5.17556606,10.2740361 5.17556606,9.72612256 5.5259334,9.38724792 C5.87613667,9.04821452 6.44220301,9.04821452 6.79257034,9.38724792 L9.07061413,11.5915999 L14.2601843,6.57006452 C14.6103875,6.23103112 15.1764539,6.23103112 15.5268212,6.57006452 C15.8770245,6.90893916 15.8770245,7.45669397 15.5268212,7.79572737 Z" id="Path" fill="#FAFAFA"></path>
                        </g>
                    </g>
                </g>
            </g>
        </g>
    </g>
</svg>
