<?xml version="1.0" encoding="UTF-8"?>
<svg width="64px" height="64px" viewBox="0 0 64 64" version="1.1" xmlns="http://www.w3.org/2000/svg" xmlns:xlink="http://www.w3.org/1999/xlink">
    <title>discord</title>
    <g id="Page-1" stroke="none" stroke-width="1" fill="none" fill-rule="evenodd">
        <g id="Gamer-Arena-Settings-Social-Account-360px--3-1" transform="translate(-32.000000, -310.000000)">
            <g id="Group-4" transform="translate(16.000000, 294.000000)">
                <rect id="Rectangle" fill="none" x="0" y="0" width="328" height="96" rx="8"></rect>
                <g id="Game-Info" transform="translate(16.000000, 16.000000)" fill-rule="nonzero">
                    <g id="discord">
                        <circle id="Oval" fill="#959AA2" cx="32" cy="32" r="32"></circle>
                        <path d="M48.1371959,19.0512406 C48.1371959,19.0512406 45.1030095,15.8033944 38.2137405,15.3333333 L38.2137405,16.3588563 C38.2137405,16.3588563 41.9923567,16.1369094 46.669747,20.7920843 C43.1391173,18.223876 38.1024525,16.6150586 32.507936,16.6150586 C26.9134195,16.6150586 21.8767547,18.2236381 18.3461249,20.7920843 C23.0235153,16.1369094 26.8021315,16.3588563 26.8021315,16.3588563 L26.8021315,15.3333333 C19.9128625,15.8033944 16.8786761,19.0512406 16.8786761,19.0512406 C11.6290818,25.8880604 11.3333333,40.8446147 11.3333333,40.8446147 C16.2782384,46.8697703 22.4913092,46.1009254 22.4913092,46.1009254 L24.7735369,42.7679163 C21.8304043,41.9629129 19.7286373,40.114783 18.4654125,38.6755777 C21.9896897,41.194068 26.975769,42.7679163 32.507936,42.7679163 C38.040103,42.7679163 43.0261823,41.1943059 46.5504595,38.6755777 C45.2872347,40.1145451 43.1854677,41.9629129 40.2423351,42.7679163 L42.5245628,46.1009254 C42.5245628,46.1009254 48.7376336,46.870246 53.6825392,40.8446147 C53.6830092,40.8443768 53.3870255,25.8880604 48.1371959,19.0512406 Z M25.9148861,36.6140648 C23.9307596,36.6140648 22.3223773,34.8863048 22.3223773,32.7546158 C22.3223773,30.6231647 23.9307596,28.8951668 25.9148861,28.8951668 C27.8990125,28.8951668 29.5073948,30.6231647 29.5073948,32.7546158 C29.5073948,34.886067 27.8990125,36.6140648 25.9148861,36.6140648 Z M39.1014565,36.6140648 C37.1173301,36.6140648 35.5089478,34.8863048 35.5089478,32.7546158 C35.5089478,30.6231647 37.1173301,28.8951668 39.1014565,28.8951668 C41.0855829,28.8951668 42.6939652,30.6231647 42.6939652,32.7546158 C42.6939652,34.886067 41.0858182,36.6140648 39.1014565,36.6140648 Z" id="Shape" fill="#FFFFFF"></path>
                    </g>
                </g>
            </g>
        </g>
    </g>
</svg>
