<svg width="64" height="64" viewBox="0 0 64 64" fill="none" xmlns="http://www.w3.org/2000/svg">
    <path d="M32 64C49.6731 64 64 49.6731 64 32C64 14.3269 49.6731 0 32 0C14.3269 0 0 14.3269 0 32C0 49.6731 14.3269 64 32 64Z"
          fill="#959AA2"/>
    <path d="M31.9584 8C19.3292 8 8.98314 17.7212 8 30.0753L20.8857 35.3938C21.9776 34.6484 23.2966 34.2117 24.7156 34.2117C24.8427 34.2117 24.9694 34.216 25.0949 34.2231L30.8253 25.9314C30.8253 25.8918 30.8247 25.8533 30.8247 25.8142C30.8247 20.8234 34.8915 16.7631 39.8915 16.7631C44.8909 16.7631 48.9577 20.8234 48.9577 25.8142C48.9577 30.8051 44.8909 34.866 39.8915 34.866C39.8225 34.866 39.754 34.8643 39.6855 34.8627L31.5128 40.6841C31.5171 40.7899 31.5209 40.8979 31.5209 41.0053C31.5209 44.7521 28.4682 47.799 24.7156 47.799C21.4216 47.799 18.6673 45.452 18.0434 42.3438L8.82825 38.5406C11.6815 48.6144 20.9526 56 31.9584 56C45.2365 56 56 45.2545 56 32.0008C56 18.745 45.236 8 31.9584 8Z"
          fill="white"/>
</svg>
