<?xml version="1.0" encoding="UTF-8"?>
<svg width="64px" height="64px" viewBox="0 0 64 64" version="1.1" xmlns="http://www.w3.org/2000/svg" xmlns:xlink="http://www.w3.org/1999/xlink">
    <title>youtube</title>
    <g id="Page-1" stroke="none" stroke-width="1" fill="none" fill-rule="evenodd">
        <g id="Gamer-Arena-Settings-Social-Account-360px--3-1" transform="translate(-32.000000, -418.000000)">
            <g id="Group-4" transform="translate(16.000000, 402.000000)">
                <rect id="Rectangle" fill="none" x="0" y="0" width="328" height="96" rx="8"></rect>
                <g id="Game-Info" transform="translate(16.000000, 16.000000)" fill-rule="nonzero">
                    <g id="youtube">
                        <circle id="Oval" fill="#959AA2" cx="32" cy="32" r="32"></circle>
                        <path d="M42.706125,19.041625 L21.293875,19.041625 C17.092875,19.041625 13.687375,22.44725 13.687375,26.648125 L13.687375,37.352125 C13.687375,41.553125 17.093,44.958625 21.293875,44.958625 L42.706125,44.958625 C46.907125,44.958625 50.312625,41.553 50.312625,37.352125 L50.312625,26.648125 C50.312625,22.44725 46.907,19.041625 42.706125,19.041625 L42.706125,19.041625 Z M37.56175,32.520875 L27.54675,37.297375 C27.27975,37.42475 26.971375,37.230375 26.971375,36.93475 L26.971375,27.083 C26.971375,26.783 27.287875,26.588625 27.555125,26.72425 L37.570125,31.799375 C37.868375,31.95025 37.863,32.377375 37.56175,32.520875 L37.56175,32.520875 Z" id="Shape" fill="#FFFFFF"></path>
                        <path d="M42.706125,19.041625 L31.7845,19.041625 L31.7845,28.86725 L37.570375,31.799125 C37.868375,31.950125 37.863,32.377125 37.56175,32.52075 L31.7845,35.27625 L31.7845,44.958625 L42.706125,44.958625 C46.907125,44.958625 50.312625,41.553 50.312625,37.352125 L50.312625,26.648125 C50.312625,22.44725 46.907,19.041625 42.706125,19.041625 Z" id="Path" fill="#FFFFFF"></path>
                    </g>
                </g>
            </g>
        </g>
    </g>
</svg>
