<svg width="64" height="64" viewBox="0 0 64 64" fill="none" xmlns="http://www.w3.org/2000/svg">
    <g clip-path="url(#clip0)">
        <path d="M1.34348 41.2045C5.29692 54.3918 17.5264 64 32.0003 64C49.6731 64 64.0003 49.6728 64.0003 32C64.0003 14.3269 49.6731 0 32.0003 0C15.0414 0 1.16494 13.1925 0.0689735 29.874C2.1398 33.3514 2.94787 35.5021 1.34378 41.2045H1.34348Z"
              fill="url(#paint0_linear)"/>
        <path d="M30.3519 23.9854C30.3519 24.0393 30.3519 24.0931 30.3547 24.1437L22.5242 35.5186C21.2557 35.4609 19.9828 35.6834 18.7759 36.1806C18.2438 36.3976 17.7453 36.664 17.2775 36.9717L0.0829546 29.8932C0.0830892 29.8932 -0.314917 36.4388 1.34318 41.3171L13.4988 46.3327C14.1091 49.0603 15.9802 51.4527 18.7407 52.6036C23.2573 54.4906 28.4649 52.3399 30.3437 47.8215C30.8326 46.6403 31.0606 45.4015 31.0276 44.1655L42.2318 36.1586C42.3224 36.1614 42.4158 36.1641 42.5064 36.1641C49.2113 36.1641 54.661 30.698 54.661 23.9854C54.661 17.2723 49.2113 11.8112 42.5064 11.8112C35.8043 11.8112 30.3519 17.2723 30.3519 23.9854ZM28.4731 47.0359C27.019 50.527 23.007 52.1833 19.5197 50.7303C17.9109 50.0601 16.6963 48.8323 15.9956 47.3682L19.9523 49.0081C22.5242 50.0793 25.4748 48.8597 26.5438 46.2888C27.6161 43.715 26.3996 40.7595 23.8292 39.6882L19.7389 37.9935C21.3172 37.3947 23.1114 37.3727 24.7878 38.0704C26.4779 38.7736 27.7892 40.0975 28.4841 41.7895C29.1791 43.4815 29.1763 45.3494 28.4731 47.0359V47.0359ZM42.5064 32.0989C38.0429 32.0989 34.4089 28.4594 34.4089 23.9854C34.4089 19.5151 38.0429 15.8745 42.5064 15.8745C46.9727 15.8745 50.6067 19.5151 50.6067 23.9854C50.6067 28.4594 46.9727 32.0989 42.5064 32.0989ZM36.4388 23.9731C36.4388 20.6075 39.1636 17.8777 42.5202 17.8777C45.8795 17.8777 48.6043 20.6075 48.6043 23.9731C48.6043 27.339 45.8795 30.0663 42.5202 30.0663C39.1636 30.0663 36.4388 27.339 36.4388 23.9731V23.9731Z"
              fill="white"/>
    </g>
    <path d="M54 0C48.4858 0 44 4.48578 44 10C44 15.5142 48.4858 20 54 20C59.5142 20 64 15.5142 64 10C64 4.48578 59.5142 0 54 0Z"
          fill="#2196F3"/>
    <path d="M59.5268 7.79573L53.7039 13.4301C53.5292 13.5991 53.2999 13.6842 53.0706 13.6842C52.8413 13.6842 52.612 13.5991 52.4373 13.4301L49.5259 10.6129C49.1756 10.274 49.1756 9.72612 49.5259 9.38725C49.8761 9.04821 50.4422 9.04821 50.7926 9.38725L53.0706 11.5916L58.2602 6.57006C58.6104 6.23103 59.1765 6.23103 59.5268 6.57006C59.877 6.90894 59.877 7.45669 59.5268 7.79573Z"
          fill="#FAFAFA"/>
    <defs>
        <linearGradient id="paint0_linear" x1="32.0346" y1="0" x2="32.0346" y2="64" gradientUnits="userSpaceOnUse">
            <stop stop-color="#111D2E"/>
            <stop offset="0.21248" stop-color="#051839"/>
            <stop offset="0.40695" stop-color="#0A1B48"/>
            <stop offset="0.5811" stop-color="#132E62"/>
            <stop offset="0.7376" stop-color="#144B7E"/>
            <stop offset="0.87279" stop-color="#136497"/>
            <stop offset="1" stop-color="#1387B8"/>
        </linearGradient>
        <clipPath id="clip0">
            <rect width="64" height="64" fill="white"/>
        </clipPath>
    </defs>
</svg>
