<?xml version="1.0" encoding="UTF-8"?>
<svg width="64px" height="64px" viewBox="0 0 64 64" version="1.1" xmlns="http://www.w3.org/2000/svg" xmlns:xlink="http://www.w3.org/1999/xlink">
    <title>Group 3</title>
    <g id="Page-1" stroke="none" stroke-width="1" fill="none" fill-rule="evenodd">
        <g id="Gamer-Arena-Settings-Social-Account-360px--3-2" transform="translate(-32.000000, -398.000000)">
            <g id="Group-4-Copy" transform="translate(16.000000, 382.000000)">
                <rect id="Rectangle" fill="none" x="0" y="0" width="328" height="96" rx="8"></rect>
                <g id="Game-Info" transform="translate(16.000000, 16.000000)" fill-rule="nonzero">
                    <g id="Group-3">
                        <g id="youtube">
                            <circle id="Oval" fill="#D22215" cx="32" cy="32" r="32"></circle>
                            <path d="M48.107125,21.292375 C47.1475,21.58525 46.146875,21.836875 45.14475,22.0875 C38.033625,23.595875 28.552125,19.501625 24.457875,26.18175 C21.04325,31.4935 19.965125,38.14025 16.08075,42.889625 L36.828625,63.6375 C50.637375,61.5475 61.55025,50.633 63.638125,36.823625 L48.107125,21.292375 Z" id="Path" fill="#A81411"></path>
                            <path d="M42.706125,19.041625 L21.293875,19.041625 C17.092875,19.041625 13.687375,22.44725 13.687375,26.648125 L13.687375,37.352125 C13.687375,41.553125 17.093,44.958625 21.293875,44.958625 L42.706125,44.958625 C46.907125,44.958625 50.312625,41.553 50.312625,37.352125 L50.312625,26.648125 C50.312625,22.44725 46.907,19.041625 42.706125,19.041625 L42.706125,19.041625 Z M37.56175,32.520875 L27.54675,37.297375 C27.27975,37.42475 26.971375,37.230375 26.971375,36.93475 L26.971375,27.083 C26.971375,26.783 27.287875,26.588625 27.555125,26.72425 L37.570125,31.799375 C37.868375,31.95025 37.863,32.377375 37.56175,32.520875 L37.56175,32.520875 Z" id="Shape" fill="#FFFFFF"></path>
                            <path d="M42.706125,19.041625 L31.7845,19.041625 L31.7845,28.86725 L37.570375,31.799125 C37.868375,31.950125 37.863,32.377125 37.56175,32.52075 L31.7845,35.27625 L31.7845,44.958625 L42.706125,44.958625 C46.907125,44.958625 50.312625,41.553 50.312625,37.352125 L50.312625,26.648125 C50.312625,22.44725 46.907,19.041625 42.706125,19.041625 Z" id="Path" fill="#D1D1D1"></path>
                        </g>
                        <g id="check" transform="translate(44.000000, 0.000000)">
                            <path d="M10,0 C4.48577883,0 0,4.48577883 0,10 C0,15.5142212 4.48577883,20 10,20 C15.5142212,20 20,15.5142212 20,10 C20,4.48577883 15.5142212,0 10,0 Z" id="Path" fill="#2196F3"></path>
                            <path d="M15.5268212,7.79572737 L9.70393261,13.4300942 C9.52924104,13.5991347 9.29992761,13.6842105 9.07061413,13.6842105 C8.84130066,13.6842105 8.61198723,13.5991347 8.43729566,13.4300942 L5.5259334,10.6129108 C5.17556606,10.2740361 5.17556606,9.72612256 5.5259334,9.38724792 C5.87613667,9.04821452 6.44220301,9.04821452 6.79257034,9.38724792 L9.07061413,11.5915999 L14.2601843,6.57006452 C14.6103875,6.23103112 15.1764539,6.23103112 15.5268212,6.57006452 C15.8770245,6.90893916 15.8770245,7.45669397 15.5268212,7.79572737 Z" id="Path" fill="#FAFAFA"></path>
                        </g>
                    </g>
                </g>
            </g>
        </g>
    </g>
</svg>
