<svg xmlns="http://www.w3.org/2000/svg" viewBox="0 0 28 14">
    <g fill="none" fill-rule="evenodd">
        <g fill-rule="nonzero">
            <path d="M27.68 6.013l-.002-.001L21.963.319c-.428-.427-1.12-.425-1.547.004-.426.428-.424 1.121.004 1.548l3.837 3.822H1.094C.49 5.693 0 6.183 0 6.788s.49 1.095 1.094 1.095h23.163l-3.837 3.822c-.428.426-.43 1.12-.004 1.548.427.429 1.12.43 1.547.004l5.715-5.693.001-.001c.429-.428.427-1.124 0-1.55z" transform="translate(-1025 -5703) translate(0 4944) translate(319 459) translate(706 300) matrix(-1 0 0 1 28 0)"/>
        </g>
    </g>
</svg>
