<svg width="65px" height="48px" viewBox="0 0 65 48" version="1.1" xmlns="http://www.w3.org/2000/svg" xmlns:xlink="http://www.w3.org/1999/xlink">
    <g>
        <g transform="translate(-588.000000, -5420.000000)">
            <g transform="translate(0.000000, 4944.000000)">
                <g transform="translate(319.000000, 459.000000)">
                    <path d="M283.487346,64.6296296 C291.624074,64.6296296 297.974691,58.2790123 297.974691,50.3407407 C297.974691,42.2040123 291.624074,35.8533951 283.487346,35.8533951 C283.487346,30.2966049 285.075,24.3429012 287.456481,19.1830247 C288.051852,17.992284 287.456481,17 286.067284,17 L283.487346,17 C282.693519,17 282.098148,17.1984568 281.304321,17.992284 C276.541358,23.3506173 269,35.0595679 269,48.3561728 C269,58.2790123 275.549074,64.6296296 283.487346,64.6296296 Z M318.812654,64.6296296 C326.949383,64.6296296 333.3,58.2790123 333.3,50.3407407 C333.3,42.2040123 326.949383,35.8533951 318.812654,35.8533951 C318.812654,30.2966049 320.400309,24.3429012 322.78179,19.1830247 C323.37716,17.992284 322.78179,17 321.392593,17 L318.812654,17 C318.018827,17 317.423457,17.1984568 316.62963,17.992284 C311.866667,23.3506173 304.325309,35.0595679 304.325309,48.3561728 C304.325309,58.2790123 310.874383,64.6296296 318.812654,64.6296296 Z" id="“"></path>
                </g>
            </g>
        </g>
    </g>
</svg>
