<?xml version="1.0" encoding="UTF-8"?>
<svg width="64px" height="64px" viewBox="0 0 64 64" version="1.1" xmlns="http://www.w3.org/2000/svg"
     xmlns:xlink="http://www.w3.org/1999/xlink">
    <g id="Page-1" stroke="none" stroke-width="1" fill="none" fill-rule="evenodd">
        <circle id="Oval" cx="32" cy="32" r="32" fill="#b8b8ba"></circle>
        <path d="M48.846835,19.92319 C48.846835,19.92319 45.6442217,16.4960153 38.3725313,16 L38.3725313,17.0821468 C38.3725313,17.0821468 42.3608974,16.8479452 47.2979285,21.7601536 C43.5713144,19.0501428 38.2550657,17.3524952 32.3499991,17.3524952 C26.4449325,17.3524952 21.1286839,19.0498918 17.4020698,21.7601536 C22.3391008,16.8479452 26.3274669,17.0821468 26.3274669,17.0821468 L26.3274669,16 C19.0557765,16.4960153 15.8531632,19.92319 15.8531632,19.92319 C10.3121654,27.1375019 10,42.919876 10,42.919876 C15.2193954,49.277708 21.7773521,48.4664117 21.7773521,48.4664117 L24.1862656,44.9493719 C21.0797606,44.0999205 18.861325,42.1497469 17.527979,40.6310765 C21.2478878,43.2886242 26.510743,44.9493719 32.3499991,44.9493719 C38.1892552,44.9493719 43.4521104,43.2888752 47.1720193,40.6310765 C45.8386732,42.1494959 43.6202377,44.0999205 40.5137326,44.9493719 L42.9226461,48.4664117 C42.9226461,48.4664117 49.4806028,49.27821 54.6999988,42.919876 C54.7004949,42.919625 54.3880812,27.1375019 48.846835,19.92319 Z M25.3909708,38.4557381 C23.296706,38.4557381 21.5990428,36.6325806 21.5990428,34.3831913 C21.5990428,32.134053 23.296706,30.3106444 25.3909708,30.3106444 C27.4852355,30.3106444 29.1828987,32.134053 29.1828987,34.3831913 C29.1828987,36.6323296 27.4852355,38.4557381 25.3909708,38.4557381 Z M39.3095242,38.4557381 C37.2152594,38.4557381 35.5175962,36.6325806 35.5175962,34.3831913 C35.5175962,32.134053 37.2152594,30.3106444 39.3095242,30.3106444 C41.4037889,30.3106444 43.1014521,32.134053 43.1014521,34.3831913 C43.1014521,36.6323296 41.4040372,38.4557381 39.3095242,38.4557381 Z"
              id="Shape" fill="black"></path>
    </g>
</svg>
