<svg xmlns="http://www.w3.org/2000/svg" width="24" height="24" viewBox="0 0 24 24">
    <g fill-rule="evenodd">
        <g fill-rule="nonzero">
            <g>
                <g>
                    <path d="M11.916 0C5.346 0 0 5.346 0 11.916s5.346 11.917 11.916 11.917 11.917-5.346 11.917-11.917C23.833 5.346 18.488 0 11.916 0zm5.316 9.19c.006.117.009.236.009.355 0 3.625-2.758 7.803-7.805 7.803-1.549 0-2.99-.453-4.204-1.232.215.026.433.039.654.039 1.286 0 2.468-.439 3.407-1.174-1.2-.022-2.213-.815-2.562-1.905.167.031.339.05.515.05.25 0 .493-.034.723-.096-1.255-.252-2.2-1.36-2.2-2.69v-.034c.37.205.793.328 1.242.342-.735-.49-1.22-1.33-1.22-2.282 0-.503.136-.974.372-1.38 1.352 1.66 3.374 2.752 5.653 2.867-.047-.201-.07-.41-.07-.625 0-1.515 1.227-2.743 2.741-2.743.79 0 1.501.333 2.002.866.626-.123 1.211-.35 1.743-.666-.207.64-.64 1.178-1.208 1.518.556-.067 1.085-.213 1.576-.432-.366.55-.831 1.033-1.368 1.418z"
                          transform="translate(-1252 -7302) translate(130 7179) translate(1122 123)"/>
                </g>
            </g>
        </g>
    </g>
</svg>
