<?xml version="1.0" encoding="UTF-8"?>
<svg width="441px" height="49px" viewBox="0 0 441 49" version="1.1" xmlns="http://www.w3.org/2000/svg" xmlns:xlink="http://www.w3.org/1999/xlink">
    <title>Gamer Arena Logo</title>
    <g id="Gamer-Arena-Logo" stroke="none" stroke-width="1" fill="none" fill-rule="evenodd">
        <path d="M253.66,49 L254.64,39.13 L261.36,39.13 L262.27,49 L277.6,49 L277.6,42.91 L270.74,-7.10542736e-15 L245.26,-7.10542736e-15 L238.4,42.91 L238.4,49 L253.66,49 Z M260.24,26.88 L255.76,26.88 L257.16,12.32 L258.84,12.32 L260.24,26.88 Z M297.13,49 L297.13,33.74 L300.21,33.74 L304.34,49 L319.32,49 L319.32,42.91 L314.49,30.87 C316.8,30.24 318.55,27.65 318.55,25.34 L318.55,6.09 C318.55,2.52 316.03,-7.10542736e-15 312.46,-7.10542736e-15 L281.8,-7.10542736e-15 L281.8,49 L297.13,49 Z M303.22,21.49 L297.13,21.49 L297.13,12.32 L303.22,12.32 L303.22,21.49 Z M356.28,49 L356.28,36.75 L338.78,36.75 L338.78,30.03 L353.83,30.03 L353.83,17.78 L338.78,17.78 L338.78,12.32 L353.83,12.32 L356.28,6.09 L356.28,-7.10542736e-15 L323.52,-7.10542736e-15 L323.52,49 L356.28,49 Z M374.55,49 L374.55,42.91 L372.59,26.39 L373.78,26.39 L380.99,49 L397.23,49 L397.23,-7.10542736e-15 L383.09,-7.10542736e-15 L383.09,6.09 L385.12,22.68 L383.86,22.68 L376.72,-7.10542736e-15 L360.48,-7.10542736e-15 L360.48,49 L374.55,49 Z M416.69,49 L417.67,39.13 L424.39,39.13 L425.3,49 L440.63,49 L440.63,42.91 L433.77,-7.10542736e-15 L408.29,-7.10542736e-15 L401.43,42.91 L401.43,49 L416.69,49 Z M423.27,26.88 L418.79,26.88 L420.19,12.32 L421.87,12.32 L423.27,26.88 Z" id="ARENA" fill="#EB2C44" fill-rule="nonzero"></path>
        <path d="M37.55,49 L37.55,20.3 L22.22,20.3 L22.22,36.75 L16.13,36.75 L16.13,12.32 L34.82,12.32 L37.27,6.09 L37.27,-7.10542736e-15 L6.96,-7.10542736e-15 C3.32,-7.10542736e-15 0.8,2.52 0.8,6.09 L0.8,42.91 C0.8,46.48 3.32,49 6.96,49 L37.55,49 Z M57.01,49 L57.99,39.13 L64.71,39.13 L65.62,49 L80.95,49 L80.95,42.91 L74.09,-7.10542736e-15 L48.61,-7.10542736e-15 L41.75,42.91 L41.75,49 L57.01,49 Z M63.59,26.88 L59.11,26.88 L60.51,12.32 L62.19,12.32 L63.59,26.88 Z M98.73,49 L98.73,25.48 L99.92,25.48 L103.7,49 L116.51,49 L120.29,25.48 L121.55,25.48 L121.55,49 L136.46,49 L136.46,42.91 L131.49,-7.10542736e-15 L114.34,-7.10542736e-15 L110.63,19.32 L109.58,19.32 L105.87,-7.10542736e-15 L88.79,-7.10542736e-15 L83.75,42.91 L83.75,49 L98.73,49 Z M173.42,49 L173.42,36.75 L155.92,36.75 L155.92,30.03 L170.97,30.03 L170.97,17.78 L155.92,17.78 L155.92,12.32 L170.97,12.32 L173.42,6.09 L173.42,-7.10542736e-15 L140.66,-7.10542736e-15 L140.66,49 L173.42,49 Z M192.95,49 L192.95,33.74 L196.03,33.74 L200.16,49 L215.14,49 L215.14,42.91 L210.31,30.87 C212.62,30.24 214.37,27.65 214.37,25.34 L214.37,6.09 C214.37,2.52 211.85,-7.10542736e-15 208.28,-7.10542736e-15 L177.62,-7.10542736e-15 L177.62,49 L192.95,49 Z M199.04,21.49 L192.95,21.49 L192.95,12.32 L199.04,12.32 L199.04,21.49 Z" id="GAMER" fill="#F2F2F2" fill-rule="nonzero"></path>
    </g>
</svg>
