<?xml version="1.0" encoding="UTF-8"?>
<svg width="18px" height="18px" viewBox="0 0 18 18" version="1.1" xmlns="http://www.w3.org/2000/svg" xmlns:xlink="http://www.w3.org/1999/xlink">
    <title>Path</title>
    <g id="Symbols" stroke="none" stroke-width="1" fill-rule="evenodd">
        <g id="Popups/Header+Steps/Right-Button" transform="translate(-851.000000, -26.000000)" fill-rule="nonzero">
            <g id="Path" transform="translate(848.000000, 23.000000)">
                <path d="M19.9375416,17.7548377 L14.112,11.98575 L14.112,11.98575 L19.8784343,6.16730874 C20.4597598,5.58074031 20.455536,4.63398324 19.869,4.052625 C19.2827306,3.47153097 18.3363955,3.47572646 17.7553015,4.06199589 C17.7551478,4.06215095 17.7549941,4.06230605 17.7548405,4.06246118 L11.9895,9.88425 L11.9895,9.88425 L6.16631491,4.11691063 C5.58072417,3.53693584 4.63653953,3.53921047 4.05375,4.122 C3.47435144,4.70139856 3.47435144,5.64078924 4.05375,6.2201878 C4.0552986,6.22173639 4.05685062,6.22328156 4.05840606,6.22482328 L9.8895,12.0045 L9.8895,12.0045 L4.11685689,17.8336319 C3.53690325,18.4192607 3.53920185,19.3634519 4.122,19.94625 C4.70143204,20.525682 5.64087699,20.525682 6.22030903,19.94625 C6.22183751,19.9447215 6.22336264,19.9431897 6.22488443,19.9416546 L12.00975,14.106 L12.00975,14.106 L17.83281,19.8783144 C18.4192698,20.4596635 19.3659659,20.4555204 19.947315,19.8690606 C19.947335,19.8690404 19.947355,19.8690202 19.947375,19.869 C20.5284706,19.282729 20.5242751,18.3363914 19.9380041,17.7552958 C19.93785,17.7551431 19.9376958,17.7549904 19.9375416,17.7548377 Z"></path>
            </g>
        </g>
    </g>
</svg>
