<?xml version="1.0" encoding="UTF-8"?>
<svg width="174px" height="207px" viewBox="0 0 174 207" version="1.1" xmlns="http://www.w3.org/2000/svg" xmlns:xlink="http://www.w3.org/1999/xlink">
    <title>Group 4</title>
    <g id="Profile-Page" stroke="none" stroke-width="1" fill="none" fill-rule="evenodd">
        <g id="Gamer-Arena-Empty-Profile-2-360px" transform="translate(-88.000000, -516.000000)">
            <g id="Group-4" transform="translate(88.000000, 516.000000)">
                <rect id="Rectangle" fill="#17181F" x="165" y="104" width="9" height="103"></rect>
                <rect id="Rectangle" fill="#262831" x="161" y="104" width="5" height="103"></rect>
                <path d="M10.4218833,0 L168,0 C171.313708,-6.08718376e-16 174,2.6862915 174,6 L174,106 C174,109.313708 171.313708,112 168,112 L10.4218833,112 C7.10817476,112 4.42188326,109.313708 4.42188326,106 C4.42188326,104.941775 4.70176044,103.902374 5.23312539,102.987229 L30.7662091,59.0127715 C31.8478653,57.1498847 31.8478653,54.8501153 30.7662091,52.9872285 L5.23312539,9.01277145 C3.56921767,6.14709961 4.54343997,2.47514986 7.40911181,0.811242136 C8.32425725,0.279877184 9.36365838,1.94392757e-16 10.4218833,0 Z" id="Rectangle" fill="#1C1E26"></path>
                <g id="Icons/Swords/Secondary" transform="translate(60.000000, 10.000000)">
                    <rect id="Rectangle" x="0" y="0" width="84" height="84"></rect>
                    <g id="Sword" transform="translate(14.000000, 14.000000)" fill-rule="nonzero">
                        <path d="M54.2634824,45.8789409 L46.7003367,38.3157895 L38.3157895,46.7002352 L45.879043,54.2634945 C48.1943819,56.5788352 51.9482513,56.5788352 54.2635902,54.2634945 C56.5788212,51.9481539 56.5788212,48.1942816 54.2634824,45.8789409 L54.2634824,45.8789409 Z" id="Path" fill="#EB2C44"></path>
                        <path d="M26.2945879,44.2105263 C26.6858645,44.2105263 27.0773449,44.0611723 27.3758487,43.7625662 C27.9730602,43.1653539 27.9730602,42.1971524 27.3758487,41.5999402 L25.5791167,39.8032061 L55.4387761,15.3902957 C55.793963,15.0998455 56,14.6652405 56,14.2063719 L56,1.52922216 C56,0.684683736 55.3153171,0 54.4707796,0 L41.7934406,0 C41.3345725,0 40.8999681,0.206037199 40.6095181,0.561224533 L16.1967378,30.4208165 L14.4000058,28.6240824 C13.8028962,28.0269721 12.8345939,28.0268701 12.2373823,28.6240824 C11.6401708,29.2212946 11.6401708,30.1894961 12.2373823,30.7867083 L25.2132252,43.7625662 C25.511831,44.0612742 25.9031075,44.2105263 26.2945879,44.2105263 Z M46.4792777,7.3581073 C47.0763873,6.76089507 48.0446896,6.76089507 48.6419012,7.3581073 C49.2391127,7.95531953 49.2391127,8.92352105 48.6419012,9.52073328 L21.969239,36.1934262 L19.8066155,34.0308002 L46.4792777,7.3581073 Z" id="Shape" fill="#464853"></path>
                        <path d="M10.1210591,54.2634824 L17.6842105,46.7003367 L9.29976475,38.3157895 L1.73650548,45.879043 C-0.578835162,48.1943819 -0.578835162,51.9482513 1.73650548,54.2635902 C4.05184613,56.5788212 7.80571841,56.5788212 10.1210591,54.2634824 L10.1210591,54.2634824 Z" id="Path" fill="#464853"></path>
                        <path d="M0.548556176,17.9472075 L12.3653829,29.4736842 L16.9647848,22.7619234 L7.1920149,11.1024146 C6.60828337,10.4061063 6.60828337,9.27693834 7.1920149,8.58051113 C7.77574643,7.88408391 8.72209303,7.88408391 9.30582456,8.58051113 L18.8665459,19.9870331 L23.5789474,13.1104979 L15.0429947,0.654460876 C14.7591007,0.2402662 14.334306,0 13.8857953,0 L1.49470348,0 C0.669228571,0 0,0.798430381 0,1.78327214 L0,16.5667171 C0,17.1018176 0.201386382,17.6085047 0.548556176,17.9472075 Z" id="Path" fill="#EB2C44"></path>
                        <path d="M44.2786851,29.9676858 L42.297071,31.949314 L41.5374373,31.020229 L37.0632891,34.6782131 L38.3157403,35.9306732 L35.9305849,38.3158457 L34.4387524,36.8240026 L29.8468813,40.5782346 L31.9492541,42.2970924 L29.9676401,44.2787207 C29.3090885,44.937277 29.308976,46.0052244 29.9676401,46.6638932 C30.6263041,47.3225619 31.6941315,47.3225619 32.3527955,46.6638932 L46.6638405,32.3527458 C46.9931725,32.0234114 47.1578947,31.5918698 47.1578947,31.1602158 C47.1578947,30.7286742 46.9931725,30.2969077 46.6638405,29.9676858 C46.0051764,29.309017 44.9373491,29.309017 44.2786851,29.9676858 L44.2786851,29.9676858 Z" id="Path" fill="#EB2C44"></path>
                    </g>
                </g>
            </g>
        </g>
    </g>
</svg>
