<?xml version="1.0" encoding="UTF-8"?>
<svg width="162px" height="136px" viewBox="0 0 162 136" version="1.1" xmlns="http://www.w3.org/2000/svg" xmlns:xlink="http://www.w3.org/1999/xlink">
    <title>Thropy</title>
    <g id="Tournament-Page" stroke="none" stroke-width="1" fill="none" fill-rule="evenodd">
        <g id="1-2-LB-Tournament-Detail-Future-Ranking-576px" transform="translate(-201.000000, -638.000000)">
            <g id="Tournament-Leaderboard" transform="translate(118.000000, 573.000000)">
                <g id="Icons/Thropy/Secondary" transform="translate(83.000000, 65.000000)">
                    <g id="Thropy" transform="translate(0.750000, 0.392473)">
                        <polygon id="Path" fill="#262831" fill-rule="nonzero" points="96.9589443 105.0848 67.7771261 105.0848 72.7511518 97.553986 77.0622068 90.4938905 87.6738636 90.4938905 91.9849186 97.553986"></polygon>
                        <path d="M110.906205,105.0848 L49.8757707,105.0848 C46.5190676,105.0848 43.7727273,108.174624 43.7727273,111.951148 L43.7727273,134.266618 L116.704067,134.266618 L116.704067,111.951148 C117.009249,108.174624 114.262908,105.0848 110.906205,105.0848 Z" id="Path" fill="#262831"></path>
                        <path d="M87.5454545,101.01288 C85.5329901,102.370295 83.5205256,103.727385 81.5078204,104.745446 L80.2501204,105.0848 L78.9921796,104.406092 C76.9797151,103.388031 74.9672507,102.030941 72.9545455,100.673527 L76.2249507,90.4938905 L84.0234612,90.4938905 L87.5454545,101.01288 Z" id="Path" fill="#959AA2" fill-rule="nonzero"></path>
                        <g id="Group" transform="translate(0.000000, 2.948436)" fill="#262831">
                            <path d="M0,0 L0,12.7735615 C0,43.928517 20.731314,70.7216594 49.821843,81.9376222 C59.184279,85.6762765 69.549936,87.5454545 80.25,87.5454545 C90.950064,87.5454545 101.315721,85.6762765 110.678157,81.9376222 C139.768686,70.7219575 160.5,43.928517 160.5,12.7738597 L160.5,0 L0,0 Z M145.909091,14.8813031 C145.909091,28.8188257 140.328136,41.5950502 130.807553,51.7577286 C118.660658,64.5336752 100.604164,72.9545455 80.25,72.9545455 C59.8958358,72.9545455 41.8393423,64.8243471 29.6924466,51.7577286 C20.5001927,41.8851663 14.5909091,28.8188257 14.5909091,14.8813031 L14.5909091,14.5909091 L145.580762,14.5909091 L145.580762,14.8813031 L145.909091,14.8813031 Z" id="Shape"></path>
                        </g>
                        <path d="M131.318182,2.94843597 L131.318182,35.8759687 C131.318182,66.3644791 111.021741,94.1090526 80.25,105.0848 C49.4782593,93.8041383 29.1818182,66.3644791 29.1818182,35.5710545 L29.1818182,2.94843597 L131.318182,2.94843597 Z" id="Path" fill="#1C1E26" fill-rule="nonzero"></path>
                        <rect id="Rectangle" fill="#EB2C44" fill-rule="nonzero" x="29.1818182" y="0.668606427" width="102.136364" height="4.55965909"></rect>
                    </g>
                </g>
            </g>
        </g>
    </g>
</svg>
