<?xml version="1.0" encoding="UTF-8"?>
<svg width="183px" height="83px" viewBox="0 0 183 83" version="1.1" xmlns="http://www.w3.org/2000/svg" xmlns:xlink="http://www.w3.org/1999/xlink">
    <title>Group 4</title>
    <g id="Profile-Page" stroke="none" stroke-width="1" fill="none" fill-rule="evenodd">
        <g id="Gamer-Arena-Empty-Profile-1-360px" transform="translate(-90.000000, -909.000000)">
            <g id="Stats" transform="translate(17.000000, 821.000000)">
                <g id="Group-4" transform="translate(73.000000, 88.000000)">
                    <rect id="Rectangle" fill="#1C1E26" x="0" y="0" width="183" height="83" rx="22.37"></rect>
                    <rect id="Rectangle" fill="#262831" x="83" y="14" width="86" height="9" rx="4.5"></rect>
                    <rect id="Rectangle" fill="#262831" x="82" y="35" width="86" height="9" rx="4.5"></rect>
                    <rect id="Rectangle" fill="#262831" x="83" y="58" width="86" height="9" rx="4.5"></rect>
                    <path d="M39.0324238,41.5145927 L48.4435764,8.82937687 C48.5333184,8.52463915 48.745412,8.27016195 49.0298805,8.12590897 C49.314349,7.98165598 49.6460342,7.9603849 49.9467794,8.06710792 C64.4678327,13.0758232 74.4133561,26.4280811 74.9991132,41.7008555 C75.01195,42.0410151 74.8849707,42.3717125 74.647414,42.6167994 C74.4098574,42.8618864 74.0821984,43 73.7398856,43 L39.8367555,42.5820822 C39.5734476,42.5804156 39.3260807,42.4563711 39.1681917,42.2468246 C39.0103026,42.0372781 38.9600689,41.7663542 39.0324238,41.5145927 L39.0324238,41.5145927 Z" id="Path" fill="#EB2C44"></path>
                    <path d="M64.996629,46.1719016 C64.280361,53.2723888 61.0183193,59.8626526 55.8256522,64.6999163 C55.5998418,64.9140225 55.2950101,65.0216948 54.9863984,64.9963565 C54.6777868,64.9710183 54.3941483,64.8150302 54.2054933,64.5668946 L40.1505366,46.178236 C39.9812352,45.9562264 39.9523186,45.6559724 40.0760814,45.4051335 C40.1998441,45.1542946 40.4545288,44.996968 40.7318509,45 L64.2351229,45.3167625 C64.4513461,45.3193507 64.6566404,45.4132321 64.8012963,45.5756745 C64.9459521,45.7381169 65.0167797,45.9543087 64.996629,46.1719016 Z" id="Path" fill="#464853"></path>
                    <path d="M35.9817048,40.7933666 C30.3004984,35.3668347 23.670333,29.0226038 18.2338169,23.7984117 C18.0846949,23.6573643 18,23.4597039 18,23.2527314 C18,23.0457589 18.0846949,22.8480985 18.2338169,22.707051 C25.0323931,16.39427 34.3814898,13.7420439 43.4165248,15.5630201 C43.6169512,15.6056936 43.7907176,15.7314669 43.8958581,15.9099647 C44.0009985,16.0884624 44.0279542,16.3034566 43.970215,16.5030242 L37.195745,40.4556025 C37.1261654,40.7077388 36.9314749,40.9043225 36.682838,40.973497 C36.4342012,41.0426715 36.1680632,40.9742972 35.9817048,40.7933666 Z" id="Path" fill="#464853"></path>
                    <path d="M33.3703665,44.1471908 L13.7747726,58.7912844 C13.5352421,58.968582 13.2323253,59.0372554 12.9397613,58.9805872 C12.6471973,58.9239191 12.3918223,58.7471075 12.2358023,58.4931938 C9.45363157,54.0237235 7.98574584,48.8612608 8,43.5965077 C8.00116118,36.9641153 10.2920109,30.5354979 14.4854286,25.3972914 C14.6709268,25.166502 14.9442218,25.0234839 15.2395703,25.0026411 C15.5349189,24.9817984 15.8255882,25.0850176 16.0416554,25.2874685 C17.4368211,26.6053428 18.9533056,28.0382696 20.5911088,29.5862489 C25.6111953,34.3164762 30.6312818,39.0514103 33.5084189,41.7499148 C33.845055,42.067896 34.024025,42.5183669 33.997401,42.9806919 C33.970777,43.4430169 33.7412791,43.8699617 33.3703665,44.1471908 L33.3703665,44.1471908 Z" id="Path" fill="#464853"></path>
                    <path d="M34.9997912,46.5604795 L34.6204696,71.0469598 C34.6189107,71.31109 34.5140045,71.5628485 34.3304982,71.7428463 C34.1469918,71.9228442 33.9011347,72.0151426 33.6509237,71.9979687 C26.5754698,71.4686754 19.9764025,68.0479544 15.2614148,62.4655034 C15.0704444,62.2422757 14.9772957,61.9447954 15.0047088,61.6456857 C15.032122,61.3465761 15.1775743,61.0733619 15.405557,60.8927425 L34.1652837,46.1145443 C34.3233968,45.9852136 34.538145,45.9635678 34.716671,46.0589666 C34.8951969,46.1543654 35.0054634,46.3496891 34.9997912,46.5604795 L34.9997912,46.5604795 Z" id="Path" fill="#464853"></path>
                    <path d="M38.0980438,48.1600074 L51.7970435,65.9138741 C51.9599301,66.1222619 52.0292904,66.3889235 51.988618,66.6503989 C51.9479456,66.9118744 51.8008777,67.1447811 51.5824134,67.2936922 C47.6293571,69.9345403 43.0827922,71.5501879 38.3515562,71.9953522 C38.0034016,72.0255353 37.6586197,71.9077226 37.4015201,71.6707227 C37.1444206,71.4337228 36.9987062,71.0993856 37,70.7494668 L37.3623914,48.4154139 C37.3605687,48.2387084 37.4717163,48.0806025 37.6384585,48.0227124 C37.8052006,47.9648222 37.9902348,48.0200987 38.0980438,48.1600074 L38.0980438,48.1600074 Z" id="Path" fill="#464853"></path>
                </g>
            </g>
        </g>
    </g>
</svg>
