<?xml version="1.0" encoding="UTF-8"?>
<svg width="300px" height="82px" viewBox="0 0 300 82" version="1.1" xmlns="http://www.w3.org/2000/svg" xmlns:xlink="http://www.w3.org/1999/xlink">
    <title>Group 6</title>
    <defs>
        <filter id="filter-1">
            <feColorMatrix in="SourceGraphic" type="matrix" values="0 0 0 0 0.274510 0 0 0 0 0.282353 0 0 0 0 0.325490 0 0 0 1.000000 0"></feColorMatrix>
        </filter>
        <filter id="filter-2">
            <feColorMatrix in="SourceGraphic" type="matrix" values="0 0 0 0 0.274510 0 0 0 0 0.282353 0 0 0 0 0.325490 0 0 0 1.000000 0"></feColorMatrix>
        </filter>
    </defs>
    <g id="Profile-Page" stroke="none" stroke-width="1" fill="none" fill-rule="evenodd">
        <g id="Gamer-Arena-Empty-Profile-3-360px" transform="translate(-30.000000, -506.000000)">
            <g id="Group-6" transform="translate(30.000000, 506.000000)">
                <g id="Rectangle" fill="#17181F">
                    <rect x="0" y="0" width="300" height="82" rx="8"></rect>
                </g>
                <path d="M138.89,51 C139.13,51 139.37,50.88 139.46,50.64 L146.72,30.51 C146.84,30.21 146.69,30 146.36,30 L141.95,30 C141.71,30 141.53,30.09 141.44,30.36 L137,44.22 L132.59,30.36 C132.5,30.09 132.32,30 132.08,30 L127.67,30 C127.34,30 127.19,30.21 127.31,30.51 L134.54,50.64 C134.63,50.88 134.81,51 135.05,51 L138.89,51 Z" id="V" fill="#EB2C44" fill-rule="nonzero"></path>
                <path d="M165,51.39 C168.54,51.39 172.5,49.32 172.5,44.91 C172.5,37.53 163.02,39.03 163.02,36.06 C163.02,35.34 163.62,34.59 165.03,34.59 C166.32,34.59 167.22,35.01 168.75,36 C168.99,36.15 169.2,36.12 169.38,35.88 L171.57,33.15 C171.72,32.91 171.72,32.73 171.51,32.52 C169.71,30.87 167.64,29.76 164.85,29.76 C161.4,29.76 158.01,31.95 158.01,35.94 C158.01,42.87 167.49,41.94 167.49,44.85 C167.49,46.02 166.32,46.56 165.15,46.56 C163.5,46.56 162.21,45.99 160.59,44.76 C160.35,44.55 160.08,44.61 159.93,44.82 L157.62,47.43 C157.44,47.64 157.47,47.88 157.62,48.06 C159,49.65 161.82,51.39 165,51.39 Z" id="S" fill="#464853" fill-rule="nonzero"></path>
                <g id="Game-and-Rank" transform="translate(28.000000, 8.000000)">
                    <circle id="Oval" fill="#1C1E26" cx="32" cy="32" r="32"></circle>
                    <g filter="url(#filter-1)" id="2-User">
                        <g transform="translate(13.666667, 14.000000)">
                            <path d="M13.4737773,21.73918 C20.7802204,21.73918 26.9475545,22.9003971 26.9475545,27.3906711 C26.9475545,31.8774315 20.7407552,33 13.4737773,33 C6.16733407,33 -5.86197757e-14,31.8387828 -5.86197757e-14,27.3485089 C-5.86197757e-14,22.8617485 6.20679927,21.73918 13.4737773,21.73918 Z M24.8777843,19.0358805 C27.656493,18.9831777 30.6450847,19.3573672 31.7483164,19.6208809 C34.0875263,20.0688543 35.6248751,20.9806118 36.2616999,22.3104777 C36.8016556,23.3996678 36.8016556,24.6645337 36.2616999,25.7537238 C35.2876271,27.8126444 32.1447623,28.4749422 30.923135,28.6453478 C30.670199,28.6804829 30.4674914,28.469672 30.4943994,28.2202123 C31.0946568,22.7337213 26.5285743,20.021401 25.034611,19.268017 L24.8706088,19.1869617 C24.8167926,19.1570968 24.8042355,19.1149346 24.8096171,19.0868264 C24.8132049,19.0692589 24.8365252,19.0411507 24.8777843,19.0358805 Z M13.4737773,-1.77635684e-15 C18.4230718,-1.77635684e-15 22.3893242,3.88419237 22.3893242,8.73108823 C22.3893242,13.5779841 18.4230718,17.4621765 13.4737773,17.4621765 C8.52627656,17.4621765 4.55823033,13.5779841 4.55823033,8.73108823 C4.55823033,3.88419237 8.52627656,-1.77635684e-15 13.4737773,-1.77635684e-15 Z M25.3621299,1.45828498 C30.1428004,1.45828498 33.8955819,5.86072102 32.6165508,10.7638331 C31.753698,14.0682953 28.6305658,16.2624863 25.1504529,16.1728916 C24.8006478,16.1658646 24.4580181,16.1324862 24.1243578,16.0780267 C23.8839788,16.0358645 23.7619955,15.770594 23.9001237,15.5738371 C25.2275894,13.6607274 25.9846037,11.3576174 25.9846037,8.88937215 C25.9846037,6.31045111 25.1594223,3.90896266 23.7225303,1.93612321 C23.6758896,1.87463667 23.641806,1.78152849 23.6884467,1.7095014 C23.7243242,1.65328514 23.7960791,1.62166349 23.8624524,1.60760942 C24.346798,1.51098772 24.8437007,1.45828498 25.3621299,1.45828498 Z" id="2-Friends" fill="#200E32" fill-rule="nonzero"></path>
                        </g>
                    </g>
                </g>
                <g id="Game-and-Rank" transform="translate(204.000000, 9.000000)">
                    <circle id="Oval" fill="#1C1E26" cx="32" cy="32" r="32"></circle>
                    <g filter="url(#filter-2)" id="2-User">
                        <g transform="translate(13.666667, 14.000000)">
                            <path d="M13.4737773,21.73918 C20.7802204,21.73918 26.9475545,22.9003971 26.9475545,27.3906711 C26.9475545,31.8774315 20.7407552,33 13.4737773,33 C6.16733407,33 -5.86197757e-14,31.8387828 -5.86197757e-14,27.3485089 C-5.86197757e-14,22.8617485 6.20679927,21.73918 13.4737773,21.73918 Z M24.8777843,19.0358805 C27.656493,18.9831777 30.6450847,19.3573672 31.7483164,19.6208809 C34.0875263,20.0688543 35.6248751,20.9806118 36.2616999,22.3104777 C36.8016556,23.3996678 36.8016556,24.6645337 36.2616999,25.7537238 C35.2876271,27.8126444 32.1447623,28.4749422 30.923135,28.6453478 C30.670199,28.6804829 30.4674914,28.469672 30.4943994,28.2202123 C31.0946568,22.7337213 26.5285743,20.021401 25.034611,19.268017 L24.8706088,19.1869617 C24.8167926,19.1570968 24.8042355,19.1149346 24.8096171,19.0868264 C24.8132049,19.0692589 24.8365252,19.0411507 24.8777843,19.0358805 Z M13.4737773,-1.77635684e-15 C18.4230718,-1.77635684e-15 22.3893242,3.88419237 22.3893242,8.73108823 C22.3893242,13.5779841 18.4230718,17.4621765 13.4737773,17.4621765 C8.52627656,17.4621765 4.55823033,13.5779841 4.55823033,8.73108823 C4.55823033,3.88419237 8.52627656,-1.77635684e-15 13.4737773,-1.77635684e-15 Z M25.3621299,1.45828498 C30.1428004,1.45828498 33.8955819,5.86072102 32.6165508,10.7638331 C31.753698,14.0682953 28.6305658,16.2624863 25.1504529,16.1728916 C24.8006478,16.1658646 24.4580181,16.1324862 24.1243578,16.0780267 C23.8839788,16.0358645 23.7619955,15.770594 23.9001237,15.5738371 C25.2275894,13.6607274 25.9846037,11.3576174 25.9846037,8.88937215 C25.9846037,6.31045111 25.1594223,3.90896266 23.7225303,1.93612321 C23.6758896,1.87463667 23.641806,1.78152849 23.6884467,1.7095014 C23.7243242,1.65328514 23.7960791,1.62166349 23.8624524,1.60760942 C24.346798,1.51098772 24.8437007,1.45828498 25.3621299,1.45828498 Z" id="2-Friends" fill="#200E32" fill-rule="nonzero"></path>
                        </g>
                    </g>
                </g>
            </g>
        </g>
    </g>
</svg>
