<?xml version="1.0" encoding="UTF-8"?>
<svg width="18px" height="18px" viewBox="0 0 18 18" version="1.1" xmlns="http://www.w3.org/2000/svg"
     xmlns:xlink="http://www.w3.org/1999/xlink">
    <g stroke="none" stroke-width="1" fill-rule="evenodd">
        <path d="M6.66890154,3.76519922 C6.94988926,4.04061328 7.40678749,4.04194922 7.68950725,3.76822266 C7.97219092,3.49446094 7.97359821,3.04927734 7.69261049,2.77386328 L5.49306158,0.617835938 C5.08415535,0.219410156 4.54043852,0 3.96215303,0 C3.38383145,0 2.8401507,0.219410156 2.43218266,0.616886719 L0.21235443,2.77140234 C-0.0700044879,3.04544531 -0.070906593,3.49066406 0.210405883,3.76576172 C0.351422963,3.90367969 0.536534943,3.97265625 0.721719092,3.97265625 C0.905928968,3.97265625 1.09021101,3.90434766 1.23104767,3.76766016 L3.21149327,1.84545703 L3.21149327,16.1736328 L1.23353748,14.2348008 C0.952549763,13.9593516 0.495615453,13.9580156 0.212931777,14.2317773 C-0.0697518984,14.5055391 -0.0711591825,14.9507227 0.209828535,15.2261367 L2.40937744,17.3821641 C2.81831976,17.7805898 3.3620005,18 3.940286,18 C4.51860758,18 5.06228832,17.7805898 5.47025636,17.3831133 L7.69008459,15.2285977 C7.97244351,14.9545547 7.97334562,14.5093359 7.69203314,14.2342383 C7.41075675,13.9591406 6.95382244,13.9582617 6.67142744,14.2323398 L4.65486154,16.1895586 L4.65486154,1.791 L6.66890154,3.76519922 Z"
              id="Path" fill-rule="nonzero"></path>
        <path d="M17.304878,16.6829268 L10.3536585,16.6829268 C9.96974268,16.6829268 9.65853659,16.9777537 9.65853659,17.3414634 C9.65853659,17.7051732 9.96974268,18 10.3536585,18 L17.304878,18 C17.6887939,18 18,17.7051732 18,17.3414634 C18,16.9777537 17.6887939,16.6829268 17.304878,16.6829268 Z"
              id="Path" fill-rule="nonzero"></path>
        <path d="M10.3536585,1.31707317 L17.304878,1.31707317 C17.6887939,1.31707317 18,1.02224634 18,0.658536585 C18,0.294826829 17.6887939,0 17.304878,0 L10.3536585,0 C9.96974268,0 9.65853659,0.294826829 9.65853659,0.658536585 C9.65853659,1.02224634 9.96974268,1.31707317 10.3536585,1.31707317 Z"
              id="Path" fill-rule="nonzero"></path>
        <path d="M17.304878,4.3902439 L10.3536585,4.3902439 C9.96974268,4.3902439 9.65853659,4.68507073 9.65853659,5.04878049 C9.65853659,5.41249024 9.96974268,5.70731707 10.3536585,5.70731707 L17.304878,5.70731707 C17.6887939,5.70731707 18,5.41249024 18,5.04878049 C18,4.68507073 17.6887939,4.3902439 17.304878,4.3902439 Z"
              id="Path" fill-rule="nonzero"></path>
        <path d="M17.304878,12.2926829 L10.3536585,12.2926829 C9.96974268,12.2926829 9.65853659,12.5875098 9.65853659,12.9512195 C9.65853659,13.3149293 9.96974268,13.6097561 10.3536585,13.6097561 L17.304878,13.6097561 C17.6887939,13.6097561 18,13.3149293 18,12.9512195 C18,12.5875098 17.6887939,12.2926829 17.304878,12.2926829 Z"
              id="Path" fill-rule="nonzero"></path>
        <path d="M17.304878,8.34146341 L10.3536585,8.34146341 C9.96974268,8.34146341 9.65853659,8.63629024 9.65853659,9 C9.65853659,9.36370976 9.96974268,9.65853659 10.3536585,9.65853659 L17.304878,9.65853659 C17.6887939,9.65853659 18,9.36370976 18,9 C18,8.63629024 17.6887939,8.34146341 17.304878,8.34146341 Z"
              id="Path" fill-rule="nonzero"></path>
    </g>
</svg>
