<?xml version="1.0" encoding="iso-8859-1"?>
<!-- Generator: Adobe Illustrator 19.0.0, SVG Export Plug-In . SVG Version: 6.00 Build 0)  -->
<svg version="1.1" id="Capa_1" xmlns="http://www.w3.org/2000/svg" xmlns:xlink="http://www.w3.org/1999/xlink" x="0px" y="0px"
	 viewBox="0 0 512 512" style="enable-background:new 0 0 512 512;" xml:space="preserve">
<g>
	<g>
		<polygon points="339.392,338.624 512,447.744 512,224.896 		"/>
	</g>
</g>
<g>
	<g>
		<polygon points="0,224.896 0,447.744 172.608,338.624 		"/>
	</g>
</g>
<g>
	<g>
		<path d="M310.08,357.952l-45.28,29.824c-2.688,1.76-5.728,2.624-8.8,2.624c-3.072,0-6.112-0.864-8.8-2.624l-45.28-29.856
			L1.024,484.992C3.488,500.192,16.096,512,32,512h448c15.904,0,28.512-11.808,30.976-27.008L310.08,357.952z"/>
	</g>
</g>
<g>
	<g>
		<path d="M448,119.36V32c0-17.6-14.4-32-32-32H96C78.4,0,64,14.4,64,32v87.36L0,160v26.56l64,42.24l16,10.56l16,10.56V32h320
			v217.92l16-10.56l16-10.56l64-42.24V160L448,119.36z"/>
	</g>
</g>
<g>
	<g>
		<path d="M368,64H144c-8.832,0-16,7.168-16,16c0,8.832,7.168,16,16,16h224c8.832,0,16-7.168,16-16C384,71.168,376.832,64,368,64z"
			/>
	</g>
</g>
<g>
	<g>
		<path d="M368,128H144c-8.832,0-16,7.168-16,16c0,8.832,7.168,16,16,16h224c8.832,0,16-7.168,16-16
			C384,135.168,376.832,128,368,128z"/>
	</g>
</g>
<g>
</g>
<g>
</g>
<g>
</g>
<g>
</g>
<g>
</g>
<g>
</g>
<g>
</g>
<g>
</g>
<g>
</g>
<g>
</g>
<g>
</g>
<g>
</g>
<g>
</g>
<g>
</g>
<g>
</g>
</svg>
