<?xml version="1.0" encoding="UTF-8"?>
<svg width="19px" height="9px" viewBox="0 0 19 9" version="1.1" xmlns="http://www.w3.org/2000/svg" xmlns:xlink="http://www.w3.org/1999/xlink">
    <title>=</title>
    <g id="Wallet" stroke="none" stroke-width="1" fill="none" fill-rule="evenodd">
        <g id="3-Gamer-Arena--Deposit---1240px" transform="translate(-542.000000, -324.000000)" fill="#FFFFFF" fill-rule="nonzero">
            <g id="Current-Status" transform="translate(240.000000, 263.000000)">
                <g id="=" transform="translate(294.293233, 50.000000)">
                    <path d="M25.1340662,14.92 C25.5537468,14.92 25.8335338,14.728 25.8335338,14.44 L25.8335338,12.264 C25.8335338,11.976 25.5537468,11.784 25.1340662,11.784 L9.27946759,11.784 C8.85978704,11.784 8.58,11.976 8.58,12.264 L8.58,14.44 C8.58,14.728 8.85978704,14.92 9.27946759,14.92 L25.1340662,14.92 Z M25.1340662,19.976 C25.5537468,19.976 25.8335338,19.784 25.8335338,19.496 L25.8335338,17.32 C25.8335338,17.032 25.5537468,16.84 25.1340662,16.84 L9.27946759,16.84 C8.85978704,16.84 8.58,17.032 8.58,17.32 L8.58,19.496 C8.58,19.784 8.85978704,19.976 9.27946759,19.976 L25.1340662,19.976 Z"></path>
                </g>
            </g>
        </g>
    </g>
</svg>