<?xml version="1.0" encoding="UTF-8"?>
<svg width="16px" height="16px" viewBox="0 0 16 16" version="1.1" xmlns="http://www.w3.org/2000/svg"
     xmlns:xlink="http://www.w3.org/1999/xlink">
    <path d="M15.5038521,13.1082688 L13.3429533,10.9473684 L10.9473684,13.3429244 L13.108298,15.5038556 C13.7698234,16.1653815 14.8423575,16.1653815 15.5038829,15.5038556 C16.1653775,14.8423297 16.1653775,13.7697947 15.5038521,13.1082688 L15.5038521,13.1082688 Z"
          id="Path"></path>
    <path d="M7.51273941,12.6315789 C7.6245327,12.6315789 7.73638425,12.5889064 7.82167106,12.5035903 C7.99230292,12.3329583 7.99230292,12.0563293 7.82167106,11.8856972 L7.30831905,11.3723446 L15.8396503,4.39722735 C15.9411323,4.31424156 16,4.19006872 16,4.05896341 L16,0.436920617 C16,0.195623924 15.8043763,0 15.5630799,0 L11.940983,0 C11.8098779,0 11.6857052,0.0588677712 11.6027195,0.160349867 L4.62763938,8.69166184 L4.11428738,8.17830925 C3.94368464,8.00770631 3.66702682,8.00767718 3.49639495,8.17830925 C3.32576309,8.34894131 3.32576309,8.62557032 3.49639495,8.79620238 L7.20377863,12.5035903 C7.28909456,12.5889355 7.40088786,12.6315789 7.51273941,12.6315789 Z M13.2797936,2.10231637 C13.4503964,1.93168431 13.7270542,1.93168431 13.8976861,2.10231637 C14.0683179,2.27294844 14.0683179,2.54957744 13.8976861,2.72020951 L6.27692543,10.3409789 L5.659033,9.72308578 L13.2797936,2.10231637 Z"
          id="Shape"></path>
    <path d="M2.89173116,15.5038521 L5.05263158,13.3429533 L2.65707564,10.9473684 L0.496144424,13.108298 C-0.165381475,13.7698234 -0.165381475,14.8423575 0.496144424,15.5038829 C1.15767032,16.1653775 2.23020526,16.1653775 2.89173116,15.5038521 L2.89173116,15.5038521 Z"
          id="Path"></path>
    <path d="M0.156730336,5.12777357 L3.53296655,8.42105263 L4.84708138,6.50340669 L2.0548614,3.17211846 C1.88808096,2.97317322 1.88808096,2.65055381 2.0548614,2.45157461 C2.22164184,2.2525954 2.49202658,2.2525954 2.65880702,2.45157461 L5.39044168,5.71058088 L6.73684211,3.74585655 L4.2979985,0.186988822 C4.21688592,0.0686474857 4.095516,0 3.96737009,0 L0.427058137,0 C0.191208163,0 0,0.228122966 0,0.509506327 L0,4.73334774 C0,4.88623361 0.0575389663,5.03100134 0.156730336,5.12777357 Z"
          id="Path"></path>
    <path d="M12.6510529,8.56219594 L12.0848774,9.12837543 L11.8678392,8.86292258 L10.5895112,9.90806089 L10.9473544,10.2659066 L10.2658814,10.9473845 L9.83964354,10.5211436 L8.52768036,11.5937813 L9.12835833,12.0848836 L8.56218288,12.6510631 C8.37402528,12.839222 8.37399315,13.1443498 8.56218288,13.3325409 C8.75037261,13.520732 9.05546613,13.520732 9.24365586,13.3325409 L13.3325259,9.24364166 C13.4266207,9.14954613 13.4736842,9.02624853 13.4736842,8.9029188 C13.4736842,8.7796212 13.4266207,8.65625935 13.3325259,8.56219594 C13.1443361,8.37400486 12.8392426,8.37400486 12.6510529,8.56219594 L12.6510529,8.56219594 Z"
          id="Path"></path>
</svg>
