<svg xmlns="http://www.w3.org/2000/svg" width="21" height="20" viewBox="0 0 21 20">
    <g fill="none" fill-rule="evenodd">
        <g fill="#EB2C44" fill-rule="nonzero">
            <g>
                <g>
                    <g>
                        <path d="M19.38 16.385l-2.701-2.7-2.995 2.994 2.701 2.7c.827.828 2.168.828 2.995 0 .827-.826.827-2.167 0-2.994zM9.39 15.79c.14 0 .28-.054.387-.16.213-.214.213-.56 0-.773l-.642-.642L19.8 5.497c.126-.104.2-.26.2-.423V.546C20 .245 19.755 0 19.454 0h-4.528c-.164 0-.319.074-.423.2L5.785 10.865l-.642-.642c-.213-.213-.56-.213-.773 0-.213.213-.213.559 0 .772l4.635 4.634c.106.107.246.16.386.16zM16.6 2.627c.213-.213.559-.213.772 0 .213.213.213.559 0 .772l-9.526 9.526-.772-.772L16.6 2.628zM3.615 19.38l2.7-2.701-2.994-2.995-2.7 2.701c-.828.827-.828 2.168 0 2.995.826.827 2.167.827 2.994 0z" transform="translate(-20 -1683) translate(9 1407) translate(6.957 271) translate(5 5)"/>
                        <path d="M.196 6.41l4.22 4.116L6.06 8.13l-3.49-4.164c-.209-.249-.209-.652 0-.9.208-.25.546-.25.755 0l3.414 4.073 1.683-2.456L5.372.234C5.272.086 5.12 0 4.96 0H.534C.239 0 0 .285 0 .637v5.28c0 .19.072.372.196.493zM15.814 10.703l-.708.707-.271-.331-1.598 1.306.447.447-.852.852-.532-.533-1.64 1.341.75.614-.707.708c-.235.235-.236.616 0 .852.235.235.616.235.852 0l5.11-5.111c.118-.118.177-.272.177-.426 0-.154-.059-.309-.176-.426-.236-.235-.617-.235-.852 0z" transform="translate(-20 -1683) translate(9 1407) translate(6.957 271) translate(5 5)"/>
                    </g>
                </g>
            </g>
        </g>
    </g>
</svg>
