<?xml version="1.0" encoding="UTF-8"?>
<svg width="24px" height="20px" viewBox="0 0 24 20" version="1.1" xmlns="http://www.w3.org/2000/svg" xmlns:xlink="http://www.w3.org/1999/xlink">
    <title>Icons/Hands/Primary</title>
    <g id="Duel-Details" stroke="none"  stroke-width="1" fill="none" fill-rule="evenodd">
        <g id="Gamer-Arena--Duel-Detail---Host-1-360px" transform="translate(-19.000000, -1890.000000)">
            <g id="Duel-Rules" transform="translate(9.000000, 1407.000000)">
                <g id="Icons/Thropy/Selected" transform="translate(6.956522, 478.000000)">
                    <rect id="Rectangle" x="0" y="0" width="30" height="30"></rect>
                    <g fill="#EB2C44">
                        <g transform="translate(3.750000, 5.000000)">
                            <path d="M15.5475988,15.1136364 L6.99193047,15.1136364 C6.52136462,15.1136364 6.13636364,15.5467893 6.13636364,16.0762086 L6.13636364,19.2045455 L16.3603832,19.2045455 L16.3603832,16.0762086 C16.4031657,15.5467893 16.0181647,15.1136364 15.5475988,15.1136364 Z" id="Path" fill="#EB2C44" fill-rule="nonzero"></path>
                            <path d="M12.2727273,14.5428065 C11.9906061,14.7330983 11.7084849,14.9233446 11.42633,15.0660634 L11.2500169,15.1136364 L11.07367,15.0184905 C10.7915489,14.8757716 10.5094277,14.6855254 10.2272727,14.4952336 L10.6857408,13.0681818 L11.7789899,13.0681818 L12.2727273,14.5428065 Z" id="Path" fill="#959AA2" fill-rule="nonzero"></path>
                            <g id="Group" transform="translate(0.000000, 0.795455)" fill="#EB2C44" fill-rule="nonzero">
                                <path d="M0,0 L0,1.7906862 C0,6.15820331 2.90625897,9.91425131 6.98437051,11.4865826 C8.29686154,12.010693 9.74999103,12.2727273 11.25,12.2727273 C12.750009,12.2727273 14.2031385,12.010693 15.5156295,11.4865826 C19.593741,9.91429311 22.5,6.15820331 22.5,1.790728 L22.5,0 L0,0 Z M20.4545455,2.08616398 C20.4545455,4.04002229 19.6721686,5.8310818 18.3375075,7.25575635 C16.6346716,9.0467769 14.1033875,10.2272727 11.25,10.2272727 C8.39661249,10.2272727 5.86532836,9.08752529 4.16249251,7.25575635 C2.87385879,5.87175228 2.04545455,4.04002229 2.04545455,2.08616398 L2.04545455,2.04545455 L20.4085181,2.04545455 L20.4085181,2.08616398 L20.4545455,2.08616398 Z" id="Shape"></path>
                            </g>
                            <path d="M18.4090909,0.795454545 L18.4090909,5.41146381 C18.4090909,9.68555404 15.5637954,13.5749802 11.25,15.1136364 C6.93620458,13.5322352 4.09090909,9.68555404 4.09090909,5.36871882 L4.09090909,0.795454545 L18.4090909,0.795454545 Z" id="Path" fill="#EB2C44" fill-rule="nonzero"></path>
                            <rect id="Rectangle" fill="#EB2C44" fill-rule="nonzero" x="4.09090909" y="0.475852273" width="14.3181818" height="1"></rect>
                        </g>
                    </g>
                </g>
            </g>
        </g>
    </g>
</svg>
