<?xml version="1.0" encoding="UTF-8"?>
<svg width="24px" height="22px" viewBox="0 0 24 22" version="1.1" xmlns="http://www.w3.org/2000/svg" xmlns:xlink="http://www.w3.org/1999/xlink">
    <title>Icons/Hands/Primary</title>
    <g id="Duel-Details" stroke="none" stroke-width="1" fill="none" fill-rule="evenodd">
        <g id="Gamer-Arena--Duel-Detail---Host-1-360px" transform="translate(-19.000000, -2314.000000)">
            <g id="Duel-Rules" transform="translate(9.000000, 1407.000000)">
                <g id="Icons/Warning/Selected" transform="translate(6.956522, 904.000000)">
                    <rect id="Rectangle" x="0" y="0" width="30" height="30"></rect>
                    <g id="alert" transform="translate(3.750000, 3.750000)" fill="#EB2C44" fill-rule="nonzero">
                        <path d="M22.0325098,16.2575684 L14.0843408,1.64680664 C12.807334,-0.503041992 9.69437988,-0.505898437 8.41565918,1.64680664 L0.467885742,16.2575684 C-0.837553711,18.4543506 0.742939453,21.2361768 3.30156738,21.2361768 L19.1981689,21.2361768 C21.7546436,21.2361768 23.3379492,18.4565918 22.0325098,16.2575684 Z M11.25,18.599458 C10.5232324,18.599458 9.93164063,18.0078662 9.93164063,17.2810986 C9.93164063,16.5543311 10.5232324,15.9627393 11.25,15.9627393 C11.9767676,15.9627393 12.5683594,16.5543311 12.5683594,17.2810986 C12.5683594,18.0078662 11.9767676,18.599458 11.25,18.599458 Z M12.5683594,13.3260205 C12.5683594,14.0527881 11.9767676,14.6443799 11.25,14.6443799 C10.5232324,14.6443799 9.93164063,14.0527881 9.93164063,13.3260205 L9.93164063,6.73422363 C9.93164063,6.00745605 10.5232324,5.41586426 11.25,5.41586426 C11.9767676,5.41586426 12.5683594,6.00745605 12.5683594,6.73422363 L12.5683594,13.3260205 Z" id="Shape"></path>
                    </g>
                </g>
            </g>
        </g>
    </g>
</svg>
