<?xml version="1.0" encoding="UTF-8"?>
<svg width="22px" height="22px" viewBox="0 0 22 22" version="1.1" xmlns="http://www.w3.org/2000/svg" xmlns:xlink="http://www.w3.org/1999/xlink">
    <title>Icons/Question Mark/Secondary</title>
    <g id="Arena-Page" stroke="none" stroke-width="1" fill="none" fill-rule="evenodd">
        <g id="Gamer-Arena--Arena-Page-1440px" transform="translate(-286.000000, -1067.000000)">
            <g id="Quick-Duels" transform="translate(267.000000, 912.000000)">
                <g id="Icons/Question-Mark/Secondary" transform="translate(16.000000, 152.000000)">
                    <rect id="Rectangle" x="0" y="0" width="28" height="28"></rect>
                    <g id="Question-Mark" transform="translate(3.500000, 3.500000)" fill="#959AA2" fill-rule="nonzero" stroke="#111217" stroke-width="0">
                        <path d="M10.5,0 C4.7103,0 0,4.7103 0,10.5 C0,16.2897 4.7103,21 10.5,21 C16.2897,21 21,16.2897 21,10.5 C21,4.7103 16.2897,0 10.5,0 M10.5,18.9 C5.86845,18.9 2.1,15.13155 2.1,10.5 C2.1,5.86845 5.86845,2.1 10.5,2.1 C15.13155,2.1 18.9,5.86845 18.9,10.5 C18.9,15.13155 15.13155,18.9 10.5,18.9 M10.5,14.5949999 C10.0871707,14.5951876 9.70580071,14.8156027 9.49954847,15.1732172 C9.29329624,15.5308316 9.29349637,15.9713153 9.50007348,16.3287422 C9.70665058,16.6861691 10.0882207,16.9062376 10.50105,16.9060501 C11.1392288,16.90576 11.6563399,16.3881788 11.6560501,15.75 C11.65576,15.1118212 11.1381788,14.5947101 10.5,14.5949999 M10.5,4.2 C9.05625,4.2 7.79625,5.41905 7.65765,5.55765 C7.27959905,5.97201209 7.29353644,6.61021821 7.68931634,7.00768108 C8.08509624,7.40514396 8.72323747,7.4217893 9.1392,7.0455 C9.44475,6.7452 10.0884,6.3 10.5,6.3 C10.9541752,6.30056359 11.356613,6.59278839 11.4977264,7.02448552 C11.6388398,7.45618265 11.4867038,7.92968683 11.12055,8.1984 C10.059,8.9754 9.45,10.0968 9.45,11.27385 L9.45,11.55 C9.45,12.129899 9.92010101,12.6 10.5,12.6 C11.079899,12.6 11.55,12.129899 11.55,11.55 L11.55,11.27385 C11.55,10.5882 12.0582,10.1136 12.36165,9.891 C13.1697528,9.29623183 13.6478013,8.35338155 13.65,7.35 C13.65,5.6133 12.2367,4.2 10.5,4.2" id="Shape"></path>
                    </g>
                </g>
            </g>
        </g>
    </g>
</svg>
