<?xml version="1.0" encoding="UTF-8"?>
<svg viewBox="0 0 28 28">
    <defs>
        <path id="coins_svg__a" d="M0 0h1225v1001H0z"></path>
    </defs>
    <g fill="none" fill-rule="evenodd" transform="translate(-303 -344)">
        <path fill="#17181F" d="M0 0h1440v909H0z"></path>
        <rect width="756" height="337" fill="#17181F" rx="10" transform="translate(285 211)"></rect>
        <g fill="#959AA2" fill-rule="nonzero" opacity="0.5">
            <path d="M314.879 352.459c0 2.245 4.055 3.42 8.06 3.42 4.006 0 8.061-1.175 8.061-3.42 0-4.49-16.121-4.49-16.121 0z"></path>
            <path d="M330.7 355.127a.58.58 0 00-.608-.02c-1.67.95-4.21 1.473-7.153 1.473-2.942 0-5.483-.524-7.153-1.473a.58.58 0 00-.608.02.687.687 0 00-.3.576v.203c0 2.21 4.056 3.367 8.061 3.367 4.006 0 8.061-1.157 8.061-3.367v-.203a.686.686 0 00-.3-.576zm-23.458 10.059c0 2.245 4.056 3.42 8.061 3.42 4.006 0 8.06-1.175 8.06-3.42 0-4.49-16.12-4.49-16.12 0z"></path>
            <path d="M323.065 367.854a.583.583 0 00-.61-.02c-1.669.95-4.21 1.473-7.152 1.473-2.943 0-5.483-.524-7.153-1.473a.58.58 0 00-.608.02.687.687 0 00-.3.576v.203c0 2.21 4.056 3.367 8.061 3.367 4.006 0 8.06-1.157 8.06-3.367v-.203a.689.689 0 00-.298-.576zm-12.005-17.066c.838 0 1.675-.052 2.49-.156a.596.596 0 00.354-.18c.94-.976 2.544-1.695 4.64-2.08a.642.642 0 00.482-.445c.064-.197.095-.38.095-.56 0-4.49-16.121-4.49-16.121 0 0 2.246 4.055 3.42 8.06 3.42z"></path>
            <path d="M311.095 354.182c.516 0 1.019-.02 1.506-.054a.618.618 0 00.481-.307c.107-.178.13-.4.061-.6a3.212 3.212 0 01-.177-1.095c0-.184-.07-.36-.193-.487s-.296-.204-.46-.186c-.406.021-.813.036-1.218.036-2.955 0-5.506-.524-7.183-1.473a.586.586 0 00-.612.02.687.687 0 00-.3.576v.203c0 2.21 4.072 3.367 8.095 3.367zm0 4.242c.516 0 1.019-.019 1.506-.054a.614.614 0 00.481-.306.717.717 0 00.061-.6 3.294 3.294 0 01-.18-1.096c0-.184-.07-.36-.193-.487s-.293-.2-.46-.185c-.405.02-.81.035-1.215.035-2.955 0-5.506-.523-7.183-1.473a.588.588 0 00-.612.02.688.688 0 00-.3.577v.203c0 2.21 4.072 3.366 8.095 3.366zm19.587 4.343a.625.625 0 00-.646-.02c-1.24.684-2.984 1.162-5.043 1.381-.347.038-.595.465-.58.833 0 .352-.054.688-.165 1.027a.73.73 0 00.107.66.652.652 0 00.586.257c3.795-.432 6.059-1.678 6.059-3.334v-.21a.703.703 0 00-.318-.594zm-16.019-1.806l.42.009h.011c.296 0 .552-.237.618-.572.066-.34-.083-.685-.356-.83l-.135-.07a3.71 3.71 0 01-.265-.142.556.556 0 00-.621.024.76.76 0 00-.305.626v.221c0 .406.283.734.633.734zm16.03-1.591a.603.603 0 00-.624-.02c-1.713.96-4.32 1.49-7.338 1.49l-.42-.009c-.257-.023-.564.219-.629.533a.693.693 0 00.357.768c.69.336 1.252.734 1.673 1.184.12.128.281.2.45.2l.04-.002c3.135-.214 6.798-1.22 6.798-3.355v-.206a.689.689 0 00-.307-.582z"></path>
            <path d="M308.322 361.818c.08 0 .159-.016.234-.05 1.121-.493 2.488-.832 4.064-1.009.336-.037.576-.509.561-.883 0-.194-.071-.38-.197-.513s-.3-.205-.47-.195a23.44 23.44 0 01-1.242.037c-3.02 0-5.627-.55-7.34-1.549a.582.582 0 00-.625.022.729.729 0 00-.307.605v.214c0 1.565 1.956 2.804 5.234 3.314a.522.522 0 00.088.007z"></path>
        </g>
    </g>
</svg>
